<mxfile host="app.diagrams.net" modified="2023-07-13T06:45:32.404Z" agent="Mozilla/5.0 (Macintosh; Intel Mac OS X 10_15_7) AppleWebKit/537.36 (KHTML, like Gecko) Chrome/114.0.0.0 Safari/537.36" etag="2iVrUFQT3AjwGgt-Hu0r" version="21.6.2" type="github">
  <diagram name="Page-1" id="52a04d89-c75d-2922-d76d-85b35f80e030">
    <mxGraphModel dx="2018" dy="1165" grid="1" gridSize="10" guides="1" tooltips="1" connect="1" arrows="1" fold="1" page="1" pageScale="1" pageWidth="1100" pageHeight="850" background="none" math="0" shadow="0">
      <root>
        <mxCell id="0" />
        <mxCell id="1" parent="0" />
        <mxCell id="17472293e6e8944d-4" value="Database" style="html=1;rounded=0;shadow=0;comic=0;labelBackgroundColor=none;strokeWidth=2;fontFamily=Verdana;fontSize=12;align=center;shape=mxgraph.ios7ui.horLines;" parent="1" vertex="1">
          <mxGeometry x="45" y="230" width="135" height="50" as="geometry" />
        </mxCell>
        <mxCell id="1fdf3b25b50cf41e-27" style="edgeStyle=none;html=1;labelBackgroundColor=none;startFill=0;startSize=8;endFill=1;endSize=8;fontFamily=Verdana;fontSize=12;" parent="1" source="17472293e6e8944d-30" target="1fdf3b25b50cf41e-1" edge="1">
          <mxGeometry relative="1" as="geometry" />
        </mxCell>
        <mxCell id="17472293e6e8944d-30" value="모바일웹 진입" style="whiteSpace=wrap;html=1;rounded=0;shadow=0;comic=0;labelBackgroundColor=none;strokeWidth=1;fontFamily=Verdana;fontSize=12;align=center;" parent="1" vertex="1">
          <mxGeometry x="60" y="55" width="120" height="50" as="geometry" />
        </mxCell>
        <mxCell id="1fdf3b25b50cf41e-1" value="Init Branch" style="swimlane;html=1;fontStyle=0;childLayout=stackLayout;horizontal=1;startSize=26;fillColor=#e0e0e0;horizontalStack=0;resizeParent=1;resizeLast=0;collapsible=1;marginBottom=0;swimlaneFillColor=#ffffff;align=center;rounded=1;shadow=0;comic=0;labelBackgroundColor=none;strokeWidth=1;fontFamily=Verdana;fontSize=12" parent="1" vertex="1">
          <mxGeometry x="240" y="54" width="140" height="52" as="geometry" />
        </mxCell>
        <mxCell id="1fdf3b25b50cf41e-2" value="components/AppHead" style="text;html=1;strokeColor=none;fillColor=none;spacingLeft=4;spacingRight=4;whiteSpace=wrap;overflow=hidden;rotatable=0;points=[[0,0.5],[1,0.5]];portConstraint=eastwest;align=center;" parent="1fdf3b25b50cf41e-1" vertex="1">
          <mxGeometry y="26" width="140" height="26" as="geometry" />
        </mxCell>
        <mxCell id="1fdf3b25b50cf41e-36" style="edgeStyle=none;html=1;labelBackgroundColor=none;startFill=0;startSize=8;endFill=1;endSize=8;fontFamily=Verdana;fontSize=12;" parent="1" edge="1">
          <mxGeometry relative="1" as="geometry">
            <mxPoint x="610" y="92" as="sourcePoint" />
            <mxPoint x="610" y="152" as="targetPoint" />
          </mxGeometry>
        </mxCell>
        <mxCell id="degMfgPpI1O1PvxIHG5i-1" value="앱 유도 팝업" style="swimlane;html=1;fontStyle=0;childLayout=stackLayout;horizontal=1;startSize=26;fillColor=#e0e0e0;horizontalStack=0;resizeParent=1;resizeLast=0;collapsible=1;marginBottom=0;swimlaneFillColor=#ffffff;align=center;rounded=1;shadow=0;comic=0;labelBackgroundColor=none;strokeWidth=1;fontFamily=Verdana;fontSize=12" vertex="1" parent="1">
          <mxGeometry x="441" y="54" width="140" height="52" as="geometry" />
        </mxCell>
        <mxCell id="degMfgPpI1O1PvxIHG5i-2" value="apps/*" style="text;html=1;strokeColor=none;fillColor=none;spacingLeft=4;spacingRight=4;whiteSpace=wrap;overflow=hidden;rotatable=0;points=[[0,0.5],[1,0.5]];portConstraint=eastwest;align=center;" vertex="1" parent="degMfgPpI1O1PvxIHG5i-1">
          <mxGeometry y="26" width="140" height="26" as="geometry" />
        </mxCell>
        <mxCell id="degMfgPpI1O1PvxIHG5i-4" style="edgeStyle=none;html=1;labelBackgroundColor=none;startFill=0;startSize=8;endFill=1;endSize=8;fontFamily=Verdana;fontSize=12;entryX=0.004;entryY=0.015;entryDx=0;entryDy=0;entryPerimeter=0;" edge="1" parent="1" target="degMfgPpI1O1PvxIHG5i-2">
          <mxGeometry relative="1" as="geometry">
            <mxPoint x="380" y="80" as="sourcePoint" />
            <mxPoint x="250" y="90" as="targetPoint" />
          </mxGeometry>
        </mxCell>
        <mxCell id="degMfgPpI1O1PvxIHG5i-5" value="openDialogToApp" style="swimlane;html=1;fontStyle=0;childLayout=stackLayout;horizontal=1;startSize=26;fillColor=#e0e0e0;horizontalStack=0;resizeParent=1;resizeLast=0;collapsible=1;marginBottom=0;swimlaneFillColor=#ffffff;align=center;rounded=1;shadow=0;comic=0;labelBackgroundColor=none;strokeWidth=1;fontFamily=Verdana;fontSize=12" vertex="1" parent="1">
          <mxGeometry x="642" y="54" width="140" height="70" as="geometry" />
        </mxCell>
        <mxCell id="degMfgPpI1O1PvxIHG5i-6" value="hooks/&lt;br&gt;useMwebToAppDialog" style="text;html=1;strokeColor=none;fillColor=none;spacingLeft=4;spacingRight=4;whiteSpace=wrap;overflow=hidden;rotatable=0;points=[[0,0.5],[1,0.5]];portConstraint=eastwest;align=center;" vertex="1" parent="degMfgPpI1O1PvxIHG5i-5">
          <mxGeometry y="26" width="140" height="40" as="geometry" />
        </mxCell>
        <mxCell id="degMfgPpI1O1PvxIHG5i-7" style="edgeStyle=none;html=1;labelBackgroundColor=none;startFill=0;startSize=8;endFill=1;endSize=8;fontFamily=Verdana;fontSize=12;entryX=0.004;entryY=0.015;entryDx=0;entryDy=0;entryPerimeter=0;" edge="1" parent="1">
          <mxGeometry relative="1" as="geometry">
            <mxPoint x="581" y="71" as="sourcePoint" />
            <mxPoint x="642.56" y="71.59999999999991" as="targetPoint" />
          </mxGeometry>
        </mxCell>
        <mxCell id="degMfgPpI1O1PvxIHG5i-8" style="edgeStyle=none;html=1;labelBackgroundColor=none;startFill=0;startSize=8;endFill=1;endSize=8;fontFamily=Verdana;fontSize=12;entryX=0.004;entryY=0.015;entryDx=0;entryDy=0;entryPerimeter=0;" edge="1" parent="1">
          <mxGeometry relative="1" as="geometry">
            <mxPoint x="782" y="69.6" as="sourcePoint" />
            <mxPoint x="844" y="69.6" as="targetPoint" />
          </mxGeometry>
        </mxCell>
        <mxCell id="degMfgPpI1O1PvxIHG5i-10" value="generateOneLinkBranchURL" style="swimlane;html=1;fontStyle=0;childLayout=stackLayout;horizontal=1;startSize=26;fillColor=#e0e0e0;horizontalStack=0;resizeParent=1;resizeLast=0;collapsible=1;marginBottom=0;swimlaneFillColor=#ffffff;align=center;rounded=1;shadow=0;comic=0;labelBackgroundColor=none;strokeWidth=1;fontFamily=Verdana;fontSize=12" vertex="1" parent="1">
          <mxGeometry x="844" y="53" width="206" height="52" as="geometry" />
        </mxCell>
        <mxCell id="degMfgPpI1O1PvxIHG5i-11" value="utils/log/branch" style="text;html=1;strokeColor=none;fillColor=none;spacingLeft=4;spacingRight=4;whiteSpace=wrap;overflow=hidden;rotatable=0;points=[[0,0.5],[1,0.5]];portConstraint=eastwest;align=center;" vertex="1" parent="degMfgPpI1O1PvxIHG5i-10">
          <mxGeometry y="26" width="206" height="26" as="geometry" />
        </mxCell>
        <mxCell id="degMfgPpI1O1PvxIHG5i-12" value="" style="edgeStyle=orthogonalEdgeStyle;rounded=0;orthogonalLoop=1;jettySize=auto;html=1;exitX=0.006;exitY=0.315;exitDx=0;exitDy=0;exitPerimeter=0;" edge="1" parent="1" source="degMfgPpI1O1PvxIHG5i-6" target="degMfgPpI1O1PvxIHG5i-2">
          <mxGeometry relative="1" as="geometry" />
        </mxCell>
        <mxCell id="degMfgPpI1O1PvxIHG5i-13" value="" style="edgeStyle=orthogonalEdgeStyle;rounded=0;orthogonalLoop=1;jettySize=auto;html=1;exitX=0.006;exitY=0.315;exitDx=0;exitDy=0;exitPerimeter=0;" edge="1" parent="1">
          <mxGeometry relative="1" as="geometry">
            <mxPoint x="844" y="90" as="sourcePoint" />
            <mxPoint x="782" y="90" as="targetPoint" />
          </mxGeometry>
        </mxCell>
        <mxCell id="degMfgPpI1O1PvxIHG5i-14" value="" style="shape=image;verticalLabelPosition=bottom;labelBackgroundColor=default;verticalAlign=top;aspect=fixed;imageAspect=0;image=data:image/png,iVBORw0KGgoAAAANSUhEUgAAAjoAAAJWCAYAAABRfi3hAAAKsmlDQ1BJQ0MgUHJvZmlsZQAASImVlwdQU+kWx8+96SEhQAICUkJvgnQCSAk9gNKrqIQkQCghhiJgVxZXcC2IiGBZ0VURBdcCyFqxYEXAgn1BFhF1XSzYcPVdYAi7++a9N+/MfPP9cnK+/znfnXtmzgWgs/hSaQaqBJApyZGF+3uxY+Pi2aQBIAEdKKAH1nxBtpQbGhoMmE3sf7f3dwAZ3W9ajmr9+///1ZSFomwBABKKcZIwW5CJ8VFsDQmkshwA3G7Mb7AgRzrKlzBmybACMX44yinjPDTKSWOMx4/FRIZ7Y6wOQKbx+bIUAJoh5mfnCVIwHZoPxtYSoViCMfYb3DMzs4QYY3nBFIuRYjyqz0n6i07K3zST5Jp8foqcx+8yZmQfcbY0g1/wfz6O/22ZGbkTOYyxRUuVBYRjO1YXcjc9K0jOkqRZIRMsFo7Fj3FqbkDUBAuyveMnWMj3CZKfzZgVPMHJYj+eXCeHFznBomzfiAmWZYXLcyXLvLkTzJdN5s1Nj5L7U0U8uX5hamTMBOeJo2dNcHZ6RNBkjLfcL8sNl9cvkvh7Teb1k989M/sv9xXz5GdzUiMD5HfnT9YvknAnNbNj5bUJRT6+kzFR8nhpjpc8lzQjVB4vyvCX+7PzIuRnc7AXcvJsqPwZpvEDQycYvEAEEggDNvhCDNiBLTiBNUTliPJH31HwzpIWyMQpqTlsLtZlIjZPIrCaxra1trUDGO3Z8VfibfhYLyJqpyZ9WVgPcd5jfbJh0pdUDtBUjKW+P+kz3A7AKAJobBXkyvLGfaPtBASgAgNYoAE6YACmYInV5giu4IlVGgghEAlxMBcEkAqZIIMFsAiWQzGUwnrYBFWwA3bBPjgIh6EJTsBZuAhXoQNuwwPogX54AUPwHkYQBCEhdISJaCC6iBFigdgiHMQd8UWCkXAkDklEUhAJkossQlYipUgZUoXsRGqRn5HjyFnkMtKJ3EN6kUHkDfIZxaE0lIVqo8bodJSDctEgNBKdg6ag89FCtAhdi1aiNegBtBE9i15Fb6M96At0GAc4BZwaTg9niePgvHEhuHhcMk6GW4IrwVXganD1uBZcG+4mrgf3EvcJT8Qz8Wy8Jd4VH4CPwgvw8/FL8GvwVfh9+Eb8efxNfC9+CP+VQCdoESwILgQeIZaQQlhAKCZUEPYQjhEuEG4T+gnviUSiGtGE6EQMIMYR04gLiWuI24gNxDPETmIfcZhEImmQLEhupBASn5RDKiZtIR0gnSZ1kfpJH8kKZF2yLdmPHE+WkFeQK8j7yafIXeQB8ghFiWJEcaGEUISUAso6ym5KC+UGpZ8yQlWmmlDdqJHUNOpyaiW1nnqB+pD6VkFBQV/BWSFMQaywTKFS4ZDCJYVehU80FZo5zZuWQMulraXtpZ2h3aO9pdPpxnRPejw9h76WXks/R39M/6jIVLRS5CkKFZcqVis2KnYpvmJQGEYMLmMuo5BRwTjCuMF4qURRMlbyVuIrLVGqVjqu1K00rMxUtlEOUc5UXqO8X/my8jMVkoqxiq+KUKVIZZfKOZU+Jo5pwPRmCpgrmbuZF5j9LCLLhMVjpbFKWQdZ7awhVRVVe9Vo1XzVatWTqj1qODVjNZ5ahto6tcNqd9Q+T9Gewp0imrJ6Sv2Urikf1Keqe6qL1EvUG9Rvq3/WYGv4aqRrbNBo0nikidc01wzTXKC5XfOC5suprKmuUwVTS6YennpfC9Uy1wrXWqi1S+ua1rC2jra/tlR7i/Y57Zc6ajqeOmk65TqndAZ1mbruumLdct3Tus/ZqmwuO4NdyT7PHtLT0gvQy9XbqdeuN6Jvoh+lv0K/Qf+RAdWAY5BsUG7QajBkqGs403CRYZ3hfSOKEcco1WizUZvRB2MT4xjjVcZNxs9M1E14JoUmdSYPTemmHqbzTWtMb5kRzThm6WbbzDrMUXMH81TzavMbFqiFo4XYYptF5zTCNOdpkmk107otaZZcyzzLOsteKzWrYKsVVk1Wr6YbTo+fvmF62/Sv1g7WGda7rR/YqNgE2qywabF5Y2tuK7Cttr1lR7fzs1tq12z32t7CXmS/3f6uA9NhpsMqh1aHPx2dHGWO9Y6DToZOiU5bnbo5LE4oZw3nkjPB2ct5qfMJ508uji45Lodd/nC1dE133e/6bIbJDNGM3TP63PTd+G473Xrc2e6J7j+693joefA9ajyeeBp4Cj33eA5wzbhp3APcV17WXjKvY14fvF28F3uf8cH5+PuU+LT7qvhG+Vb5PvbT90vxq/Mb8nfwX+h/JoAQEBSwIaCbp80T8Gp5Q4FOgYsDzwfRgiKCqoKeBJsHy4JbZqIzA2dunPlwltEsyaymEAjhhWwMeRRqEjo/9JcwYlhoWHXY03Cb8EXhbRHMiHkR+yPeR3pFrot8EGUalRvVGs2IToiujf4Q4xNTFtMTOz12cezVOM04cVxzPCk+On5P/PBs39mbZvcnOCQUJ9yZYzInf87luZpzM+aenMeYx593JJGQGJO4P/ELP4Rfwx9O4iVtTRoSeAs2C14IPYXlwkGRm6hMNJDsllyW/CzFLWVjymCqR2pF6kuxt7hK/DotIG1H2of0kPS96d8yYjIaMsmZiZnHJSqSdMn5LJ2s/KxOqYW0WNoz32X+pvlDsiDZnmwke052cw4LG46u5Zrmfpfbm+eeV533cUH0giP5yvmS/GsF5gWrCwYK/Qp/WohfKFjYukhv0fJFvYu5i3cuQZYkLWldarC0aGn/Mv9l+5ZTl6cvv77CekXZincrY1a2FGkXLSvq+87/u7pixWJZcfcq11U7vsd/L/6+fbXd6i2rv5YIS66UWpdWlH5ZI1hz5QebHyp/+LY2eW37Osd129cT10vW39ngsWFfmXJZYVnfxpkbG8vZ5SXl7zbN23S5wr5ix2bq5tzNPZXBlc1bDLes3/KlKrXqdrVXdcNWra2rt37YJtzWtd1ze/0O7R2lOz7/KP7x7k7/nY01xjUVu4i78nY93R29u+0nzk+1ezT3lO75c69kb8++8H3na51qa/dr7V9Xh9bl1g0eSDjQcdDnYHO9Zf3OBrWG0kNwKPfQ858Tf75zOOhw6xHOkfqjRke3HmMeK2lEGgsah5pSm3qa45o7jwceb21xbTn2i9Uve0/onag+qXpy3SnqqaJT304Xnh4+Iz3z8mzK2b7Wea0PzsWeu3U+7Hz7haALly76XTzXxm07fcnt0onLLpePX+FcabrqeLXxmsO1Y9cdrh9rd2xvvOF0o7nDuaOlc0bnqS6PrrM3fW5evMW7dfX2rNudd6Lu3O1O6O65K7z77F7Gvdf38+6PPFj2kPCw5JHSo4rHWo9rfjX7taHHsedkr0/vtScRTx70Cfpe/Jb925f+oqf0pxUDugO1z2yfnRj0G+x4Pvt5/wvpi5GXxb8r/771lemro394/nFtKHao/7Xs9bc3a95qvN37zv5d63Do8OP3me9HPpR81Pi47xPnU9vnmM8DIwu+kL5U/mn2Z8vXoK8Pv2V++ybly/hjowAOW2hyMsCbvQD0OABmBwB19vhMPWbI+HfAGMF/4vG5e8wcAXZ1A0QuBAi+DrClChtpMX1GAkAoA/O7AmpnJ18T8+/YrD5qlE6AAmx+ivR90NGVD/+w8Tn+L3X/c4dRVXv45/4vYPcJu8EzvZAAAACKZVhJZk1NACoAAAAIAAQBGgAFAAAAAQAAAD4BGwAFAAAAAQAAAEYBKAADAAAAAQACAACHaQAEAAAAAQAAAE4AAAAAAAAAkAAAAAEAAACQAAAAAQADkoYABwAAABIAAAB4oAIABAAAAAEAAAI6oAMABAAAAAEAAAJWAAAAAEFTQ0lJAAAAU2NyZWVuc2hvdEKxEtkAAAAJcEhZcwAAFiUAABYlAUlSJPAAAAHWaVRYdFhNTDpjb20uYWRvYmUueG1wAAAAAAA8eDp4bXBtZXRhIHhtbG5zOng9ImFkb2JlOm5zOm1ldGEvIiB4OnhtcHRrPSJYTVAgQ29yZSA2LjAuMCI+CiAgIDxyZGY6UkRGIHhtbG5zOnJkZj0iaHR0cDovL3d3dy53My5vcmcvMTk5OS8wMi8yMi1yZGYtc3ludGF4LW5zIyI+CiAgICAgIDxyZGY6RGVzY3JpcHRpb24gcmRmOmFib3V0PSIiCiAgICAgICAgICAgIHhtbG5zOmV4aWY9Imh0dHA6Ly9ucy5hZG9iZS5jb20vZXhpZi8xLjAvIj4KICAgICAgICAgPGV4aWY6UGl4ZWxZRGltZW5zaW9uPjU5ODwvZXhpZjpQaXhlbFlEaW1lbnNpb24+CiAgICAgICAgIDxleGlmOlBpeGVsWERpbWVuc2lvbj41NzA8L2V4aWY6UGl4ZWxYRGltZW5zaW9uPgogICAgICAgICA8ZXhpZjpVc2VyQ29tbWVudD5TY3JlZW5zaG90PC9leGlmOlVzZXJDb21tZW50PgogICAgICA8L3JkZjpEZXNjcmlwdGlvbj4KICAgPC9yZGY6UkRGPgo8L3g6eG1wbWV0YT4K9+8J7QAAABxpRE9UAAAAAgAAAAAAAAErAAAAKAAAASsAAAErAADzflVxc6EAAEAASURBVHgB7L0HmGXHdR74v86vc85xenIEMAE5Z4AESJAUFSwzeSV55bUk78qWNtj6PsuyPytxLYuSaMoklUiKICkxiCBBhEHGADMDYHJPT3dPT0/nnHPv/5+69d5rBGmp8KlHU7f7vVvh1Kmqv27VPe/UqarYQ5vy1vCu13sEr6ONYW1NdDEguiWiLXkKD3OSTrRGDKwyrSWP/PRFfk9H/gmGcuuzajxcvuLkack5FrNYl0cy3LNwRUiz9BZmJPpKY1qF6MvlKF7yu3DF6TIihRqVT+MoPUUMGRnpSIul2T0zMxMZ6RlIT0uLPjHmxmtthZ9Vh98q83RAEBSLjPys7SppVlQmR7tmaVaMfI3pLF40TL+quBV+RM27I/I3h61hrHjSL/PuslV99BfVJI33NNYhPR3pGZnIyslBTm4u0jJYj0x+GKY4xNIN8wgW51ZVyFdhab5O8keXcnCXq1OUY4SoSqAQ19JGZwk84hblv4zSqC0fZWw5WzLvdCG+1i6puKn+uvQt7NzdwDdMxUsYOrwZLxq1U3QpeSIu0X6ic22heMdd3wp3d0tOeh/m2MknfqKzhNHd+S3Mp2e8lT2itTRKy2fA9ycWIeLFdtYzorS+XDF6+GzqwdYzmp6uTzoyrU3TkBY9p7qLRv1Abmsnaws1LZ8X8tFd/1Z43lWLiMRV6+3fKXVLpTM3n7k05cc0lh/dP8zlcVOa9XhZiJVN5fR0dMqjf96j598F0r+ezqVxtMnnhuUjncM82Sarq+zXxtoio7K4+DXGiZdvC/VXtY+DhfVXW3DsyMrKRnZONjJ5z8jIYniGxXm4Y8ReXTT1UpgutZdqo2j7pODo0DUyEdLBNMaHd0vuU0U0CvRRjoB+llcpVWg5zO36jXMrXnHR3QXym7wtoSXQl2Icn5S7wj3eEQFvrkYu3Cgsyn25MhtrB6Sjdw+9kTjMXV4aLx0/57dqqB1UXt9H5DY6N45aeqZy/V9lce1uJSGtjcEshj0bUR19ntYsrisx2xjiebkcS/NtPM3OzqE/D/F4HBlZmdYH1RdTn//UtrTKvONL9U9ehqp9WemiCI8pvYpzkNFNT0SbcCgsIlO8+aIwi7DIRCJjYWmNJqJX+relEbZippQuzlzOHbFT6nXplL999E5zRBZvzqjPMTxmj18qP6VL5qM0sb9fQYcIKoe3XZaRhTmErbBG6gqk6lsxLam+Ijq7K6H3e0pXCZeTiQ3GXQ+SC3P0Lp2L0rd1f+vgiudlo4WjteBEfkzpAhJ3lyD6ZhI3aDg+GqCVsfnIU0KNCTr2AsngYEXBwMIZR1qVeI2Cjkprnce1CgPFQaX04W4AkfCicNeR3MvXOqZeYhJy7KP4FfOrDTSAMol9HHthzD969FllLisqtg3ypDNSBqgu/MTU4VjuzKwsZFPIyczO5iDsBJ0YhSD38T1YSVR2MVGm4vHXCTocqI3Y1U8pLTnT6u6eF/FxEYq3iliFnNPSyGn5ubr61ndhSpEIsbqLi7GIWOumj+EqCvHiv2G7IiydQKk6Kc5/VDnvdmmUTvGunXycZadwy8fxFp0udV2L4JeFmDc1D0arXSN6RyO/kjk6FhArlqeyZ5g9D4qVn3mwOAp3d3o8aCmCTgbbWS/XdAnjetHq2ZVgow/p9Zy7gdclt3JYDoxxjWX1sXDPnyFyvv1SWRTu65Qgj4jVZ2LsJzHdGeaCo8i3MzMUokDLPCqZKs7L3ejWf4SRwl1bi0D/FkmHfiBFtI5I38nnwnwkI77uT+1Pvz4E154XeqwNPB8b2EmgNlEc6ZIvUuXm6L0gKizVDvphpBdgNn9cZGRmmaCjtjAwopsQsSfbhE0VTmC5vhP5rH955HzfVFuuu+RNYCPP2+IVrQSksbucqrSuxI2OKMzHWZSlSca5NOSfSK84/Rt1kq9CjMaFO3rV1vU542PZR/EWbqyiKKZ33dD4JMpEchsrIyobHtUxeKkMro1c3mon+9Go9rZ2c+W2HPmlu/jqT5cJrPI7L/NROoemulq6nul0CbIZFGwo5MTzkFdYgJycON1xtnc246IfltbvXJ9TTm6ctGz4FWXuvXZf32ZWBH1ZkaMCqaS+cFGcUiXCjI+jVX39ZSHJLx+shAm3c9JvDo/I23nLT74iY0qXr7mc28Ll93HmlMfi9bYSe8/Dxbo2cxGWkF9RHr4slt7F/f0KOq4E9m3VsAxdoGsO19X0kFmf8gVh9fXiNRQiHq7aSuU+xs/iHJgOrORjYPQaHSN6x0Z+f6U59kZiw4QNqBabSOdSK8wGXOPl06fcycPVxPF3go7c7I58UNOlDSHPDL44Migc6GXitDoSctxgbxodlch6nH8QxZVhws2wcXf7FSI//5xbDU+fdSg1OP1yq4NSKLIOLR66Euyiwcr4Avrd6QQdEbmBxAt+psmhgKNflFnsiJkceDM4AKdxIJYAZAOnYcDaGAQOB3HSJZ9q4lC2oMSXi3MYuFSuY3EsiK6o3FHB/SBtFfGVMUomYF2UzDoA7zFfZ4WJRnVXKSjyuyiFslwWLgKlFaqO3nUk14HWTNBxuCrWXpCiFbF4CnPxsS/XwSRoKtDR6G7EEX8RW4a8JWnEzVgoUv/iGwUm87QUjs74O8wkiBmN8XD5rZr2TwHSWmlwj54ZceUz6V6aRI0jsAZgez4lwHIQtmeXURLKJWwYvfzrBA8VTkUVskLfih3dreTmTm17e0aSUaqk0ejL92An4HihioJORGFdM+FToMfOue07hV8Cc8tCX6S35onyFH78s4u3RPv7IIHG/Bwfl1eSxuGueJEpW8XZjworl/JS+0WRwt4Rkc71SyXSn/XZKL0hSSDUFk6bE7e7NKf6qF2URk2iS9gKH2Hz9hZQf1G4SF2cUrg2dK7Ub1eWZEhqiijUypukcLjQz7LrYk2S7lRae44dDj6NRj8HmkspHiqB+YSTcxmmKUwZ6mrsSCL6iNbxiJ42n79I7COc5WYu/Lg2czkmxkiCpbiVRLupnUQf9THT6opFlK+7GX9xUvsab7pFEpFZmMY0tUcGhZzMrBxkZVOwyaVgE89FXn6+CbMSdjKoJU/+uFD7uY81t2eoCql5lJ/VXV+uvXw/VIjF6YuDnEvqqH35jUDlMuIkJ+Mq3lF+CT6iS8nReVPSeUJLlyyb52P04uA6oXFycT4vMrB/x3NdOiuP608KtzhHZm7LTfkqzPJ3z2Iqfwvm199R0In4C7aoAKqYCmAZyLPu8nRWRIvxdK7rukI7Vnp45bImoSvq5VGoS+fjPJn8EZ16u126J93G296qUbhFuXh7qbrMbbBPpo8CXQC/3S9O7+VvYDojHuTtNDrurmksCTkSekybo7zZkfQb0pCSBJ0EwbGU3z8YdCcfEja6OiTjbHDlXQLOijQ+TGKdTi8/31FVbPuQXpzFVn46JOjY1JW8VnbWgmVkxTk9lcXpKnZI/aqkwJPGj7Q5Pt5G0iiVazdjkvhySCRa4h3hivcCnxuiWCgGunTO7QqrpFbg6CZ3lKO9Pa1WrJOnie5KRrpEsPksMMFOkZ7acWVUCq42ENogR+xEK2bG0JXS4S8e/DO8xcW1pZHSbeSWrdKrEKLWJX/kspuLt9iIRmVJpFG5LDmJ5VYa0UXlVTrxUzlc2ysPkSrcSEXBFyWHRP1ilEZOgynderm6aStqdSzMDbLWF8iDJCa0i1+yf1ihFUSu7vL1ibwpMXSSr/LXv29jlcu5Fc2y8S3uBSz/I8PFR1S6+cwih+qny3ibi+4UmkS8BUa0dKeW1XBmSUTiw5M8GCYMlZ/SWV5RHgqiX0Vwv4Kjl571ZxWG9Er79v5KerWmtZeVhaTER9o0vfCy1e/4QrQ2kSaY44cETcudGJDUeLt+4zB0YeIjHN1rT2T+oxQmuEZh8utyNUo+p57GxUbfvt7rQPFpxcRx0V2Xw1BhAkb/5M+HV2WMuV9FlsYRKz41nXFI8HA0inc1sd7u80mkEw/Fi60yjOh1o9seEd4VZ21ld+83IoY7v7WJSqQ2U9uRhReIHO8Idc9btPxTel2+6aM3kNVZz3QWx88s/ljMoYCTSwFHpgC51OxkZTOcPybT9MNY/dJAcrVVYqtVxFv8o15Elyu3x8XFRRjIYxdLlpI24VZSkr6dt9VE9FEaq5F9iZl3uHuCV0qU+lGKN8HHAvll8UwuDj69T6M8EzlY/in5KI68k+Vz6S1FVNaIKTmzDMoj4qG7c/IJ+btNXYmpSs6Pg06ORMObJ/EVNYQSGL27OSfjjJEjTjy4EaHzK70+qqIGJqWMHjzHOornY6YHxmh9hLtH2brRmxRGY1H88g8W0ynoXTu9pXFfloVR6qXtH22mM0HHaXScVke/mvnLzAs6UT7JqSvqshJ4sGZym1+NRAc/rsF4pxCjUUMNbx0w6oyy4bHORlqFJwUdx8/SC7eIt27L9EvY0dSVLnvR6Je9bIrYMXM4dyyNjrfLMU2O3nqquKu8paMnuidvPkT3VLcoLDkLYHYGClChNEBbpAXoy12+wPLRLRrX7o4va+TSWzyd8ttHAbzk5eW6IB3roh214l0w/cKO+RheptFhjGGtsKgjRzyUOtEuURrR6vJtIc4idxlYCvmYzr7dXWkTdI7e8lLWPs7amXFRPu6eUlYfTjongEV5iIfys28+13wGJeRoUPUfN2WlqSv3QpXWwF6WUcOpvSSbW39wDeCYWrwFWGbMOroSDitvSsO6eJbVGERkno36iglhDLBnMXrGbPBPPEUukeqvKkU+h2Pkizx2s3obnRsAVQCPYVQYT842i0KEJcmVfZQNHepzlto9S+wz8lq86C1e6dQPXV6ujApT2pQ7U3rhSXmKj7pVQpvDl6FefvJrqsNjIjqDRPi43FUgQyaCKiXe0Qjb6HXpEPSYRhxUL5VAvHV5Wudz3z7OY+5DLdyBYvVTuPMqxtXZhZG/RUTcGa1y2UW3z93RKNTTO5KIKT3up6H3J9MphbssG33ZmCY+dPLLPmoWI6AmW23CJBbOu9OuiS7qU77NLD3jjV4epfF5Ob7ipCCD0kVZ/dSmEnIkxEiwibNdZY+TV1BgPyDl19Sk+p3q5oR8h4yeeZ+PZZrgG2XucrR0Hk3fdo4i+k4ysboaG0XZM8R7anxUOY9RSpQIk+nlNkb6cuFWagZa+PqEyXQMd+mUxjFwebmEivXhen6MuwIIrLWTpXe0ysn6qwdd/CwxaV2EFcZaWekY/3cSdFQ4e6iUkV1qIAv1AbwrUlC4OB+hzB1l1KgiMT4Gm5FF1bW0CR4RP5c+ijJql4fRWYfmk5YId64Ee68DTrQ40zKNf1iMU4ImYvO2mxszXFnfLujo4ZZWR7HpUltywJLfwhiokrGp+H4XCMlGtfx9xaJw9+KKGluCjlBTx9Ogao3KjhtNV7gwxamJrbZ0yxaIqZRVFKp0ynWFBVFaxYlIKlX98pCgIyFHmh3Z6Mh2gIW3QXfNVZwJ/CXu6y8forv7uLLYC9RIndBiWh0jdvGOS0RLjxcuVHL9izTROSI+urmH21wWai7P0iVNhIuPuyKE5CdjP/2XGPSIocded18WJ8SIg8L4UVzkZoD+6SO6covMmtfTKECXozNi54uclphutZ+xoJvc5DfeSqeP/O8UdMx42p4JvhSiu3IzYSEadE0zp2eTz7dNUUoA5/MqAd3/qlQT+2ZWWg3C/rI28B7dWR59rK7mTbgsyuKSyRNCvZJacBSn/KS5UMZWDhdr5bDyp/BWlsLQLt4sdxfoQqPyCCuLNSwi8ihMPjkdTXLcIqx2uXCjSviNm/F2Y5ZPb+2hJmdjW/vomXCRvPsw114qoGtP0rPOqr7qmx3nNLFsc7KozVGfY5jhwLvyjeAgHlYKK5MwU3pdcvu7OZl/Ms657FuEKpt5VE6XLkqd4hFBVA+FRnSGtfl9Qoawr/grNV5195d+UBlHn7Ui6Pb0qXgn3Y4mInWYWlCiMFYsq0NUrWQAeYu/xkLd+WV0TL9e0GGrqa8rnn+uz4vWuX3fM77KO8HLWltFc2HRXV3FBBz2K9OWchyV3VV+YSG1OAWI094xizY5Xpj1z7YaxLWh7qnvyqiu5C/8GGN/zDUK4c1idF9/peKYcEfJxCsBiJziF9U5ycXlbd+quF1GmXQz3PFyJUrlKSKXr3gn4xOcjKePE+aeLZ8bMnVjq+s/9FiN/Zd1aT1flkY83Mfnp7tFqS/y7x2CjkVafklXlP273MRcJfK0bu56PaHiRBOVxVBhkPzu5uJ9gMHmiFzVovRRuCt+lI/nRQ6usSPhxp6YyG3pFO2ITdj3GpgoTD9ZE2rViJP9ghXbd7vIynVbF2kDtEIsC6mhnUZHXj30Nn2lX9IkUEdwD7cTdBKDAaspejeOsZbRAOlwIxI2eGrgIKFNqbgOqrZ2L2LhG72cSeM1EzER0G9Y88vdGc+yrFph+NKzXxVO0LGVHrLHYXkl8JhtDgU1QbZmLyKy06XKitm7XKqHLnVKq5PzWhLz64tpLXtXIqNwwVZCxkfM/d34KVj1UfL18b4jW2gUJTrDU/QpYQo3DhGxbuLnMdbdBkMNkhbOOxm4j0/r/UytOAtWmHixjEYvxhbj+Diny80RWrhLrHT8i14arv004EV5M85+WVo6ta/Ck8KO8pF9jvv1aVnwyw2a0gpQkrHn0lbMEXiFOQHHCeAmzOj5VBzval5dembViJHXBfI7UZUoxJc70Q5ROR0yLrXcTvxP4Sfe9nExKpflGeXoy+EzFluHlG7kaB8XliyUy9XijYyJXEKX1kZJpZHQ4e6eT6JeEX2yPi5X48xBRE+2HkX/Iky0kzH05eLdXrRRe+lHBf9MWI5AlYApGz79yJBhqqasnAY4ml6M8LdSpgo5DEjFZh1Z1Fj+2fd0bNUIeFc+V3NXL4tTnRIAJGM9riq7qL3fEes5dLQeK+dzz22CiyV1BYuKF7FyiVPTproTzF3OkdfhaLyZPNmGEZEiWCg/BlqR6Vc59bE2Y6DSpfYhRx+NoUanNFH9ovSONWksiwgR8VEEL3U12b6pn2kqMs4VVjIB0FRVLoUcNzXJH5PSnkfaHJdS7Rnhw5vKKa7+7mgiocJy8zkqxr/rHJX/TsUx4VYy8recHHMjt5rQ734gJThEcbwlaF2dHYXKF5WJfF2RU8ulZPK7SB/vKdbH+bqKnJgn0kTPkYU5VuJnfYi8HXuVQWMu/6P8dLd82Mj6iz0cLS9XoC8Ane/wubC3f4tzolXEzmW8jkxcRaNCOHKlUag+77gs0P2KYXUYHRU4pTEtn7clVBiHaePpHhjf+MzLGtaalm7dLcDd5eaDqSsxMMitl/p7XMkHMkpHWudy6fRLzFTxTG+Cjn41R8KEs9MhbzacoWD1ZR0JjvJ3ZXB+azQ1mBqZA6Y0QKkvY//ic4KO6MRWqLk0BkaUj7KxAYH1l3uNZVzlJ6YOx09Gupuych1UU23USkl9zo+wMNyEXaKiYsLPu1xJErVKMokQtbiIQLCnPgkKZslVCcdVFUpcVuooT6NKuC1JVJhkEvFRYnL19xQa5RtxIQl9TOjxlHuFU1fShiUHS1Iz3H/E2dpCaFvRojjlYXQisIwtV8vL+yN6Fcw6rJjpsnSeD72EwdqSbZ9aDv9y9XcRSj5ydXD5O4Z6/tjGprGhoC1bMQqxGoj1XHqNgXqOmyLhnVhYM/PLuoW1EbkpUKytNoaqZeFqqLJGbWbVcKH2ko/oLXFUKMvPuy0TsWc5LU9XBp+Dsk1cUf6CUeVIbQuPtWhdnHMpeyszE4mVNYF9KTzy213t6J5GESku8eXzEyeLYLsI7yi9F2ZcecRHdP5Dv/okE7gwpeMfK+aEHNpIsU3sBcgl5elp7gUoLaobZ1huA4G5RVjo5nFJvTtc3ZOt4ifGM0sXJbYxVbG6rCSRk/FWN949qfnVrp4nA+xfY5VF0v+2Z9i4uWdB9U1cwjbyevael2hSaVPdPpGS+nCV2pXVsjen8U5kJ7zlUZ68021/cqot5GO4E3gUHbl5d21JvqJTB2QasdClNDYW0+36rauT+OlK9B0OdJlsP7VpPDePdjkFyM8vdIIsl5FnZbKdOb66dk2gEfnFx+clrlHm4i+v+RWWDP+7CTpCRuwcv39oQce3ocpvWQrTqC5RERhlLWRVdHi7vhMV1NIlBNCo7P+ggo6gsc5khRVY9q9QZR9dRhUVmjdrREWp86RePrHSJgUdq7yxSwoeGrI8OMm8SOR7veXv6UmrKAtzbsvbwiKaaLBVgZSVff6Wgg5HL/ciYR1UHL1QvH2OArwQJEAsd8NOQgwz9h853FuOjaoHQh2Od/c2s7u9ZOlXf3adVnf/QnRuoRtTGmPMzmkBzJXlWuNLb5UCmBnCsdPZlBUHXM0ba+DVtIZ1XL4kXUV8e3kMXXDEmiyF2vpLKXyo7g5tN3C7ONeSvnwutVWIToGhW3Q3v3MnghRm/9HTkIyI0iq9L0EUZCyUSA5+LFoaQoevw1saHQk6EiAc/kYtsJnG0+guPgm/L48PN1qXb5S7ZWnpojimjqLER04NsOLrBlPRujK4fKycGghYNjcIuHgldi9TK5I1mRC3vVnY1tLamVG8X+HBepv2hM+nF+oTA7Vak8+quoCDJ8JQ5YucUWF96VlYDU7ucvVTOVQP1VAxrvxKbrwjRnrZ60oKOq7fuIw8RyOxLB038WWYeCf4e5ooTtEWJL/oyDGi9eUTgcJ1Wd+I3BZmtC5OeRoP3q0rMlg0Ire7tYXycAOylUnp9fFxvFtfFQ+mMwz4MsxiX8tkn9OScpsuZjvZtBX7pmgsF97MqXRM7cIdDwYZkj5Mflcyhisjyy1J6/0Wo8KLSHdxSfQV1yaitbFHxNFlpRc506gszqlvf1mIi1kXTOrI77krseMgdkniVLdPpFgf7svgwhRh/yKwQuhmTru7PqwIxUpT6/u6nliFJX8wuL7nBFPGpfCz9PQn2tjSRfmqr9BvbcrnWRp8aXGckJNv9zzT5uTYj0cJOWnag0xMo29z+Uamx+cd5aBol4eVWKH2xFq42VlGZbAAfrmiq3a6VG7nipJbWIK3r6dC5fa0lsRhlMogGe0wsnr4ZImMXH6uHi5Sbkvr7/LZv4WmZBG1DOncWOj6lTh6XFw7uDyU8B9U0LFsVFBmpMxccRXqXmlWCyMiFI5knaBjUdGXr4BrzvWCjh6g5KorxzWZm/Jyj0xSoBFTXwamZTRFDFc+I02GWVpPaqncQ+t5itPbLz+oJO+OgWNNwcY0OhyomJBOk95Nw6NyWJxR+lIbdq6xGG6joRNO1OH0AnHY6UVGexvDkWGM0yAamecYmR4K9yuEcaJTZyCd0NNl45g6EzsZeyPSOMjG2Ck1heGnrGy6yoQcFtxeQqLnh27HRXyc26KjwKirWz7+y6HiCJTC+cXOu6OyqbBJ7iluOZNxanOWhEFRpnQrXjC5K+FgOClTvSLw6SxcGCvMkYm3CTakUSeyX34JgUJhyY8li/zimRpHHzEXTxdueSjM/qPMLM7RKNzTrONDvq75xUcdXU1JN9vc1d+HpwzcYh9Vy5pMAg7bVsK1qcrZ5pnS0Oklyr802o/ZnzWkL4faRxpJ+vmxW4rQz1yj4iYK7kISjWBPHQviymd3SyG/az/L055DupQBr4Sgw7Iq3l0peTCthj/F0Gm85HADoaNLlE2JRRRdjsbVRViqwA5DR6CiO870J+JceUXhONEftavRMHyVz5hrG8U5eteGURtFL1WVReEuH7qZ1gTQSMjJoqAjmw31QYVrrJDWzYFDanYc3/tUfz/u0GmX/PYxnyutnM4GUA6lsUj7ciXwftILK0uW2mOj+OiBsjRJ1qSPHjSSJbEUgSN6J70vAO9Gwi/7j+hT2ivJz5hbQUTlwz1vtZmNkUaheDkYq3aix+gZpudGcfoh4NzR1LRo+OefIX9P0Fqm4ii2joc9hZZO/BTBi21l43vUzyTkaBm5lpBL2JFNTi6nJW2FlbWvf8Y9Jo6N2lDliTJ0gSnf/hlwBFYqi/WCjkvnE0SFp1f18XHGn16Xs/JyfBLfyaCIkVIoUF5HFUUwqfxRGG/mWsdP0RGN4un2NHaXz/4jn7sxzFrJ0ro2ifqTsfO0CotKQkeqoOPK6/JyzwfjH96Ua+QuTQRlgkPE6D1uIkuCrzLzzxj5V5rjalTRQ+GfDQ+1Z+1AE49k41uYGl8Dis/Joj1/pfb0vNuDopsLc2VRuMgiQcdSkB/DxFMCkGfhuSZ+4Yr9u1yev7/7UUR+ZeWNkcVP45V7oahc0qAwQC8ODw1plEbAaWDybnsoIr/2dNEoqZVali562bmXnjqcup+xcIOpDULqwNEDQsFCJVOWcml6Squr/AorZ7chYSdaBZAYZNkhVSDhyruVzu4ujN+uvHLwMlJ+6+4u5WgIJ/wqhVpCH/3J70oWkdBvlXSNxzongTJ6esXfhQoTz1qxqZcvqAsTRqlXomMwlXiYgEgCe2ERzVRBJzkAijb5UUL7s7Zx/Nf7GeazjQoqr/FQhMVF/FQ4TxO9IFVk0dqmgGpja3fV3lqbZVZYclNDq6LxIA3/nbZOwk6aaem0zNVNibjnUG3rnllmZA2tQujSwO3uRsP0uqy4idHdlc2HJ9qJ+Xu3FwIspZXL2JA7/3x+vFse7BPS7uhp8f3QnrkII8sn4u34W4RrrxTewt8u0TqXCurKpABz+wgrmYVpItkniDhbGu9WnBeSNAyrQyhbtYFo3C7adBs+FuGeKZGSxtGJkhfxtM0B2R6ZnMaQTY7axu2n4mz5HCZqBPYPawulpds1jLgYjnZnvJFYqJqSPhWOn9TwhMd+LZFYNOsu1xstyJK752wdmc/LxhiX2Le3yuc++haDKF43NaZdbGOL8vGOKMmDpCkZprqV3EfZs65cnMPSWBy/bETRXX0mGgMVZ/1FaegxGzzeFUbCRJ7q9yqRGwdcWVRVhbqSukLoGVBSNY4b19nH1J6cmjJBJ55DQaeAtjm0y5G2juOtBFrX35JYkINdro2Vn/MncjM/C6B8GPXOsVJp1oe6gjpGnp/jqu8oA919pAVFNfTREV3Ca0kjX5TO+aLv9YQ2fro8GaE4pjGSlLS+bf3dlUe4emZR+1hZxSLZTs7tcvDphILSKrnlZm7zvFPQcfXxGUWM3u22jsTYksplwp5sKZZ4n0MWPxlYjGVC/mU1il704QoIBAQCAgGBgEBA4KpDQEKbtGBZnFGIZ6Yjj/einCwU85NDTbMuSRVO6OFdMrf57WcGnRJ6XBiDLU7xupzw6tPSzx8f79DoiDApUcn3HpfxVIHkUJFcuhUKM5OIYzKWg3lkvkfiEBwQCAgEBAICAYGAQEBgPQJF2ZmozMtGNT+ZnOqTRJMQeOSWtGFhTOf9JoE4PkYbpTG55L0EndRs31PoSagiXcbS1oys5WE8lpuaPLgDAgGBgEBAICAQEAgI/FAISI1SV5CDxiJO/3HKNiHsSKiJphiTgo5YSyByWYjWppoVStqERseROZWRI/UJUn0pbs+QzEeQiyHkp0QGZ0AgIBAQCAgEBAICAYG/GwKyX2qhsNNIoce0Ofqm8CLBxv1HwohCIknHCTouXHZzKYKOE3Kc+VpS4PEJraheXIrKLdubAQo4c2GKKkIk3AICAYGAQEAgIBAQ+PtGoDArA5uL4yjITv/rBR2Tf5xGx0QWfv2tBZ0J5KAXBX/fdQn8AgIBgYBAQCAgEBAICLwDAalgtpXmoTLO3fojgUZEpunxipiEoCNhx33+VoLOCI2NB8NU1TsaIQQEBAICAYGAQEAgIPAPi8Cmojjq87JMwHHyjaap9HE3CT5abWXev27qKplYCSMGdAYhx7ALXwGBgEBAICAQEAgI/CMhsKkwB3X5FHZMPIkEHd4k5HiTG9PoSNB5KNowUFsRuRTadkf73CSFGy/ohOmqf6QWDdkGBAICAYGAQEAgILAOgW202amIaxubSF6h1GMij+6SgKL7OkHHSUGaBUsaIxtXEs+tZaArVrIuk+AJCAQEAgIBgYBAQCAg8I+BgCSVfWW5yKehsl0SbPRnAg5Dot2UE4KOrbZipBNyUgQdCwO6UBxWVzkow3dAICAQEAgIBAQCAhsAgQLurLyvPM9KktDiSNjRXjuR4JMUdCLNj5vCWl/6YeRxn5ywEeB6VIIvIBAQCAgEBAICAYF/bASaCrLRkJ9NwcYOJnNaHdrmSE8jDU/swZacSMShFsdcKdocln4Z6TiPsn/seoT8AwIBgYBAQCAgEBAICLwDAUktByp5UryJMalTV+7sq3cRdJI8lLiPe+WMBW1OEpTgCggEBAICAYGAQEBgQyFQk5uBTdTsSIOTtNGRPfK7anSSZV/heVZtscpkQHAFBAICAYGAQEAgIBAQ2GAImFanPI6MaNG4TVBRyNFp5n+tRmd0LRcDsbD78QZrz1CcgEBAICAQEAgIBATehkBzfiak2ZFxjl9g9TcKOl0oDSut3gZk8AYEAgIBgYBAQCAgsPEQyM9Mw54SGSWbFbLkHX64YeA7jZFd4Ze5aeB5VGy8moQSBQQCAgGBgEBAICAQEHgXBK4ry0ZWmlklpwo6cZvKMvqkC24X5KJ3YROCAgIBgYBAQCAgEBAICGw8BDYXZqKcJ5xrFbkzSpaNTnOKoJNS5v6w2ioFjeAMCAQEAgIBgYBAQGCjI1AdT0dzXiblHO6j4871fG9BpxslmEHWRq9TKF9AICAQEAgIBAQCAgEBQ6AoKx07CjMibY7ZJb+3oNOOcixxs8BwBQQCAgGBgEBAICAQELgSEMhJj+GaEp1qrv10UgQdLcTS0Q9ah+6vs2sVWItpQXq4AgIBgYBAQCAgEBAICGx8BCS1HCqXoONtdCjbyEbHiTkMJIEXds6gauPXKJQwIBAQCAgEBAICAYGAQISAZBgTdHSop8K48fE6Y+Qg6ERIhVtAICAQEAgIBAQCAlckAtdLo5MQdKjAebDZH+qp+sRMAtLc1rlY9RVZwVDogEBAICAQEAgIBASuXgSuL+OqK2punEbHlpdnm9tNWgVB5+p9NELNAwIBgYBAQCAgcOUjcIiCjqQc2yGZDmp0gqBz5TdrqEFAICAQEAgIBAQCAkLgUJnOu/KCjk1dBUEnPBoBgYBAQCAgEBAICPzTQCBV0NEUVtDo/NNo11CLgEBAICAQEAgIBASIwKFSanR4+b10gqBjcISvgEBAICAQEAgIBAT+KSBwqDTdjJFVl6DR+afQoqEOAYGAQEAgIBAQCAgkEFgn6HCZeaTR8dsEhlVXCaSCIyAQEAgIBAQCAgGBKw6BQ6XcH9mMkVl0nuyZIuhQyFGE7Y2sfXTCzshXXOuGAgcEAgIBgYBAQOAqR+BQiZNnbG/A9YJOGqjhsUu3tljlVQ5VqH5AICAQEAgIBAQCAlcaAklBRzY6KVNX0uSs8UwIXTohoi1odK60tg3lDQgEBAICAYGAwFWPQELQoZAjxQ2nrnQEBLU5giah0QmCzlX/pAQAAgIBgYBAQCAgcAUicKgkzUxxJNOsuakrnV4ezWdRoSM7HUk8QaNzBbZuKHJAICAQEAgIBASucgScoOMEGsk0sfub/KGeFHYS4EjQCYd6JuAIjoBAQCAgEBAICAQErggEDpVE++iYRoeqnPub4pF84wQddwgWcD4trLq6Ilo0FDIgEBAICAQEAgIBgQQCh0oytKqc15otsnKCDo2QvTbH38+nhVVXCdSCIyAQEAgIBAQCAgGBKwKBg8XpknHs0mpyCjq5ZpZstjmc0lo1i50YzqcHQeeKaNFQyIBAQCAgEBAICAQEEgh4QUdyjeSd2P2NuX62igFuKZao29PD1FUCteAICAQEAgIBgYBAQOCKQOBgETU6vEzQkfLm/kauujIVD9U5kUZHBEHQEQrhCggEBAICAYGAQEDgSkLgYFG0vNxWlFPQua9Bq64o4dhHah6Tejh1FTQ6V1LDhrIGBAICAYGAQEAgIAB4QcekGUk4bxd0vAVPWxB0wvMSEAgIBAQCAgGBgMAVhoAEHdkb69Lqq7cJOoxwcWjLCBqdK6xtQ3EDAgGBgEBAICBw1SNwwKauVqMl5m8XdCIJSCgFQeeqf1YCAP+UEdBsdTRd/betplhEv4uMxXq/YiyTH579ezP94XkphS9Gyvj2t2MUUgUEAgJXAgLvIuhow0A/EqgKbpQJU1dXQnOGMgYEfggEYjEU7d6Gsn27Ubd7J/KbG1BSU40tlc0YXJ5F5/IcplaXMbA0i4aMHMzQPbSyiEl+CmKZyOWZeEOkWV5dxfasXPx8cRP+22AbDk8O4MMVm3FrTil+o+sYehZnML20jNacIhYuDcPLa2jOLcH7G1qRtbyCF4dHMc7NLa4pLMbLHT04PjyBbNJlkW57YR6OXx5DBjKxNL+I/RX1ONXfRz5rmJtZwP7aEgyMz2N+eRUzc0soyUpHZX4OTvVNYGlpBVms46HmMrzaPYxshheX5uL25kpcWlzC0SNnMN7Xi61ZS5gd7ML0pXPIHOr+IQAMpAGBgMCVgMCBQhoj8wRPt2kgJZz7GiJBRyeXx5I/pdrCPjpXQnuGMgYE/kYE8murUXXfbSi982YU1NWgJl6ALfF8lGZk40+mB3AdhZCinEIcprufgkwjhZwVDhPdywsYW11CIYWQsrRsjKzM4ycKatCUnoWx5SU8NzOE/fmV+Gz/GdyUVYjXJgZxZm4Mk0tL2BwvQS7TXJqbxeaCCnyobjMO9/ZgiuNMbX4xvn6hEzuLylBL3l2jUzg3OglQ0KnJykZLXh5evzSM5aVVxCnwXF/TiNe7uyjYLCCN8+337mjA2cujuDjANBzJrqkrQ0Z6Gl5vH0ROTgZa60uwq7QAL14eQVFlAdpPX8YvPHwdvtt2Gcfe6rLfdfdvb0TXxCTaL3Yi3v0malmHxeGBvxHLQBAQCAhsfAT2F1KeoQbXK3FTBB0VPqnZacuo2Pi1CSUMCAQE3hOB7KJC7PvoB1Fy362YYdfOohBRnVeAbflF2JVXjLMrSzgxN45ham4ysnJQGC/C9Ow4ltZWcHF1EWPS5KRloILanBG6f7qwBi+T/hKFnI/mlePf959GNYWiDxfW4vMD59E+O4aJxTlsyy5EXnoOOijkbMkrxU80bMe3+i5hdHEZd9Y24xtdF9E9MY3lBf6wonCzNy8f8wsraKfAI39tdhz1xYU41tGHVQk7GRm4pqUOb5y5hLnZRaQx2T076nCmZxSXBqco66xhf2M5stKAIY5slTXUJI3P4WBLOb55phcd5/uQkZGOB27ahufeuIDxyVnESHv/7np0jk3i/PA4br9pByrPv4bXvvCHWJ2mABWugEBA4IpF4F0EHe6MzF9vJuSkHAVxPgg6V2wjh4IHBGpvPIg7/pePYTh9DdOxVWRl56CmoAjbCstQl5uHv5ocws2ldXh2agCTFILyc/KQRsFnmRqSyxRqxins5KelU5OTRSFnAT9LYaYyLRMXlxcZnoYJThG9yCmr2aV5HJ8Zo+ZmCpMUcpo5pZUXy0DX7AwmOE21Nb8cxdQWzXFa6aGaJjze1ckpsHTUUEB6bWgCw7MLwOIqdhcXY3F+CZ3Dk9QEpVMzk42q0iKcPdWD1cUVCk7puL2lCofP9lOzswhWCw/uqMXJnjF0Dk2hKC8bjx3ahPNdw7jAKa7i0jzMM3xnVQG++1Y3ljjVlZudgUcPbMX3TlzA6Ows0jNi+LlHD6C8rBDfOt2F7GxpjwrxnV/7T5h+45XwEAUEAgJXKALvIehEtVnTvJa7zmeUX6FVDMUOCFzdCLQ+8iD2P/IwBil8zHISKiueg9riMiylxbCvrArPU8hpKihBc3ElXpoaRGtJLaYWpjGyNIc+CjmTFHJyOT1VwU83bXfmqfEpSc/Atsx83B0vxlHSvjQ7ip2ZcbxCXh3zTshpyogjh0LMxdkJjC8toiQzD5vyKuifwf+6aTeeHRrE1PwC+iiojM0v4/aSErw2QI3S5LxpcvbTX5yVieqKEjx38iLWFmHC2fGObgo7q8inZueezTV4klNRM5Fm531769FBrU55XQlGySdnmoITtTr9FN7Kqwsx0j6AndVFeOJNCjsrK4hT2HmEAtGTJ7qwjVqh2qpizPUPY8euRnzuiSPYsb0BNzRV4unP/U9Mfu/xq/tBCrUPCFyhCOwvZMGlwpFAw0/s/vo8P41lQo7zpKE9s+wKrWIodkDg6kVg62OPYPNNN2GEU0zzNMbLzuU0UFklCnm/p2kL/vxyO1/2OVim0LCjugnznJoam6NmhQbE/bTHmaJGJz89k/Y7ORjHMh4wW5sYXpifxO6sPCxwgPjMSCeaKeRMUrvTOzdNm5wFVGTnmS1Pz/QIJubnKOTEsTO/CmenxzG4sIha2gH9Uutu/LfOC2ifmMECp6oyVmLY31CKc90TmKSBsaatHm2sxo6qUvRSi/Pq2cuYpUDUVJCHV871YoXTWAWcgrp/ax2eOHUJUxR2yvOz8X/cuwePH7+IYdJevDiCQ63lnIbLxOu94xihVqe+MI5rOLX13VMXaUjthJ1ffux6TJDm+0fPI5/aoJ88sBl/dPgNnB4ewxKNrRuZJrP7DKa//sWr92EKNQ8IXKEIJAUdZ6fzLoIOfwrRVicIOldoC4diX7UINNx/F7bdeBMGp0Ywv7aMOKeoGqqqkZubi7VMGumWVuBgXTMe72nHwPI8DlLLMjQ9hjEKOYPU2kxRMMrNyEIV7WvGOd310aIqvLkwhTxNJcXS8d3ZYTxGY+SXZ0ZxioJPn1ZXLS6gMp2aHNL0cApramEGJZy62pNfgVPTExhcXKRwkYYm2vdMc+XT6Nw8aKqDtSU2EwWXdAo7N1bV4nTvIG1n5lBPoeZf7NmM12lIvKOhHN86cgHL04vUOhXgB2d7KOysoDAzkzY69Xj65CXsba3E6c5h3MG7NEUvn+Kqqp21OEBtzlkaJ7/a1s8fcGuoK8nFdhopHz7dQ+EvE/u21ODurVUYL4hjhsJbV/cADhbn4+kLPXits8dm8rdVlyDWdRrz3/ijq/aZChUPCFyJCPyNgo71cAo65zOCRudKbOBQ5qsTgdID+7Dr9jswNDaMOU4/5eTnoam2HvuamrGT9yW+zAcplIzTCLegtBLPc2l1cX4hzWNWMEr6GYbn0li5NCuOaU5dfZTTWcfmp9G9uoB7qdWRwPPt6SHspqGxhKTLi7OYpkanlhqWfK6M6pidwvj8DAop8OzisvI2anIGJORwOrw1txTDFFDGFpZBRQ2aSopQlpmDN6l9WaZm51BlBX60qR5tkzNYo6ZpanoePT0jNEJOx+ukGR3nyq2yYmwuLsCT0spQQGouz8cnDm7G7z51msvNZ5HNVVc/fe8utI3N0MB4Fudo23M9hR9pcF6jwCMddn1ZHu6/pglHByZwtrMPW1sq8Kk7duFXv/4ShiamQFkOt7XWoXNyksbSNEimf0tlCdZOvILlH/zl1flghVoHBK5ABPYXqMunrLp6x9QVl2/qas8Kq64cEuE7ILCxEchrqMOWRx7A6MAA5hdpp8Ll2Zsam7CvZTM219bh86+/gHt2Xot4YQGe6DyD+tom5FDDM0pD4nEKOQsUcuJc6VSRm49B+g8WlNK2B+jhVNY9FFL6uaz8zyb6UM3pqFnauQzRlmeKhssFNDyO0yh5mJqciYV5xLmYoSU7F90zExihf8WEnBJOiy1Ta7SCeWpvGosqGM5ZqrlltBQWYYgGyZOccnr/liYUUxh6/HQ3+sdnMM89cm6vq8TQ1Dy1PePAyip2UNipKszHC1x9RTti3LGzHrsqivDZp0/ZNNbe3XW4vqkK33rhLHoozMQ40F27pYp77qzhbNcAbjy0BXvqilnPDDzb0Y/+kSns2VmHVa68evKtTsxQMJOwc/PWBgpL47g8yVVg9LdUFmLt+98ATh7d2A9CKF1AICBgCFyXr5sEHX1iSRudyGbHfvkwDheyKgNkAYGAwAZHIMZpnC2PvR+jI0O0e6GwQU3OpuYWbKlvwI/eehcFkFlkcul4RnEp3pwaRy8//UO0d6Fh8iiXkM/znhvPQ1luAZeZL2KWU1arGZlcmVWA+zj9NETtzVcm+1BJoWaG2hH5Z6jJKaYNTyaNlfvnJrGZNj2zXHK+RiFIq6/GFuawuswNA/PKKORwuoqCzsJqjEvNaRC9lo5errRaonbnZzdvxracHPzCyydQyDw/tHMTsml388fH2zHEaSyaCOHm+ipOr82hjfvmrC2tcYqqGv/y5q149tIInnj9IsoLc3A9NxH84gttyIxnYXxkGvfua8bx9j70jU7beLazpQEHdldheGEJTz77Fm7Z14hDTeX4rW+/jooqCjGs13WNlTjcxk0EqfWKUYq6ZQs1O2MT6JmisENBsKkwG7HPfxqgYXW4AgIBgY2NwHpBx4yR8ynXxCj7cBdBll0SkK4LmUHQMSDCV0BgAyNQumsPlmhzMk/bmBwaHLe2bsEEDYSleUnPzsL7b7kVN+26Fp9/9TBGaCRcU1aOdK5s0r448+kUcqj9KecKrFFqb2a5YWiMU0c13GdnitNX93NV1jQNc4/SHmeSwsAANxCcJl0xNxqMU/UhG50pakH+ffVW7MwpwP/T/RaOTwxhhULPVk5faapshELOPLXEm6glilHDc3l2CfMUWD7Z1MJpshxqoJbRPjSOv+KeOWWcOrtrUx2WORX1g/ZeDE9xBRWFnRuayzEyMUdBbhU/c/ceHD7eZauzLnCa6ti5AWxvKMHu8iL8xWsdmOMSdcpuuH9fE45doNaGNNu31eHBg1xpdaQNk7TjuXZPI86e7EJlcS5eOk+7H455efEM3EoB6YWzTthJo7BzFzcVbBsZQzensqTZaeo5i9hT39nAT0MoWkAgICAErst3cowd7MnxJ3ZffT7XWbhAEQRBRyiEKyCw8RFIz8lFZnMjVyZNIZtLyLds3YZrt23DfTfejJ6RQRzlnjUfuuMe/NELz+D05S7UVtciv6CAwsc8Fijk5Bfko7KklELPMuaotUjLykIDhZ4xGjJPcFn6KvfLeT/32jnCTQR7OF0l252yzGwaJ2egm5oirbrK5NDxf9ZsQw/tebbk5OO3Lp1CNoWgy5y+GlxYoL1QDHWFFVikgfIYNTOyr/nFTVtJk4nPtnfhzspKPNnRiwdqqzDKvW6+ebITMU413ddUjZc6BjFCYUf+D+5uwsdv2IwXuUngmwzfU1OGiak5/MXRToyMziDOfXZu3NaAZ9+UsLPIqa0Y7uGGgG9cHMIol5wvc0+fOw9txZaWUvzxd17n8vQFVNHOp6muEK9zRRf1WMjPz8QD17VSs3OJmjCmoYH27Xu34Ez/EKfTxpyw8xefR2x8dOM/HKGEAYGrGAEJOm7aigMU/2P3pi4vj7Q5widodK7ipyRU/YpAYI02LgvZPCMqOxvbKOAc3LsLu7Zsxm9/6Uv45Z/6Kbx4+iT6+ELfvPsmnDv7KjK4Id4Y7XIWqPIoKCxEdWkZDZGpYaHQIyGnhauyRvlyn6SQs0jj3vq8QlCngmEZK1PIKeWy9Dg3EOzjWVgL1BhlURNcQe3O+7k66xsj3SjjFNYnK1vxX7vewhvU7EzxKIht8XJyy8BFTmfJRmdPfin2F3JJOQ2PtXFgbTyO53oG8b7GWvRy2ukrZ7q4ceAKsjmvfn9rLZ4/32/741QW5OKBLZVYo7FzXVUJnuZy8gwKQPnxbHz/9Qu29LyEU1c37G7E0/TPS9hhHWR8/Dp5DHE35JsPbkF1QRZOU3t0qpsGytRg1dTkoZV2O1qtRdEOBdSO/dbH7serc3P40l+9hFmW+5atLdTsDGNgegr5J15F+bEXr4jnIxQyIHC1IvD/T9ChBBRsdK7WRyTU+0pBYDqPGp2cTGzdshU3XLsXO7Y04rf+6Mt4+IEHcN/11+JXv/AF9FOgaKhvQl5+rmlylijUFBQVo7ai0oyRZaOTRmFhc3mtnWs1FaOQw7B6bTBIQWCEgpCWX+fxfKwC2gMNcYpMB2f+p7qd1MqkYZB76KTT/xuXz3BDwgwsUVvUMTnCZeZz1PCUEMp0dM9L+7OGm0uq8cutO/FfL3TgGWpJDhaW4BNNDTg1NYs/PtGBNGp79peV4PuctlqgDY8O+vzxvZuoeYrjJA2Sj525jP/MnYx/QKHka6+cxyqtmlsraVxcFMerXGW1Ro1QeX4cDxxoxdeeO01Nl4SdGP2bcIRaG01b7dlVj0IKaYNTMzhxaYhqrDU0cvfkTbXFeJ5Gziu0UfqRR2/CI5tr8eTAGL725MuYmZ/HDZxSax8dxehwPxq++odXyiMSyhkQuCoRuDZP81ROmyP9zbtodDjBbYJOWHV1VT4hodJXBALcNBhLXEW1pXUzpjlNdM+t1+M7h1/EYw+9Hw/ccQf+8x/+Ac73XkZ1TQ3yi4psVdQyp6dyqQWq5d46U9zIZp5dPZ3aoOaaOu6GvMSpqVVuJJiOhtJyLHPaSsvO5zgY5NMwOSsnTiPjWRoP5/E0c2pqaJNzY0E5fre/Hee44eAWCkJDFGgGaR80TaPoJi5Dz+BKqR4KPDMUSB6sbMTWvBJ0zs7hseo6/NoZno01PoV/t30bnrk8jCcuXLZzrapop7O3vBjP8Hyqirw4PnnHXiwMTmKC5XnyaAdKKZTdS5ubb7x8HqdokKwlXDu4P04dsXjqjU4KP6soo+Bz9w3N+OZTZ6nZ4TleFNwe2t+CV9p6McjNCqXJuY3TWhPcpfnNbgo79Ddz351mnpH1wrlLuPu+g+jrHcCPHWzFae7387Xvv0QbqHnsbajCxfEJZHETwfiQTlQPV0AgILAREUgIOrTPMUHnnro8ijUm20TfQdDZiA0XyhQQSEVgji/+lt17McTVVpM8hHKVU0uf/OiP4bEHH8J/+O+fxumLnajj/jkFPNhzZHYaixRYCopLUM3N+SZ4Qvk9d9+PqclxjHNl0ujaPCbTlrBCIae+ooqrrtLtdPJ5CgAlFHJy4rkY5mqrnXlF+JmaLfjK8CUcnhzktFQBHimrw7cnBnCCmxQOMp8ZanhK46VI5xTYyOQop7hW8a837UU1d1UeX6LhMQWdXmpW/lldA37jVBvOMv9WbmyYzqmq13uG7aiHEp5zdUdzDXZwJdRXnj+DiYlZ/PcP34xf+dZRbg44ROPpODf/K0dP3zg6uLHgGrVFN3FZeVlRHr5zrN2EnXIaGt9xXRO+89w5s9nJzOA0ljQ7EnbGuRqLw9yd1zZhnLs2n6Gg9fAj1+Oa5kqUs/xtFOq+/cRLGBjoxz+7cyv+5MV2LoHnYaLUDu1qqMTg9/4S8eOvpjZHcAcEAgIbCIFr81ZMwDGbYy0vv4c2Oqnl82Y6FzKDRicVl+AOCGwkBIoamnmIJg/fnJowIeee225jx17Fow/ejudeeBLHuyaQT+3NCJeT66yqfE5F1dbyxT4/wampVXzsR34SN9Y34smzJ6k9OYklrjJqoBCkDfvGeYin9tYp44aCRVx63s/VVttopPxQVSMWOUA8PT7AAz1p40Jp4d6qJoxSk/P8WB+XZs9zH51iLiFfRg93RV6gBuhfbdqH0sxcHv1wDvdV1COTNj5HeHL5waJSPHd5AMf6R0y4aeU5Vxnkd+biIDVBwP9+5zXo5n463+FKqkdv2o4ztLOppAD2HKevxiZpoMwTy++gZqeb2p4LvWNc2r6Kndx3p6IoB8+d4DlZ9JdyN+TrdzbgqVfasMjVXVmZabiLS9NfZ/wwhR3tmfPwTTsxPjODWGURNnNJ+fljZ1BckIPvv3memxsucVdp7qLMJe1HL/bRv8JVacDWmQEsfOMrG+lxCGUJCAQEUhC4JpeDCMcqCTdOo/MOQcfJPcEYOQW14AwIbDA/3TcOAABAAElEQVQE1oorME4NygqXfUvImab7fDdXLK0tYPeWbRjhPNXQ2CA3y1tCXlE56hq3UijiC5pTVBl5Ofi/P/HTeKrtNO7YsRPnLnMaifvWLHHl0gSnq2SsXMbTxEvyCmiDM49m2tI8WrcZ3xu5jM00UD7LvXJO8+DOn2/ag+9QwHmFn1lqQppJn7OajgtTo1zKPoMPVbXgA7Wb7TDNCm5ImEHJYoL767RNz+LXTp3Fbgo7ZwZ5+vjIpO2Rs4OHeaYvruGtS8N2PEQjj334xTv24Q9ePIs32/rM+PlWCh061mGSK6m0IeBd2+vR1T+BzLJ8npc1iwLaDRXx4M4jPOphjUvjy3hm1Y3b6/Dk8Q4scE+fjMx03EvB6Qg3CFyifc6HPnor0jmFdoSnlxfVEaeGCpw+dhqFOel4qf0SV56tIZ6TQU1OFd7q67edpFtLsrHymd/cYE9EKE5AICDgEUgIOhRnJNGYRscc9Pil5dT0oCMj7KPjQQv3gMBGQ2CQ50et0Qj4zttvwxxXCLVf7KAgM4XammoUUkgZ5PLyeQofuSUVqGu5BtPTg2jccghFJVnYu6mEZ0Rtw2f/6i8wzg3/fvyWG/B0x2UMUAOj1VblZWUopTZokP76IgofPP8qh3vyXOAxD7fQaHmeQ8eh0hq8yJVVT1L4maHGp4aCjIyUL1PgmqRdTh2PkqjgJoNtk2O4vaKR50hV4at9l9DOnY6HaDczy5VVaZxyur2qCif7x9BLIWWNJ5Rvoa2NpqLaGKZdkH+CGpeOCwP45rEObjLI1VgUZG5qqcIRanimOAUWowHyrdtqsUPTUBTQDn/vJI+kWKOgkonj53jOFbVc2lTwBu6A/P3XO3jO1jIyKex88KatKCafMWp+3nyrA8XUco0Sx6rWempuljHc24+K0iK8dqGTOFPY4QGgm2rLsUYhcec2ruT6iY9stEcilCcgEBCIENgX5wZcHAekzUlodCToMMx/cZEl0Bk2DBQg4QoIbEgELtNI9pY778ASd+q90NnJPWUmubqqDoUUFPqGBihIcPk2z7Sq3XYAU8M9Nr11xwOfwr7thTjJJdILfOGfoHBUyimjNNrETFGTs0Qhp4I2OmWlJRiam6Eh8ioebt2Fu5s2c8+bt9A2M447OVX1Y43b8ZW+TjwxcgmznBaroE0LFR8YZJ7SIH2yfjv2FpZhemkRn2l/Az+39QC+P9iHJ/v7ufKLR0FQ27TCTQMl2GhDwGu5l08Hj2MY4qaAa1x51UoBRyeVd3Baqpwry7ZzZdUqV2G9fLYXy0yvA0Zvaq3CqzRYnp6isMO8f+HDB3GsawhrxXk4fbSLy97TkE9NzGvn+qjZWUMFbXYO7agxg+ZMCi3ve2g/8qlZ6uROzANcgXXmbCc+9cE70d7bh2ffOMNl7Gs8PqMC5bT7OXKx2zQ7O3e24qcfvRPH+gZxmEduhCsgEBDYmAiYoEMJx/68jY6TcezbSh0EnY3ZeKFUAQGPQNlNt2GVtiU9FHImJydQR3ubMh6Webn/MqYppMRLylG75yCme7uxddfD6Dr/JLZyyfTNtzzEl/pbeOGNF1BRWcfl6Vnc7Zib41EwKKOQU1HBvXSoudnClVkPbdtHjccCNTZcZVVahd9vO4Ybapq4CeAynhrqwRSFnPJ4Pnci5nlX1P4s0Kbl4407kMtl5v/jwgl8qnknvtvbiTxqd24ur8On287wDKwVTnGVoIT778g+R6uiQKHturJSXBiaxDCn0CTsbOIBnjJQPtvDjfror+IKrG20o3nhTK9pduIUyh65toUal0FuCDiPXXvqUUIbmq6BKWRR2DlJ255WnlGVx2msoxSINI1VzvCDPNn8TP+4CXojwxP4Vx+6Acd6R7HCPYJKSvIx1NXDQ0InKHhxRRdteOrKC6jdysUpCjfpFJzyqSk6sL0J5//dv/ZNEe4BgYDABkPACzq2MzJFm8TUlel3rLA8DIIDTGc462qDNV0oTkAgiUD2ngMY6GjHzMQEalqaqZkpQ1/PRdrqTCGHQk79dYcweamLy8/vstPKc1a4wqntTU5nLeOj7/sousZGuXFeG1dJcQ9kvtDLuGtyZWWNHdC5jweCfmDfQbxIIeVQXQu+1PYWdpRX4/amrfgcNTtdPMRzjqu8yrkiK40b+A1z1+R5aog+QcEmNz0Dn+04gRtKqrCfR0h8tbuN9LPcqHCFglAMTfklFJTSuDcNz8Liqq1jAyOcenPCzrUVpegcnqRtEaexqPE5WF8JmtXgjQvczI9TVHXcNHBHdQmePXEJWbQn+gCPgzhQUYBvn7rMfXuWcO5kD3bx3Kse2ux0D/AgUP6i295QhlwKO8fbNY3FHZfv2IEbt1bjt7/6Eu185nDd/i34RQo736FNz5e/edh2Q75pcxPP8JpCx6jbDfmWAztw/4178fzlfhx57Q185JG78eT77k82RnAFBAICGwqBdwg6d9flJlU5LKpX9QRBZ0O1WyhMQGAdAsPZBZibmkY9z7YqqihHb8d5TuNMUsgpRd3BGzBNw+Qdm2+m8HMOd9xzA06+9QbaKOi0Nu9AJk8QH+GS9KmZQW6Qt+w0OdX11OSM4ZqWcnzqjg/h+YsXbDXV/dv24POc6iopKKMh8wrauIx8hquqynkeVgZPQB9Z5NEQ1KQUZXJX4rJavMBpsgMUcg6VVePxi23o5BLzMQpX87QpaiKPOS6GGKJ9zgw/uTzgc2dhMY72DvO08mXa7MDOujrOYxv6uUuyNDu7m2qouVrFya5e2xCwnlqZR3hMw9deOo8lCj83cH+cQmqYvvnsWczMcBqL6mjtkXOBWpoeTn1pRNvZWI7C/BxMcSWZjo24fm8j9tUX4ze//AJqGquwubUOS8OD3Genm3vrzAOZwDWbajFEjVlOVSmuu/kaHH3pDdx12wE8/+oRZNEWaOq//F/r2iN4AgIBgY2DwL64X3VFiYZT17G76+KRoCMRhwaOKit/+XRmVW2cUoeSBAQCAusQ2HZwL9pHllHM6aaL505zxdEosnlCee2BGzDWcYab7fEQTRruVnK6p7imGefPvIFiamAO3HAnnnn9GYyN9nHF1gLKuaS8nJqcEa6USue67kdubMbmultom1KMeh4Aepp7ycj9Qk8HDvd0OiGHq6WyeGTECKerdKJ5nO7y7FwaL8+ghQLQx1v34AsXTqJtfBhjc7N2qGcjtTuzNDIenuNOy8sxGv9m45d278afnetECaeNnuVuyLOMo9yFWzc14uTFfgzQbkeGyVtrarlUfQndlwZw4zUtuJO7G3ed7cOfHT7Dk9ezceOhVpTRnugvnzpjZ1hRnsEtEnYuj+Hy0ASXiGfh44/sN+PlEQopr3O5+V03bsd1PCz0t7/2IvMZ50nswE17mnG08zKNqSns0P/YPfvRsmsTPvuVJ1DAKauf+tD9+JPX3kL76dNofvx/rGuP4AkIBAQ2DgJJQUfiTELQiXG6SiIOl1vZFQSdCIhwCwhsSASuf/Ae9MzGOF1zChPDQ8ikgFF38CYKOWe58d1WDI/0o6iqHMPDA8gvaUA8txCbeOjnkTeexWhfB6eCFlHBHYprG1povHyZy8nz0VKfg+nlfO6CXIBP3v0APvfi0zwRvYA7IS/SBkfGyWuo5wGdmRRMBldmMUvNTg53Vq7IpW0LhZ4pGh9rSunn99yAi1xt9afnT9gGgi1cCj/DaatBrpKa5pRUbX4xWvn533g+1yy1Pb/+GldK5fEIhtMXMEfj4DT+GLtnSwOO6vRxHtipaawttdW495pGLn9fQTcP9lwan6dGaI2rr/q4oSFP3aKR8r7GMrz41iXMzHHpOVtNK610xtUmLi8/efIS7Xyycedt2/FH334d49xH55brtqCAewV975WjtmdOVjYPBuXhoRJ2NDV31wOHsHh5kCe0L1MwOoSvPf8CBijYZVGTVfx7/3FDPhehUAGBgADgBR0qc3iZoOOmrmSALE2O3RjRlVVt7vAVEAgIbDwEdt1+H46dOIGh4WETcmoP3ITJzrPI4NLuTO6a/IlP/hReev0Yjh9/EZX127D1wC04e+YVjPa0Y5knjZdxWXdt4yYMDPaiuakRP3nP3Vheacfs7CBevpiLx265m6d4n0bXOHc81moqjgm1BRXUbORiYI3TVTwTS4eJlnHvnFHutTPL6aOYdmumrdAItTiziws29dXKjQrnqZW5PDdPQYiCUkEpirPzUJiejR9tacV3LlzEoy2N+P3XzmIz7Xe+fPIcpngQaRqPdrhnayOOdQygb2QG+7c34IPXbcKfPn2Sy74L0XN5FHnUWH3klh349OOvYHiQmpusDFy/vRav8NyrOQpVWVnp+Nkfvx7TtCMa4CaD+RTmGkmzRO3Qt189z6m8iyihwXLjvlacePENrLAOWbTnuWZrHU7RHmeGgltFZQl+7eOP4nNPvsRVXud5NhZQwlVpRV8I++hsvF4RShQQcAgkBR0n03Dqir+L6NbeOZzMMqWOprC6wvLy8MwEBDYsAkvFNRgcHUY6N/CrPXAzZi+246ZNrdycbxl7rtuHZ199BXkFPIiy4xTyaxoxt8yjHnpo10KhpbyKy87rGzDAfW2aa4tw852P4vSbx6k5GcJdW3PxmSOjuPPAjVjRNM/FTgo5q6imJqeAK6yGKeTMcM+ZTC5JL6KQM01tzzy1HDHuqNxaWk2tzRRGqf2RcXJLSQ2WedxE7/Q0l6/HsLOyHg80NqN/esaMjO9pbsbvnm1HXEJIehZeuNCH/RR6njh2lgIXD+TkcLS3tZWrpbLQwTOp2rhUfCuPerh5TyPauodRWVqAjnM9nPrKwrNHO6ml4jQa56D2c1+dN3iIJ3/HccprkdNdjahurMBb1P60nb7EfYSqKJQBb3bRQJlr0wvrSlDPU87PHn7Ljo/I5GaBezfV4HQ/d2mOZ+BDj92MuaFZ/ICap5FZ2v1w6XnzX35hwz4boWABgasdgX05PAJCfybccCS4KxJ03KyVpJ8YoxEEnav9SQn139AIdC3EkFNaihpOV811dOKuunqc6OtGTnUVdlKI+f5zT2OWL/lrbnwf7VQuYqT3PBa4Iquilpqcpib0XuxEZc4aHrhtF451cg+d5Uk8ui8LX39tDLM6dZyrpzQVpYNASwvLaQvDnYd5JtYSbVeycnNQWFBkQo7O0JKQU1tcTvoFjNM4eYGCT2tZDe13lnmI5phpRuq5YeDNtY34sa3NeLqnj8c7UONDA+RTPMeqmBsSvtrWgxXuq1PIZeeHWhvxzPHzNo2lJeb//MED2NZSg8995SVqYXrxEzweYntLJX7nz19Ef98YN/IrRVNNGQ6/eg6rNFCurSzAr/z0fWjjAZ5H37qIy6T52P3X4HOPv4TOHi4bZ532UmuTweMdjp/qwlr6Gm2ZCtG6tRZHmO8K/6TZ2cGzr871D3Mn6UyzdUqjIDVCA/AxHnnR/M0vbujnIxQuIHA1I2CCDoUc/WmmKnZXvZu6MsHHI0NPVzBG9miEe0BgwyHQn1uKxttuxXTHOXyweAsyudfLWmszl5vz+IWBXnRy47tM7lczyhO6hwe6sDA/iYr6WjTxtPDutjZMjo2gIDeO1tbt1LrM4p7r9+CJlw7zrKsi2s3w1HLawkijU8hVUTkUcma52U2M2pJaTnnNUpDRZ5nxaVmZaCrjDsOcMpvkDsmL1Ao3lnFZOLUxQzzvaobhO7knzyf37MV/ef0Ej5PIx8d2bsNvvN6O470jtnHgJk5vlWTl096mkxsCrqIkJweP7G7lHj60zeGeNZ08EqIqLRPV1UX47Jefs92Qt5cW4wJtdc7QQJlrwlHPKaZKLi3volHzYw9fh6MnutHEs7AKuPfNV7/yIvcSasANLdU85PMEBT8uPaewc+P+rbbR4Usn27hBIFBZns9pvHIcPdvN1WhrtEVKRysPD+0YHmV9ODXHQz23cLn6MDVShV/6gw33TIQCBQQCAg4BCTrO7jgh6MSp3ZGKJwmRnBeDjU4SkOAKCGwwBHIffAD9p9oxPTCIGA16t+85hC11NejqbMP5S51opJGx9q3pH6C9yvwUyrlrcsvOneg+dw6ToyNIz8xE89bdGB/uxcH9+zA3NszjIGZ5jMQkJrjb8iqFmPyCAk5RxSm8cNDggZq1VRX4ybtuxaudHThyqc+0PlUVlbaB4DSNm5co5NRw5ZfmhYbn3Enm28sr8Uu3XoMZanr+zbOnOc2VgQ9v24H3NzfiPzx3FK91c4k7bXc2cUl6aVaOCTurXFb+qbsO4HaeYP6z//MJPPTgITz15Fu4b28rCnhQ52f/9DBmeZTEvi31PNpiDhe6eMAorQ637W7Az/IU8t/78vMMG8CHPnA9ynJz8YdfOUzt0DzSKajcy9VWJzr6cZlnbEnY2bG/lfqbVbSd6rBp+wJuEFhfXYZzXTznKhJ2dnC67PzgMKf/Fm011vY62h197v/dYE9EKE5AICDgEZCNjtss0E1fmUbH5rFMycNpKwk9pO4Ogo7HLNwDAhsOgbVtW/D+hgJkVWfjfEcp5lYXsUj7m5feOo56CjVZmTnoHxzkCqQZlFEAat6zC5fOnMUkjZfTOdXUsuc6jA1wF2VqgDK5y/CHH76Xdi1n0cUznpZp5xPnmU4yNpbwQgmBtirZqOFZTwe2VKG6NI5zg1O4QFlhjgKGTkdf4u7IVTxOQudvjXN59hxtdLaWl+Dnb96OL77ZhXs2l+N3jw2ijMbIdVzufW5whnvvFKN7bAqdQzrBnIJKZQUqeFp6E21vbrtuG5452Yk93CF5qrwIf/XEcYxyE8A6xmk6anxsGqDG5zqeOD7GlVWdl0ZQTSFlE4WUDBpFl9UXoYuaoPZzl3HzNZtw+CinwjiVl8a6PsyDQo+d6TLNTg5tcLbsaKSwtYjTF3pY1zWUFvDUdmqPLvb22tEPmZzG2kOh6sylXsyRLpurvGqCjc6G6xOhQAEBj8DeFEFnlWNY7E5tGBhpc+Rwf0HQ8YCFe0BgIyJw2wM70XVhHIWlu9EYb8BXjn0b9VwNlMOpIW1619s3wD1lZlBaKyFnN7pPn+EydAo5tL1p2XUtxgadkLNCY+Jrd+/iBn5z3KSPRzLwRR7ncQs6+FKGzdJ6pHM5dTanufLys2i3UsSjGpbwY3duxdkBClad45rUQgkPEpVANMXVVhKO8uJx/MubWvEkdyR+o38Gv3LPTnzj/CLuai7k1M8Sfu+1HhoKr2H/pq3o5e7IXTxigQer49qGetyyrQVH2ruxaVsjGjlFlcOl4M9TC3OcJ5AP9I3jEPfSOXnqEibGZkyTs6e1hhsBzqKbK7E0lv3Mj96CIgpmv/nFp7FMbVdBQRy337EHTz/zJvfqoWaHx13cc/02XOamhI88dAhff+ZVLNO4elF79XRJ2AEPPy1ERVUxOnp4Thg1O9mcAtu/tQFnegfwIw/diu/9i49vxMcilCkgEBAgAnso6LiZqlW7x+6szaOlDsUbm7tyhsgSdrqDjU54YAICGxaBItqfxDIqsTenidqRARzpeQMtTc08ZTsbly5TiKEdSVkNhZx9u3Hx1BmMDw0hIyPThJyR3kumyVnl2VR7d+3g1BaFHApB8wsLPC6ChsictlqkYbGkhsryPDTUcG+dLHCvGwo/lAJOXVri/joMoAA0yWknTXGBU1syQl6mRqeiKBc/dVsTvnjkMpenLzBtNn6Nh2gury5xk8MF/MHr/dSurFEI4UhDWeqWHbvQQ0GntSAT27jL89nheVQUMM+aUvzJnz6NTC5PP0jj4Se5JHyRR0dkMI8DXHl14jTrybOxNG21kyeRa9fjyzzHqqqiCP/8sRtw+kwPvvvcSazynKtiHup554078b0XTvDA0wUTdj5y77XYe+MWapWy8P0fvEANkc4YXUD3YL8JeMUlBagjrzN91OwQi8KiHPz6xz+Ip9q7cOTf/tyGfTZCwQICVzsCTtBxQs4qx4fYHRJ09DPIPhJ09JGgU3m1YxXqHxDYsAjkbd+PzQ05GDg3itcudaOCQk4BtRIDfRJyplHK1Veb9u5BFzU5Y5zCSqMmZ/OBQxju6ub01SBXJy1i2+bNtnfMgIQcamKKyss5XZWFKR4Sqhd7PC8LaRRmtjTlUTBZQc8Ip36o6Ylx+ieN018SbrJ5uniM9j7c7NjZ9XBFVnF+HDdszsONmwvwW88OczVWDv7jw5vwVt8cPvvaMBryubyd53G9fOECJnggJ1er49c/cjeyOAX2vTcuoqWmGkfb+nH/HdfhM197Du1nLqGUU2nXbK7Dc6+107Cawg6Fsb27a3HuLDVXtNeRsLO5qRIz0wvoGxijwMfppbIC2wjx6OmLFHbWUFCWjxtu2YXnnjlObdICyjjV9W8+9X48/tSb2LnvWrx05GWkZa9gkdNulziFJ21WGQ/6rK0oprDTh49+4BaejzWP7osDmPjsr2/YZyMULCBwtSOwO77sNDrs91LipAg6EnWcRocOdGdXXO1YhfoHBDYsAptv249+Ln0+fWEYNc2tFFDiGLrcjdnpKZRyn5wt1+xFBzU5E1wxpIM3W67fb0LOxMAANwxcwJaWZtPgjPFQUHvpV1dzR+QcTNBQeZkvei2vjvN8qDlO/WRmpeHA7mIMT3FX4kEZ5HK1FYWcdK64kiC0Rj8o/NRS+/PxuxqoOVrj/juztmvy/k3l+J3nWcaiOI71LaCisIxTRCsmON24qQWHaVD9gb1FqKcW6MXePMSp9Slmfl/47kkaGzfYFNgzL1IrQwPl0nwe6tnKDQGPtmOJuxWn0xZna0sFDbBpKMxzrjiiYdumakxSs9OnQz05kDXWlnG5eRGOnOyiLMSzs7gJ4cdopPwqNyqc4OGiuXnc4JDHXAxPTWGOJ4hevHyJZ1/Vmkare5BTYZzGquLS84e0Ku2t09R8jdtGhDXf+/KGfTZCwQICVzsCu3Mk6Eijo2FhnaBDISfS7QikIOhc7Y9KqP+GRqCulmdPZmAlXoqM/Hz0dndhZnISZTTo3UYhp/3UaRrvDlGTk4k9t93GQz/bMcIprWXa72xuaebOwfMYHRvDIgWGMmpQCotLMNTbQyFk3gSUXGpqdPbVJPe6kSATz+W+Mi0FaO9f5BQV3//U7EjIkdAjIae0MAd37ynHscszPOaB51VtK8ETbfO4eWsxjZXTcLhzDsUScrgUfJpakXke2ZCTloWfvvMQijMH8Ktfb8d1jUX41N0341f//FWc4eaBOueqtaYC2dRGneQ+O9ojR9qiZgovb3LjvxUKP+mcxtpKTU4X98eZ447KunZvruXqsVmeYk5raV6NdeUoryhEe3c/stMy8L67rqXGKxdfffINHmy6gMmZKVx753Zc4FTX2Ig2BIxR2KmyJeXd1A5l02D5Ex/hKfA0Uv79x7/LnZu5j87Tjxvv8BUQCAhsPAScoOO0ORJ4zEZHU1W2tpLfptWhxBMEnY3XeKFEAQGPwMWMQmzfvJ372GTzOISLdnJ5KQ/h3L5vD9rPnqWWYoiHeqZjO3dNHu7ndNXQIOap7Wmqp7aCmovhUQk5iyiurKRBcwnGuUx9gcbL2Vzincfdlme5JL20MB2jMyso55Lu5tpsnOie5RSVNDkZtqeO9pWRkFPAM6Sup5HxilZc0e6msSzXtENdk4u4MLGCscUYhYRiHiLKVVrzS1igkLPKpe9r/GRzs8ADFMxWhztx3858fPovLqOJZ3B1XR6ikfI4adbQUl1OkY7nenX1IZ9Ta2UF1PzQaOhsBw8mpbCTQSPofdvqcY7+6RlOY3HOaTdtekbHp9A75ISdG27bgRv3NeMzn3vK7Iuuu2E7d2NOx5Mvvkmt1ZKdxH7LzbsoUF3E8OSUCTv7d7Tg/lt2AxVZ+MHL1DBt34Iargr79Ne/g9Jv/YlvinAPCAQENhgCu7WPjk1bcdDhRDwFHR2Np4uDFi/G2RUEHYdD+A4IbEQE/uCPv8QjHopor0Lhgy9q/WopLim1aShNRa1yxVRuXhFXTq3glWPH8Kdf+0vulLzAYxJWKeRwAzwZHtPwt4BLwhfGxvE7//7foqSwgKuL4jZ1tUbD4qzMNCxzZ+JCanOkiZnTLoDUdqRxysiGCdqwUJr6/9j7Dvg2y6v7472H5L33thM7e++EBMJsw94FWkZpKXRQ2lJK6QJaSifQlr3DJgmQkL2n4xXvvZcs2fIe/3Mf2YYE+D7go/8qzfPmF1mSNZ73SHp9dO+55zDI01H4DuoYLnq8NA97yyvomsyyMW/XSt7hzqiIkVHGMZBgPXTpJQj181PHGQu9ba7987Nwpxvy99lOkrFyP89wdSQyenuhw9yjys7yZP5sW1msfVyLOzXQDhybH+Y6R/iYVDPzCObCVpokmcv01cT3NqPBC6YuKwqaO/HC0SJk+XqgsKYG9RU9eP5XN8DPx5PEaxDf/+t67D1RBWcSuGWz03G0rBbdxOfai1aQ9LngECfAEqZE4rU3tuGacxbDheTrje9+yx7fFnpNGgGNABHIcBvX6Ej7isMI1OiIM/K4Noc3mGhf1WmNjn7DaATsFoGKyqovtLZhEp7HX1iPex78I9s1vfBmFceDk0091PAMkXAsmTsHb//rjyqZ+ws98KfceEdBPr7zxBPMhepjy8tbkRohSsMkP3vu/xni2F6TrbPbitTbfka9zSi8XVzx1PeuxvLsjE95xC9/VScNBb/597ex8c09SAkLQbfjkKr2vHH/jZMP2tLZjQXffgiVLRy/J9lZMXsKpmUkYNQNkH25cOFsZZj4+Iat6KbQ24nfBj3eeXby/vqMRkAjYF8I2IiOaHTYr5ogOjZyY6vo2NpY/Hbmpqeu7Oul06vRCHyEwBclOhP3fP6tDbj1gd/TF8cTPW3tDPkcYOvHjePXobho1Vz86f7vs0hjOxZM3OfL/CyhHuiKhx+BSQI8WXkZITlwZ/L5tvt/ghhWkmQzk2Cd++BjKCqsUDlXD1z/Ndxy3tIv83Sfep/evgGcf9djnPqyUrhNcTIlPC1mCy6g0/KL91530n2Kapqx+I6HFfmKCg/G1Wvno6anA4k50bxPPwzdY+ihLumZdz5Al7kbsXvePen++oJGQCNgPwiku0qll0SH/8RewmExx8uF6ExsmuhMIKF/agTsF4GX336X+haWHLiJsd8oW03ik+NGzc4ABcUjYvbHSq3R4I+Y8FDVblI35slN9z+E515+g5WcPpIcV7a8wjitJe2sPtx/1y246+ZrJ26qfp4or0Q/CdHEYcKVbSJxH5Y8LBEDu/PyMCe7EqIi4MZR84ntxe078YPHn6SBMQ333NzZ3nLBll//FLGcCpOtg4Rhzvd+CR9vH9RU1uNb5y7H1xfPhAd1OEOc/Bqi/kYolxdHxV0pfO6lkNqRzzfI6135PL0UH9uOVw6ICDXQGZmmhePbCA9utz/4Kp5cvw2DFF7PnJFMD55BNJnMjLIw4PAzP5u46eTPzceKce8z76vR+hJOX/3shvNQO9SLvz77nnKLTkuIgYU6pgZOpsXu3TB5P31GI6ARsC8EhOhIO1/62DaiE+YtxZ3JVU6c1xWdSUj0GY2A3SHQHhSDGP8IVhva0M2YB3HvTUvNYHZVJ9rok9NP0hJNV+RRtoviOKH17O8fQOQ4wSiprEHGiosY/eACI1PFe3q6qPWxitwGmUnJ+PWPv40Vi+dO7vPLb7+Hb959PwkLhb9sMcUGGNFFbZCkkyeRSFlIDVoZrxAWHIg//+hOLKC4WDYhK/Nu/R7aSGicSMIGBoax69Ff0ycnRP1eiE7K5XfQiNAb3qwwNdS3cLJqDK68bQxjK2praNTHx3Aec8LC+ZnIzatCPYNAR6mRiQgLJAlyQG19K7zcXbHr5fuQlRKtHle+uf3m8Xfw/qFSFFfVwtRmVhWlxbMzUc+R8VH+K3vnd+q2p55sLarGs9sOoYxExyfYA+vmzML9z7zFsfo2pU9KiIlQWWDem1489a76skZAI2AnCHxEdKg7lorOIhIdJczhAsd4sJzYNNGZQEL/1AjYHwIuOXPR1tyGfrZnpLoRkRRPY8B2jkd3YKCvD1EkOSKOae/oVKPka886C2/96VeTOzJt9aVo6+yj5oQkZ6BX9bJT0xNgZayCle2m9156DFPSktXt5ajwswf/hEeffJmJ3l4kDQOsEAHhfj7sBo1xqoqnFClLBERoYBD2PP03+FFMLPe795/PYMfOfSRejFdgq2rv3x9CHCtMsimis+42TlYBnhRBu3ACq7OTk1ac3HJjVSczORKlJXXoZOvIw9UJGSmxqKhq4T5ZWJVmEChDP8Xg8Ld3XoI1S6arx5TnfOXdvbju7r+D5SXMnDsT5fmFaKf/jSSUz8hMpuDaEdv+dY+6vZzIdIajrH9823i8FA++tgG7couRnZOMEHrt7KVWx8KgUhFjR0aFwfn1pyZurn9qBDQCdoZAugsrOnIEkjIOf4wTHSnwyCVZrRwqtEZHgaBPNAJ2ikB7TBKc2IoZIkkIToiFtYup43Q4Fs1NKDUwDpyW6uQ0lbScPP2D4E0CcvTJhxE2ro+5/d7f45n173A8u49Oxw6IS42DhQSig6neA2z1zMnOwiv/eJhxCgEKgRFWhq676z689f5W8qdRlYWVQFFxB+MjJMRTEsvdPdz5ZQl45O47cMlZy9X9XuDtX372VYSxEnSCROeZP97P8XFb68rU3YPpV94FM8fApcrsxkqOC31uJJHc243tMHbfpK3VTC8bMQh05mhXRHgQWlu71G3kgPXoL2/CNy9dOfkq7TtagrsefhaHDpVxnYynYObWupWL8O7eg2jl8zhwYuv85bPx2iO3T97nVY6YnzMrHZ7jbTchPr98bAN+vWkDBhkKIcaIM7MzUVBexvF1KzKiw2F94+nJ++szGgGNgH0h8BHRke97NM1ZGMqKjmyT1RxNdOzrJdOr0Qh8EoFqQzj8qHuJT0hjCncjTNSNjLBqEsJpKmndmNgWGmA7ydPbCM+AYAqPG7HzqUcxPTNNPdivHv4LHvrHiyx6OCAmKx2t9NFpZxuojz40sWHhNBp0QGxMON548o9qbFvuZKWm55yrb8OR/CJWdhgPwbKOF2MnLBzFdufYt3xzGiZjue+2G3HrFV9Xz/Pm9l3461+eViaDmWyd/eze7yEkxCZG7iA5m33l90ishtDL55UqjbSt3Dj5ZOnqo86IlRYSKD8GlZo6LWqcXJhUZHQIOtvN+NrquXjst7ep55GT8upGrLryXj7XGKJiQnD8WDmrT6M0/HPHsqXTsGNPHs3++hHP35VtfETdT9Z8zX2PoYdtuFfvvZlFKZZ9uFm5ppv+tB7r9+5gRhedotkemz07m8aM9Xjv7tuwct5sdTt9ohHQCNgfAmlS0ZFvT/x8y/HQRnQ+VsnRFR37e9H0ijQCpyLgmr4EvlGBaOJ006ilHx3dnfCjX40T9SedPRbleOzt6QsPv2B0d7ZSMNOP+t3vKq8ceazbf3gfXnz3Q8SmT6GjcBfqquuYGcVx79hYVQ2qYyyChH2uO+8sPPunX05OYjU0t2LNlbegppHOxVK+YSvH04ttKn5RkhH2MQp9nn/o51izeL5a8pOvbcRLr7wN0hi0WHrw4b/+QH3NuBiZRCd19fXwYPSEVGzkP8VGSnAs+hshQKqtRLLjQ5PALlM3yQ9LWPzdRecvwT9+cytdnBkuys1C/5wLbnwAu/cXkKTRqZnaocSYSBzILyZRGSURc8O8uZk4eKwUwQG+KNv0qLqfEJ0r7/0r3tx1FA/ediVu+doSdb2cNDE1/ZbHX8XGffsV2fHnOP7u3/6YY+pBSEpMmLydPqMR0AjYFwJpzuItpvpUwnQ00bGvl0evRiPw+RBoikjCwoXzUZp/gtWYNvhyAmuM+VRCNkxdZhGewMs/EL78o9x6ohS3XHo+HvnJXZMPPnvVOhznpNPSVcvppFyKqooqdUBIT0tRtynhfaTk6+zihnu+90385LarJ++bW1iCVZd/C1a2xaTi4kkzP3leIRSZKQnY/vzf2dpiBhZJxD2/+xv2HcrFGC+X1TVh94t/QRw1LrJJRSdt5bWqbSWGfy4OznDl45l7evncIvlhInrfIMXH5FMkVEJ2zDQAjAgLwPY3pa3GpHVuYhx44bX3oaSWTsm8Y21dC691QAhDSuPCo3CwpJCVpjESMncsokdOI8fqj71uC+Xk0+C6B/6BZzfugMHfG4//8HpctGimPKzaTlQ34yf/ehPvFR3D83fehAvmTlfiRk10JhDSPzUC9odAqvOgOv5I4cZW0RExstrGf2iNjv29anpFGoFTEOiJz0akr4ETTJE4XF6EDksX/8iPIIQxEINsWZk4Rs3iDqISI3H1Befg+5esmzQDPFZaicVfu56i4z6OhzvikvPPwoEj+WhoaJLjAqLjYzDEdlSzJHjzshvjFv7xyM9x4eolk6t498NduOa79/IgwidhFceH1Y4l86bjNz+4TU1fyQ0tFDUvuuwWSBVIoiV86Ly88fHfThKdThKd9OXXSEg4fF091ZHHicpkOddg7mNxx1HFO1iZRyWVHYl6iIwIxvp/3YvkxCi1FjmI3U2i8vd/Um/EtUbGhiqSVMm4CDmihVGbFBcVif0nCsF6ExPZvXDeqrPxwm8us92fp79480P87fl3lLjbzd0ZG373AyzN+ci48IMjhayYWXHZklnqPjLFoYmOgkKfaATsEoEUJ1vIryxOjlEOCzXRscsXSi9KI/A/IfBlDQOl9XPOjXdh1NuAPVu3oZ+xCgtnTsX2Vx77n57uC/9OCMiv/vIUNu4+TLO+NljYthLCtOe1v3N03DZ11UkyNv2sbyDQ0w89FEB70Yuni4GZTiRsLg4jaO0doVDamWPwFChzneKl8+I/7sXyiQkrMpknnn4Hf3pmIxyovaloYDI7nzcxKQYDQ4Os7LQqcXQIBcyxHAs/ePyEqvgkJkaj5N2PNDpX//zPaCIpK6tpQH1bBys7Xtj7518gOcq2zlN33kyt0rTM9FOv1pc1AhoBO0EgxWlAfUlTzSt+STqJ6Mg3oPGuFhq0M7KdvGR6GRqBTyLwZYiOTE79+m9PcHLqPdQ0DWDNsgV4672tyGZY5fZX/vbJJ/mS1wjJeXvzTtx092/ZLpIUdIqLSWqovsH+t59ghSVcPbIQnTmrblTX9zCWIoBmh5IxxelyhniOwUrfHREou3DqyZXC63t/cA2uv3rt5Ko+3H4Yl19/H3wpiDYEBaOKFanuPo7KUzqUkBzDhPRh1FNgLWPlYWERCOR+FhzYz2DTYJS991f1OFwqrvzZH/HKh/uxdH42SujdU8/WVlJkCHb/+T4EcoT+49sQ22Rf/9UfUfDUnz5+tT6vEdAI2BECKY7jZqL8gMtnXBMdO3px9FI0Ap8XgfLKKnVTNUfAc/wsf+pldSU/6bVsQ/3sL89gX34JaisqlfA3wN8P53P0urGpFRueenj8Eb78DyE4fdTt/O251/H7J16kKJhhoLzsSqLiSDrTz+Ty/e+Q6HA8W7ZOE6euln2DLstOcON/GZcfY6J6H9tXA9QG9dMJeVhmzHnf22+9DD8h0ZnYKjhhdfbFP8QwRcgSM+HAQM9w+vPU1Tagj9NnLu4uyMxOQkV5g9L8GLy94Tt/Pjrb6hDAEfHSjX9RDyUHwat+9ihe3LIbBjorT0tLwIGCUvRQiH3NmkX4x13fVOJoubFgvLOqEfdxXL7mKVtFSD2IPtEIaATsCoFkR1pe8MMtn285LjksCPOSL0Bqk2qOfJhl0xUdGw76VCNgjwhc89NfiEEEjfl8qYXpoYaFil1+eF3pMDzCNHMZNZdNnJELy6uwcfs+uh8PIig4GOH0xsnjNNIYgzb9/H1x/ZXr8NAd16jbD/K+2/Ye5Xj1IIp5P2l1eXA8m1yDo+d96qc7R63vuOEypZlRd+LJy+9uwaate3HgeDFT0ofg6+8PE319+oWEUMPj4eZGQuOCD9f/6WNEx4zs+VfCg6RGBDa9g3JwYqQEScsASZFKZace5lwmhv/10R8y4sJJPV0HCdLqdd9HRWkd3KnbcePtwamqbupoBmigKCPiGalpqOtsoTDbQq+hUSybmQ3LoBNONFQjwOCB0k22CpaN6DyCTQePIzsjDUW1dFI2dyEi2ICbv3a+8gv6zrlL1XHx9UPH8cg7OzHA6ImO121EaWL/9U+NgEbAfhD4BNGZHybp5er4NUly5LImOoKC3jQC9olAdWSiEhuLyZ4fIxTa6IA8RrLgwOkkQ7gRliYzhkkW5ENt8PVV4+YyPi7kKDYyjMaBAThwtFARoZULpuO9p36vdrTLYsH8C78BY0AICk6Uo0fuQ5ITEGRUgmAznYvFc+t7N16OX//o5klwSqpqcNE3f8z4CTM8mVje29NNjx4XkhVa7rHd40gC4+nhyWmpv7J19JFGZ9bi6+BIPfMQCZY8kZAqIWSDJEtC3rJz0vDK87+Cl5eHei4xQLzy+p9j++5cRehcOZruR1Ji7jTTAZpTYCQ+SYnJMFk6OdVFw0RmfqVlxSPQ3QsVTW1wdndCDDU6H/z1p+rx5OB364NP4Gh5DWopmpbqUKDRAz+47Dw8/d5BDJHj3XPluYj3D8Pzh4txiC7L+3MPIaZkn7q/PtEIaATsD4Fkhz5VzZEDoHyZcZggOqcuVROdUxHRlzUC9oNAW2oOp6Z6FNlxZYtIsqL86B3R0N4HZl7C18+AHo6ZjwySQPCy0RjAdtUgulnhELITxwBO3wADGqsr8J1rluPum+9UO2dlaOXSy76B40UtrLxEoLm1A1a2eoSE+DHLaoRZVL2mTkZMGPDwPbfh/NU2B2S58/Z9R3HdDx9EDxPCheBIu8pLKkysCo0MMHSUrse7Nz2G2PHxcmldzVxwNas5dFrm7yTOoY/VkkGuWcwCY2PD8dILzOiipkY2mXa684dsM73MkM0hmvhxksvf6Isu4tBHMbMTHyMpJhZtPWamkDOBi9MWaTlJJE1jbIsNoJjtu6TsRCxYMAN/vPlS9ZhCdH7+9Gt4/PXNrOSYmf3licw5OahhNauhsRXhUUaszMlBCHPFdhUWY8fhvRQr+8P7wHvq/vpEI6ARsD8EkkGiw2VJ20rIjiY69vca6RVpBP5XBJoSs1RyeC+njeQri4Gi35vPT0UVgzHf3NnEbKlRBFKD02Xu4ai4jeyIgV4PPWqaWzrUfVJT47FmQQoSwnnfy29VzykRB39kdefp13JRVWdCZEwU2qjhGaBmRVrchtAwhmfGMXKiA6UVdXjriQewYFbO5HqfenUjfvy7J9DPySQxW5e0cQPbY4N9w3D39cf7z/2KFZ0QdXsRI8+ce7V6XC8Pb5XbJQnj4mYcEOCPxx67G7NmfTTm/ce/vIrf/PZpVnIG2FJy5bi6Ab3Mn+plwKgD21qJUVEwc7qrjYaJQ9T5JC2ZSYJDDU8tp7EoTPYJkSgMf1aYrNj/nE2TJIfBW373OJ6ieSIXi3OXzEVGHEfYdx5GSXU9VsybgwvWLqWAexc2794Dg8EHEYEBMG96eXKf9RmNgEbAvhAQojMqVEc+4BNER5V2eEAav1atWFd0FAz6RCNglwhUR6cyfsGdVQxHugL3wIdmgdevjIezP4M2efnJt8opDB7lH2Zp63SpCoh86DMT4hQZ6GUFZPXCdOSXNuKmi5fg5stYWeHWzdbNRbfeg72HTzBCYoitMEcEUtdjMZlUlWbZkjm49MJV2LJ1DyppMpiRFoKff/vbCA+1kRc5rtz9q7/h6fXvK4IlHjlS2QlgNMUQS00fvPIQYqNthoFCdGbPu5btKk8aNw9RuMx2Fas/Pn7e+NUD38LacxfJktQmhO6FFz9QHkHyLc3dw4smhVL5GWblhvfx8VEEaYABozIZ5UFy5W7wRT+rWr0kd//YsAOBoQEoL6qEr7cHCt/9SKNzzb2PYOuRAtx4wXI0M/k9r7oBOVOSUd3STqNCVwzw+bYxK8vH6Icgxle01jfBkLt9fGX6h0ZAI2BvCHyC6Mwb1+hIaVqozgTZ0UTH3l46vR6NwEcIVMekqY+qj6cXP7qOGBuw4toVMVi/qwXfOH8qWjtMePLNE2z3OCAqMpxREc0kEmKiBSSmJCIxPASFhaWop27lwR+swx3X3qge3MS2U+Lyq+gqHIAK+spI20lcicOYU2WxdJOw+MGd49yL50yjG/OI8skJJqF4icnoAax2yCatp8tuuw/7Dhex+jJMfQ4zq/jPn6Pam15+GNHjFR0TW1eLV96KwR5WcXg7GSX38nHHDTdciG/fvk491ldxwgIR1t76ANtxpeiibieFPjtH149HQPAJfvDIvxDA/XuXnj+x/h4kOnUIio3DvJUZeOnpjajiyLnB6I3Q0CDUN3ZQt9SN6IrDX8XS9GNoBDQC/wYEPk50xljbcfg0oiPfyhq1j86/AX79kBqBrwaBuoRMBLt4IyU+DVEBTkgI5ZTSSDcefaOcFQ4nBLAqUlvfTvIwqsa3U9iCqqxrVIZ5l168FnV0Dj52rJB/+C349Z0X4AffsAmLO1hlCZmzTuVPhTM+oqa2kZ2xUboJL8Q5S2fjqVc2qeiHy76+Bs+9sRVNjJ/o7ujAgumZeOsfD9AU0EXtoIUi5rMuvwtNzZ2KYEkby5mEbCfHumPGjfhMTBOft/hmjPSSgHGdbnQtXrU8B7976PbJcM2vAi3R9mStvBF1XKs7ydhZ5y7Bsz+wETt5/B0UZf9p/bs4UVWPnIQo9JLY1bHl10xxclNrGwJJ5IIpeK7nZRFnO9O4MKz00FexNP0YGgGNwL8BgSSl0eFBh1+y5AvUONGx1XI+er4xTXQ+AkOf0wjYHQKuqy9EfU0t4kLjOCXkg7zSEpUL1ctYBxEbSwq4F6exujpNNtM9+tRkpyWhiyPikuZ94XkrsHfnIRw8XMi08bW4/oJ1vNsYPWesiF92jdpfERLHkpTMz05BUlwU3t6yD9+6/Fzc/+fnGfeQjdyCMjRYrOhjUrqVhOmqi1biN9//hhonl/ZSdX0zLvvW/aI1Rh9vJ2Rnw8u/Y+uKU1c85Jg6e7Bi5e0Mq5KEcQ+kpMbgL3+5Q6WlO5AUSbTEmIzN87ZOFFxLm0ptfBxVfpbf83mkSiWdd5k4Uwe18eudSEikFSZGialLr8WwmwtS50xlNoUFG/5wD12X2VTj/f5K8rb7SB4igvxhZGtq2GMM+/KKsfdgESTIM5KVnDqSHDNFz7KOuORoDGx6zbYWfaoR0AjYHQJJoHGoHCd4cLARnVAvFUL88ZXKAanRPejjV+nzGgGNgB0hkHDbnTi0e78S/S6cNRVJRke8uf0EoxIGKTgWsgMme9MxmEZ5zYw1CGPswje/fR3cmINVTnHx8f3HcdNVF+Ldd7eho7UFR/MrMcj2UXCAERKwWceJIxESf/Oy+ZidPQvfe+BxEqUErF48Cy99cBCN9fUUQ49xrN0MA+8zSM3PAAXIkkclz+vOuIc+uh2LP44LSZY/tUM9JhIFHltcHJwgk2Ijg6PU8YzAnaGgNLvh81JgHBAIP7bHXF2c1Hh8bWGRImbBUbGorSpFLx9TyE1QRAi6KDzu7+tDZlgYhnyd0GbltFWHBVmsRDkGeCM8KRrvMZW8s70TzpzQiiI5a62qQhe1N55ebli2ZiFK2aaqZ2tKKjkDbt7o7GwnqWmCiTonI0M+I6hPqm1qQbdVSI4T4qMS0WpqhU/eNjt6N+ilaAQ0Ah9HIHGMxx4hOeqLkFR0xomOkB9+uVGbJjrjQOgfGgE7RSD2lu/iwM69tsIGT5dNT8Ch3CpYeocZn+AEC1svUunwIOFIS4rDiisvxJtPv4725g5853vX45HfPq6iGJJiI3EslwnoHV1qQkvuE8yJJzeOegf5O+LCFal44tUCrOY00nRWXH751xfRZupGQno66isqFLkRdZ/Bz1e5GPdTNCwEyYs6Hk93D66jm9lVNDJkDEQgx7LNbI05sILDxE6SIPrmUKTsIKJnmYmnl05EaiqJEdBaWU3yJOnoowiJDEJ7Sye6zb3kTSMwRASRePSzStTNis0woyxmYUpEIJ7cvBu19BM6a0EGwlMjsX7DQbRTiC3p6mlTUlFe1YAOcycvu+EyeuNUkayJ309ufgXWsRVX3NqOAzRL7OaYeSBbXJEUWNc2NStC5UJRdgZxbCBJ6qTAObwu107fGXpZGgGNgBAdFTjM4xnpjrSuvFjZ4SUenCaJDnFqdNMVHf120QjYKwJJd3wfe7fugpGVivkrV2HDOxvGPXIAf18/mgeOwkwNjJEj1d+6+1b4eHrQFbiFk0dBcONn3ZFC49dffQ8nCsrVLibQRLCDt5cqiRwHwtjCkRDOWt5nzpQoXHvhCqzfnIcdB46rFpIziUtsagqaaRQ4wCBOOXrI2LiLkwPDNNvUY4i3jxvbR71dvZQis8LEdpqB/j7dnOAaG+TklJ8fyQ09dEadODXlj6GeTrjSddnHLwQ9JCx9lnb4BvmxLdaN3m6Oi7IlZ+TklBgfDjIeYmVSMpLT45DX2kCdUDsS/J2wtdmE+LRQHMyr5QSVWXnzZNFLp4Zj9y1s47nSRXntRStwnELsBvrqZKZEoo1r8WHFydzZgfy8MgQG+lHAHYaq2nrlrCyVnDROq7VQr9NJsfYQxdbRLYX2+tbQ69IInPEIJI5Zx6s5JDrkNw5zSXQmUFFX8CAoW5MmOhOw6J8aAbtDIPPH96D66FHkcHx8U1EtZS6jNPbrVxlW0rYKoBuy9Ka7SAoc2ToKCA3F126/Bge27EFtbjGrJo7wokZFEr7VGDk/9jHMihKiY2Z+lGwRnMzyYGUmNcoDmYkxeP7do/D280dlZQ1JB1tNTi6Ij49GA8etB2jINyszCWtZXXlr814UldRx2orJDAzq9HTzIDmxta3c6X9j8DdST9TPSasxeI+5IMjHyPaUK9o7mmAVLQ+rPaHh0dwXM80HzUp7JIJiGe+W+w0w+HMVW0gDvu440FqP80P98HR+GeZkMqU8yR8vb69GJx/HiZqc2OQoNDI9XUwFnXl5FQlbXkEJWlipSUwIg6N4DfX0o6aimsTQTNFxANJS4lFUXI5WEiMZr49NSmS7q4Uj9l1s7w1haiIv733b7t4TekEaAY2ADYGEUVtFW6o5itdIRUeYjtAbG+OZIDqBGjONgEbAThHIvPvHiPEZwvrX9rJSYVUfXn96yfRSbCzxCYawQFxy83XoJ9l56/GXkHHOMjiTjJRSk9PUJNNYtnZSYkwEKmpJVJgULplUMeHBjE/ooTfPeJWGLsZurs6ICfZBRX0HWlmd8WO7qa2xSYmeXVjtiGYaeTPH1NPjI5AcE4ZIPveHjGgoq2hSZMebI/A+jHCwtHWpyx6s7EgaeeAA4xg8/FDWz1ZYcBjKG0nYqCGKC46Eqc+k9DjDrJ7IgcovwIvmgHRN7hvC3IBIRBgDUWFpge9QL2K8nXHAoQc9JDIn6k3oIRmSqIeo+DC0tHeR9HSDjjuIYvuqf3gAFrafYqjxcebIeA91SeKCbJF2FKtYmdQh5ZaUU9fUSY8iB6RlpqK2pokkyERN0YBqX/UzB2zo2BY7fWfoZWkENAI2osPBciE1PNip1tXkpALpjmI9/F2zhyY6+u2iEbBXBCK+dQtKGKA50DtE8THLtBT9irbO6G8AvFwx45oLcPyVrQgODYY7icmJbfsxi+Ljsg3bQcdA1NW3qYqPK/OoMpJicYIux/2ilSHZiWUWVZfZqowF5StQbESwEuJW17UQjjG40ajQwOfpaGvjRZnwcqbHTCgMHs4M6HRhUnobx83T2R6qQkuLSQmQjazGSHWni1ob0ex4jjkiysEDvbzPKMXPM12NKGhvQYaRLTTHIVS1NSk3YwceqfwDaYJIctFLsbMjLwfwuV24rkQ+6vww6gAAQABJREFU98jwICy+bIOFumJvGYkYW1wOro6ISCBh4yRYFytJg9TxJGQkwELhciuF2eH0zMnIoYt0ayvKSGrMrNSEBhuRk56EY6XlaORt5Pi4dMFy+AROw9Ydz1PbVIn0uHj0DfaRPLUjqD7PXt8ael0agTMegYQRVnT4KVayHB4nKEb2sRVyeOUEyWH+HprdNdE5498tGgC7RaA+fRadioc4+eRE4a8HHY0pvqMuxzvUiMXXfB1H6XHTVt2IpPNWYfBEFdqKK2FltWRUohBYXQliy0biItgRUlqcLJKdgrLa8TYWKxm83EaBcgfDMmWLZFuL89isBjWRYjhQrOxG80B/LJ2WhERqc7pYAXJmpeZIXjmOUNwrImgPL7oVM19riGtz4n2CDf7U4njBzOf9WqQLaoY9UT3ggh5WpJY6esLg5okGdwcUtrcpA0EhOX7+dEBmVWeYlZwEVz+4cYqsrL8Dwdx3L/6+wHEQTj5uMFEg3Sf7RyWzf0QA/W4s6Gf8w8DoMKJiw2BlNaadVRsr214xaTQDnDsN+/YfQzGJTgjHyqekJ9IluoIkh27IbOnNyM6EZcgD7mHZ6GPFaKjtAMxFDWhra1SxEzEmm7bJbt8gemEagTMYgQR6igmfkdaVnDmJ6NgaWLye3+qa3IxnMEx61zUC9o1AXfpMkgF6zJBAOInrsI8vOlmZiJidAiuTy70HHGCcNx31x0vQUVTOhHMJ1xxl9UeysZhZxTZXSKCB49VNiuy40+gvk47BhSQ7/SQWjvSxSU+JpSFgBysjNoFyUEiIipxoa2nl2LoH4hnlMMSQz3lT4rD3WBkqa3k9jQq7Lb3Kv8aZ6woICaUhYB8G2A5z5jeo5MQghAZ4orPOjAVx3nw+M4obBrGG5KufguBcjocP08FZ9D2GAE5ysV01REPBTJKcYQqJRxxGlAt0CzOuUljpKWd5qJYtsT4SmBEet7yCfGBl5UYiLkYdhxERFYxu5nR10s3YStIVnxjJChfvV1nHdlQXM7X8MCUjEYWllYrkiPB4MXErqapFr0sA21vhCIoZgHHBXOz/6zNozy9l9ScA7sX77fsNolenETiDEYgn0bFxHCZe8VjyMaLzESqa6HyEhT6nEbBHBGrTZioyIine8oF2pi+N0dsH7TK+TfFx4srFGGObqDq3kLoWcR4mcWAEgxAjE/1s+G2GY+QGrFk4nYTAEa9t2K3KvDnp1KiwAiQCZUden5oQSXdgEwXKFAnzX2CgEUYfT1yxahYKKhqweV8BvWVCcc6CLGzZW8gWWAPHyA0qLmJkmKPuJEwypi2EhdY29OJxJxFipESAGw7uNmFm0DAau5ww6CBr78cgSY147QSEGjBsJXnhuHqakztGKFauGuhFHPetn8nolWODCDJ4kcBYYWLFaJRjXV7U8XRTo2SlFmmIYunQ2AAlHu5gq04qOqHRIdT6+FCA3aiqO4EM+Mzk/uaVVCivIWdWg264+Vq0OQWhrK4LVhc3jplbULxpPfp9g9BZUQ8j+/1+NBHsPaI1Ovb4udBr0ggIAkJ0RNs3XtD5LKIjU1cBGjGNgEbAThGoTpvOSg7/sZ0kk0BCZJRWhlNRjWw5hbH14ursBmtZFR2IuzgVxduQqERzvFxITm1Th/p5+flL8Y01C/DhwVz86cXNJDuOmJ2Vgv15JZOVnRSOVovpoISHGn09ceeVZ9MlWLQqJryy+RBc2aYSIXIoDfZ2HCpWQuewgCBWgrowSiImZGfNshykRAVh/et7qdUZxrwZnvhgE4XNriRl0X6orO5TlRshOeHRwQwmpaia/zMcnOHO9lUp21DxnNCiaTGOD3GCy9MVVlaK+klqxlj+8TR6oYeXe3l5QIJBQ3yUNkfS2AcoQDYE+8PTxwMNNA800/zPj1WdrExWckoq0cR2lRN1QuefswS13dQpJc/D8Q/eRhh5odXUjtrqWj6XFeHBQTD4+qCGQmxDY76dvjP0sjQCGoE4anQU0SEUMnjxiYqO6HNk00THhoM+1QjYIwLVaTPUslydXOlC7K4qKDJi4MbxbfmDXNfYAm9/tm062tQ0UQc9ZXpZIRGSkx4fo6oeNQ1tWEuSE8PKzoyEENQ0VeH3z+1jZANvQ1fhgtJajniPqGiF1IRY6oC6cf7CTBwoqCaJcsFURiE8v2EvVs3NVEnqu9m+au+0UBTtQOdjJ8RRxCxi5BCa71153lwEBxlYsennaHsXqzp1NOsbQBHtaCqLOBXFqpOTBJAyHmKQVZl+iqHHqCcyBnorkTVpG7z4uHutJjiT5EiauYSHjlGB7SUkh47JvWxfBYU4ITLNQBNEE6fHetFHEugf4k33ZVelObL09cKLZC05LRZldEVu4XSVo7MjbvrhTShp7caHTz4P5/A4rL7xYhx6/XVUHsnl2H4v98EIb7bFmhta0U3CF9VdaY9vC70mjYBGgAjEihiZFR3RIMp2EtFhN0tNXcgvNNERFPSmEbBPBJqy56n2klRyjNTb+FCQXMs8JhoHs8LihtDAQNQzsXyULsTio5NJcXF1fSsJUR+ic3Iwb14GHJrbEU4y0lzViH1Hi3HHJYvx6EsfcozcpEI9s5JjkF9GQ0ASDn+6C8+aQuM9/qGvpCFgNI371i7KVq0iA/U/T72zh/UiJ2p/fClg7lTkxI3TWGkJEWhsaEc/E8pjwwNw101n49U39qO0pAEhFDN3tfViiLEVTiQxsXHhTDKnTw4NAkc57h5IYuHMEe8hcx/W+AeidmQAFUN96Otla2pYSA7gTb2PlcSoj5WcQVZylpwdibMuMuL11+qw5YMmVfmR6k93L00HB/rgwnT0SFaf6hlW2kFxMstNuIH5XPUunig4Xo3j619EMitYPinRsERRs/T4k/Bh68zf04/trhaYe3tUentAuzYMtM9Phl6VRoCeYMMfa13xyOQwN9SbxWBuFPJ9fNNE5+No6PMaAftCoGvOclY0htXItZCdMJIGL3rTVDBIU0q1bsyNCuJ1jUwPH6UI2YlkZ0F2GspJOsIXLET0onRE5JbAg2Tk3c37UURtTTy9ZSJDA7GH14sLsSfDP8UR+ERZJSKpZ7l89SxUNHVhC8Mu3dnquemCRfSo6cNbO3PR2EKPHB5QfHifAGqBWqjrmZYWhXUrZ7Dd5Y2n1+/GwhlJHIcfxLG8GpV11VRjovuxVHKAuMQIDLFV1Sv6Ie5XSKAvq0ZOzMeyKtLjT43OLFZ7DtHzRzQ4crjyNniS4DAKgpeHSHK8A72QkekNX3bdQxPDcKJkGHv2FSvdUu9gPzx8XBFIcXIjx8q7qNtxJMm5+ParUENidWTrQXikTIFDdR6c2XazsB1X+f77CCCB9Of+1FOAbWHLy51ePak5U9Gy5SX7ekPo1WgENAKTCEST6EhFx6bTEaIT5iOSHR6iTt400TkZD31JI2BPCNRmzWVLimPT/ONrkhFwkoXQQE4JsZpTXydmflLZcYXRaEQrKzejnI6aS1+YOemReHb9u0g7bwnCWYlpO3wCDcy/Kq3ifbjFsMITbPDDUQqS5UARwcmsb120FJWMgiili/JVJDtHShpxqKga09jeemN7LsfVvfh8FDlbzIrseHu6c+w8GctmJuPPz21HDgnPnCnxePLFXbjma3Px3gd5aG6kfofRC9QUIz4pHCPWIVg7+C2MWqKIMAOJlDPbbt0Y4WUPdxeSLlf0kwiNDo+wQkXhMV2RBzmdNchJKndPRwRG+FFTNIiYKFeMuY7haLEVX7tmOd59Yy+OF1Qob52AUH90WLqo0bFihLqerOmpGKSmKW/7Hgx7emPVlRegKi8fw1k5yHvmObhyssvI3zc30xXZ2k2TQ7bj4mLR0mGCS6WeupL3i940AvaIQPSQZZzk8DDGBSqiM7FQm3iH7Idfl/R4+QQq+qdGwP4Q8Dr7KpTUVyI7nhlMFB/X0e1XyI2R+VESs9A4ftmdEQ4JUeHwM4QjKW0hSsoKYBhpxeHiapxz/hIEjA0zrqGJYZUmTlHVqx2NoENwEBPJW1va8IsrzsK7R0qxcHoy9jMXq6HVjLuvWY1Xt+djy4EiVkaYY8XjRah/ELU8Y+hgjtXCnERcfc5s/OvNfQz17MP3r12Bf76yR4mlqytaSFCG4cq+k4ipYznuPWgZIMmheJA6ncgII/0OXdDd3s2pq0F4se3kRxGx5GWNUJPjxOfy8vNQDsqSOeXI5/z6VcmITHBHbbkJo5yeL2rqYdWog2Pm/UqgPOLMnC0SIwsJTg8rQCPOI8hYNh0BM6Zh9zPr0Vpdg5nzsxF3/tnE1IxDzz4NT06MuQX70YuojnqiboVp4qwpcFw6lzlcIzD/7jv296bQK9IIaAQUAjaiw7Oi0yHTcZgzaRjIC6qsIyeOJDr+GjKNgEbAThHIvukXFA/XIb/6BGYnJ6KaEQwNFNYK2QliRcaR4+YtHC+XrzMrFs7CkhnT8eL7R+HmSwfiQztxyYq5qGyiMzDjDdo7e7FoehpDMLtQWiPuxw7ISYnDL64/G5u2H8OHx8vxvcsXocU8hMde2wVfEo8WEpPE+FDqgGQaq1+64KwGBWKMmqBkpo2X17QhkkThB9euwqPPbEVeUT086ZqcxliG6spWMJyL7SqSnJ4hdLdYOEY+zCBRX/h6uaG7rUdVeOR8AGfSe/hcIzQMFL2Oj7+Hms4aJckJj/RGRKIBJSdasOzcYFSWWnD8mAlDPLiJl44IkUdc2cajyaC5W8wCOdnFw1vS0umwUuszykqUb1ISuvfuVJNrXvOWYv/zzzFotAchftQENTWo+7lwei0jPRsuly5FyZvvwaHfCdj1rJ2+M/SyNAIagY+IDg+JPB5MEp2PkxxhPE006NKbRkAjYJ8IxN9wJ4wugahqqsXxigKkJCSwAtNO517b2LjR31+JkiXlW/KbykrrsHrhAhSbR1FWeATXXrUa1uo2vPL+flZhelRVZhZjElpNvagjaVqVE680PRnR0YhlVaWIgZuDFNNY6WT8i3++x/Fy5knRQTgzOhZ1TPXuJrGQyk4EBcejTCQfpQ/P7793Ed7amsdxbBODQFsZ1inpFJzWSo/hyPeYqtJ0t/bga+f6wdThTqLSj+5WanL6hhXhCQ3x52VWdig+duFzBcjIODVBMqEVwVbVhTfkoDi/FtvfLmNgJ3DO19PQUNeH3XvKVDVnhHzEmbqcHhoGSk6WXF54BfebE2EWTmvV5hUiJiYYIZnJ2PSv19FUx4rWKFtlJFddTE/vkYBRR2fEZ86A96WLUPbqu+g8koeL7voutv30Jvt8Y+hVaQQ0AohiILDy0CEW0qli64pBMZMbv+4oxqOJziQk+oxGwA4RGFx2AXJimRxusnAyqlwJjjNiY1mV6aT41sJPtwMWz56CqLBgvPL2LiVczspIw2VfX4nSzg5se3MnWppNnJyage0HC9Fhpvsx/W7mzMiEkSGehwoqKfIdwi+uOo9RCH343UtbMCwRE3QwzuQkVW4xAzhZlXGmyDkjKQq1FDn3MD1dWktx4UEqjmJuVgyykyPw7FuH6KTsybYZp6Co5fFkfEQQXY97SaqGWdG596dZiGIMw0t/K8Oxwg54UY8TGu6PXpIgaV+5UZQTTvM/aW8NcyQ9nL9beXEOSgsr4OY5gr1vV8HNywVGVoRc/ZxQklvHEE8e3Jij1UsC1s88rCG2uJZcuZL7MoxtL3+A2KU5jKNwR9meI3AND0d1SSk1Q718HDcV6NlD3xwHehSFhSbAZW4SWirKYTpeiPk/+y6s+VWo/NcDdviu0EvSCGgEBAEhOuQ36r+ccOqKRIf8xsZ2bPocOd/sqltX+i2jEbBXBBqmzIMztTiLp2Rgd/4JRTKE3KRERJHodPGPO436SEIuOXepSjN/4Y3tnEYKxKWXnIPuqhq8sGEPR7RHlO/OCmpP9h4v5WHAGd86bzUzrFzg5+KFh1/ehKsWz0dBYx2qaaqXW1qvDhxeFBunRYajoKqB5GfEVtlJikQN082trL7IqHhaHKMfSISGOCbeTlFxKIlNOMlM6QkmmrNpLvEQrnzGsDAjvnldIva+34hlngbsYXxFy+Ao21cUDHMk3ZXtqpi4IPR2Mpyzm8Z/bJudc8Vc7N50jFWcIcRn+yF3SwuWXjAFdQeacLSoAqNSyWE+lRo7Z/6VJJdnr5mO2MWZMLF9NSxEKtAPjdWtKM1vxI5X31YVIRE4S+inBIFyeQj0C0FnjxmWXjOrQWM4665b0VTRiGNvrodvZ5G9vjX0ujQCZzwCn0l0BBlFdvitTvrtunV1xr9XNAB2jEB9cjaG3b047uyGmWkZOFJQpPKdxKzv4jVnMVDTjdlX3TjMCIi18zLRz3bQOzv5x5lVChcSgekMsdyyPw9DbDOJeHnV/GmISszEnt0HaaRXjYe+ey2efHMz6jmePisxEZVMFvf2dsPxEpIdHh+83TyQHhGB/FqaCpLsuLAdlMER8fomtnxISOQokpMSoSpJlTV0HublUE5wBdOhuKm8GXOmxiCAEQ6eXg6YmemMf/29At5ww+rlKXhnA4lbJz1vWB2KiqbJIMXKQ3zMcE5NhccZUV/czLaXFaExXshaHg5PX3+0Hu/CoW2FdEkehSvNAfsoRJYprCEaC7kYPemgzLZYby9iF6Qhi6P1Hzz1Phqb2ilQ7oU7sfLgbZqoWeqmT84I21pGmiiKs7P8fpCkMTkmFsFzlqGjthN5u56Hz0CVHb879NI0Amc2AlEDrOgQgjFRInMbn7piSYeHJh4jeTiS80J0fOX3etMIaATsEIGAhctwjHEF4pEjRGVqQjyOM+4hOSWJvjV+MLMy4cs2Uw19dRpJPi6csRg1plYcKC5VVZmwoAC2nBKxg9EPznRWXnHxxTAMtnL0+yBmzFoCS0crRrtb0EqPmTq2uGQSMy6CEQjeXsgrb1AHEF8GeybHhTFGoUFVb1zoeyMBn8VVLejq6qN3jwNmZ1CPwymrEk5bkV8hio8xIycOlyxLg5VtqPz8AhoC9uPAAQu8maEllZwhqeTwGBQlWVVd/Rim2NmR+5mQFsKW1TQU7q5A0Y5yhMX7Y+0dM1G4uRZH3xUSB7iwhTUg5oFDA6zsjGHO+bMQnBHOvK5OHHjnIFbfsgbb1+9A/uESNYHl4sHqFT176khypJIzRh2SHwlVV5dFOSAPUNAcFhDLx+tBZ28XjMFJFEYXw1yba4fvCr0kjYBGQBCIFKKjmI60r/jVbA59dCbIzYQ+x4Gkp9GVQS960whoBOwSgeHYRETOXoRDJeUqlVwiGdatOgtjJAvlpRWcZurDchoEHjpcg2JWIdp6mpEYGQJXTj4VltvGyAONASQqsTiSX8yqhg81KoO487tXYuvuEuzftVd95ZmdyZwrtp5qhezwX0J4GLy8fNHWxcwoinU93ZwZFxGJ3MIaDLM65Mpy0dKZSTh+ogEmjpY7kyDNz0mieHkAjUw3v/XSecgta4ExyA+rsv2xcVMeCvL7qIUxorPBzPYUSQ7vExsXgH6TVHL6ER3mh3OvncWR8iHkfliKueemoPxQPUwM3gwI9cKJndVsn1H74+eOAYqkh3i7URKWWV+bzqbVKHa9sQ8Lr1uEYzsK4UTdTmhmND54djOG+VsPP3oJ0Reni+Ggg6z+eDP008yoC2sfL5PkhBojYKGY2dTTQWdlK8lXPIYtlTA1Fdvl+0IvSiOgEZggOvzmQ7KjiM5sOiPLtzUhOUJwVE2H7atGF0109BtGI2CvCPR5+mB49mIEe3O8uraGlZ0x+PK6HAqO6xgF4Uln5AZmWcWmZKOerai2lgb12c5KioWTkwuOF1erg4D45UzhtNWuffmISMlActZUeDSVYueRIsY7cGycx4J5UxLQ2G5BbSOjHXiciI+Mxo++cR625VbTVXk7QzpZyclJwLb9pWyFjShH49Xz0nEov4btH5IdHlkWL8vCeTPikRxuwP1/fB8VlR2sEHng21dn42juAHbsqqA4uZ/+Ohz/Tgqm8JgtI7asYsL8se6GOdj2Vh4nurjPFEi31Viw/NpsHHw5F83F7dTXOKpUcqkMicGg5E9MvzRHjbrvf+MwYmZHI25mPN57bhtMDCKVTCxHd2e4+btztN5Mo8NupqeDlRwD2inm7uLlAQqY/SMDKX7uJ2HjaPpgHwLpGu0aQLfpox/AYdhqr28NvS6NwBmPQMQABzK4iUu8HOgcbESHBEe4jhAdITxCdJw10RGI9KYRsFcE6jJm0QgwiEng09HN1k5NZQ16WZm44uzVeOq1d0kyGLDJz/K05DTUNNMvh5od+ZRnpKbBgc7DhazkyBbBP+BZafHYtqcAqTPmY4yC3QSPIezMLaNmReIWOI01JVHFPNTTm0fiJO6+5VIE+Htid14DNn9Ibx2OoM9l2+rDfSWshIywneaCNfPTcfA418Qw0VvXLYRvsAeMnm546eWDnMBqxZTUUCTFhqPwWB2dki1w5kRWSmqIGjEfIGmJDvXBDXcsQXVRE5pKWzF9SQynoxjW2diDjvIO9HVYlVuxX4QXhjvYqqIXjwPL1H7hvghKCEDVgWpETo9A/IJ47HxhD9qpN+phpcaRQmWPAC+0sp0l7apBzr17R4fARB8iE80XJS7Cl15AEuZp6TKhf6Cf+xoIT08X1LXVo7/zuMJNn2gENAL2iUDEoDgjc20nV3QoHeTBTA6CDuKvzp+Nzt72uQd6VRoBjYBCoCMsFtEr1iAhhO0VBnYymADFpYUIDudYd3oStrz/oQrAlM/2gmkZNPFrplali/d1RFY2XX755Sb/WBEPCNTD0A05MyEK2xgJMUyPG09mOi2bkYrduZWqsuPI48KsKSkkO51oajNhzdq1sDRXYNGCqcgn6di6eTcCOBE1kx45Ww+WqjaWOyMoli7Lht8Y9X9sJ23eXYAf3byS5oGNsJrMuHTNDPzz2QOor6Gx4YgDKzmh6Gm3os9EfQ8nwhYtTqQrsht8XMYwbTbT1ev6aXPjgLbKTpTuqmLlyAH+Eb4Y5pj6mJWiYz6PT5C3Mhccpm9OSFowUs9Nw/7nDsLE1lsvW1BOvqzkBNLwkK7PXWZWbjh27h8dhCjiU5JXhrLcfPhGBXGKzYoOVnesFDB7BUSQuHnCZKpGZxen04ZpeKg3jYBGwG4RCJ/Q6JDLfKx1ZSM6Mk0hREcOjI1OzK/Rm0ZAI2C3CLj4GxB63a3Yt2s/EhMSkU4h8ttvv0eSMawmkeZkpWAfJ6v6mAnlxGmrNfOnc0S8jpNU7ax8OGBaTrrat9xjZfzpQCdjCpQTo7GNoZ0jrBB5cKJr0cxU7DtWzggFAxaeuxqz4r15fyu6B92x6bU3EM8gzViGbW7YlqcOKKFGX8zJisaHe8vUY1yweg6zrIx48fk9NOHrwfUXTkdWeiiCfLzxx8d2o6G2A47sNsUnhDL2oY/TVr0IN3qw1ZWI5loTmklqLr4uFUWHOtFS3Y0+MRTspakfhc+BEf4YMFtJcqjrIckx0GBwjNNlI6xCjXESzJMVpMx1U9CQW4+KveU0D2RmVpg3Wun5I+2oQacRGNLD+TwtSJw1E/3ExNLfiuKjhWhrbmN8RC88/UPh5E1NUmsNKzwmDPQVsE3InAm9aQQ0AnaLwATRUVUdrpKtK4qRlUZnoqLDQVBFdDztdif0wjQCGgEbAsNp2bDGpCA4iiLZ5lpqdrxxoKBMhXj6enphXlYmdhzJRx8rKo50+V26ehGKmE7ezAqQVHamT01hhtQY8iXEU8hOkBGZ8RHYeqSERGUM7u6uuGDVbGw/UIK4KVMpRPaCS2cdKmvbUUMNkNwnm2PlPmxdHSioU4sKNfphJgXIBw4WM3g0AFddOB+W4R4898wenDM3EIumBuHhf5RRD0N3ZY5/JiaEoKu1l7octqsifHD99TNx7EAtsqb6YMPzpVh9URrMrcM4tJGVIoqaPTjKHkYx80A3DQc5YcXCDgIYBOrUR0dmTqJx4Zy+ojKIAmUHtqXk34i0p6jxkcqOhS28YY6hh06NQCPDSptIatIXzUebqY7j6/Eoy6/AkSOH4OXtw4RzbzR2NSsvnSEHjqObS9U+6hONgEbAfhEIk4qO0ueweyVTVzaiM67NURUdDoFqomO/r6BemUbgYwg4uHsi4/v3YfOWbZw4ok9MaAg9YEKQW1CkBMo+np5YnJ2OnQVVcPIPRndDHVadvRDH6IbcTIM/ISoz05JUuyqvvEY9cjQrO8lRIdToVCAkPhbLz18Dc34udlCwnDFrNrUqnnDrqkdpZRPqW6kDYh9cHJAlYfwwyY4rc7auOW8ZVi6Kwvt7qnGipBpXXjwLdZyqKjteghNFrKiYmDrOqkxiXAisDOzsIemJZMTDN66fhbdfLYSZuVuXX52ATa/WUezsBgODPKuONsCNx6YQetwM9rCSQ1GxE49mQbH+cOjlnjCLS6pDHgYOp7MlNcwx9VHqhVx8nOEV7s3RdQusrACNkOREzYuDISwQ/dT2mNjCipzDSaw3t6KpvgVBxLDGTBJHHVNrXTO6OIXFJ0Zd+35Wy3Q152NvP31WI2CXCIT1d5HgCMmR5Smi4/uxqStpXYnbhYiRdUXHLl9BvSiNwCkIhM9ZgP6EDBwtYLWB32KiwiMQbQzBvrw8jLJi4s8qzznnrEKNP8W8RzmpdPQIVi6ejVySjmZqbsTcb1pWKseyR1BYVs3jgrSxjJi5aCq63cOU03HR7j1ICjEgr7QWqdOno4W5UGlBHqioY2WnuUu+ImFaWiQrOx4IMkbTh8eMOlMDfnbLKvyCU1ZBvq64cGEYjjW64dCuEyRlA0hKCFMkp89kVRlY371lAd7bWIa2hk5cdXUMjh80o6GayeYM+Ry1DqtKTmggvXV6eJkGgK48gAVEserSz53uJqHh6JQPW2lO1PSM0H9HSI6rtwu82K6ytrHtxQrQGL11wjiF1cOR+cSpqejj7UwO3WyrddFbhy0rjs27BPnAQVySSXos9BFypM9Qc+8JNHZIi09vGgGNgL0jEEqiYxMiy0pJdOZI1hW/JckmBytFdHRFR+GhTzQCpwsCgQuWotM3BJXSkpLppYhIGt0ZsDNPKjtAdGoqLrnsHGwvt6CFxoLNbM0snTYF+cWVaOaItSM1LrMyE5WTcX5ZAwJj4zF/5TwMnChGN6MQSo4eZ1BnP77zzbV48oXtaGLbyol6vlWzklBc3c7Kjhku9PL5zg1rkcYx7Q17SuBv8MS8OTHo4Jq2fHCU3jodysdn7vwM9HPsvI3J55JMPkZCEkV9jbujCwZ7+/GNyyLp6NzN6soQBc+2fCsP/i4iKAT9jGRQJIdlpLipobA2WTBKvx1XipT9afznxpyuET427YzhIiQn0gf9LRQdS8K68xhC50QhakYCjr28T1WNZt+0DM11bTi28SDMXcSBYuYxTya/NzUxlb0bI24cQR/pQFHVttPlraDXqRE44xEI7WNFR1BQVZ3Rj4iOkBxFdWTqShOdM/6NogE4/RDwmX8Wur2DUN3UrCo7GYkxJBBB2EGxsVdgGJKnT0Msx8ZLxgJQc+gILKWlWDY7R3nqtLGiIZXcmakxDMP0YOTDIH1tTAh3d8Ol61bjpS2HkJiaia62BoS5DHAaq5pTTEPK/XjlrBSUMAm9pdMKf18fzMyOxLIFGSgqa0fRiUqEernCkzlbWzYdJamhyJkJ5kEGH/QwxmG0j3lV0QFqtLytyYqcVC+sWB6FLdtMqCvpoCvyAAmQM7VDoejvttAnpxcuZG6ZHBlffl429r90DLVMMDcG+MGLDtGjXRyHH2Qlh8aAnqGeGCLpES8carERNi8KYTkxcOp3xrE39qA/wIm5W6NIzkxDyaEiNHW10nCR0RkkcWY+1yDNEFvdurEn983T782gV6wROIMRCOnjJCcr06LPkfaVquhISq9sIkIWFqTEyM566kqBok80AqcRAob5a2D1DUJpQxOSc2Zi1fKFcPZww8ESuiPX1aCzMBcLZ0/D+1v3o5/TSc6swqxYNBvHGOrZwXaTI80EL7nxQlYzrNi8fjvbP8O4YO1KLKa4+B9v7GcoZyE8KVBeODWOBKCaIudhyBj5t68/Cx3U3by/5Siiqbu5aHUWNu7Mx5E9ZaAOGKF0Pk5Pj2XbqkAZ+TnzOjESjI8KgJuTIzpbetBrHoTESpyzJhHtDd28bz3cOSihSA5N/ITkOJOYRIQbERLqi2lT43lfZ5RVVKOrmkStnfvDQFA3d05XGd2VcHm0b5D7NIaQmRGImBGH2m2l8AsxomvIjA5WlPyM/mivboJ1mGTIxwmdTSZmdVHHQ9JU49KJ93JfPo1efb1UjYBGQBAI6SXR4SaCZMVppHUlxIb0hl/oxltYPLg0OmkfHYWUPtEInGYIGOevhE/WLOzjtFXKzAWIDqf5HUXIO3cdomYHMPr4YEFWMjZzjHxAxLqsmJw1PwfF9LAZ9qNuprEBZ62dCTN1LFvf2IGUzBkI9nXEiKUD+/OrlO7Hx8OdIuc47Cuox5RZc9Bv7cGMJB8OPDliw5ZcXHFJJrobh5BXbUIhRc3UBjPmIQBpydE4RGNC0KsnIcpIQbIzOlrZWqJw2JuPGWSUyage5l1xuorrigsLQreZ7ateeuBwmiouIoBTYsPwp/FgZkY06ltaMHdtFko2UNuT30RBtBtjHDwwTMPBMVVxGoMhNQDewb7oa7ago7QJKVfNQEdVG9wcGebJCIiSQyRfLkBXi4n5W70Y5ZqO9Vfhg9K3T7NXXi9XI6AREASE6EglR/4L1Rmv6NgIDr/6yLXj4+W6oqPA0CcagdMQgfCZC9ESEIdquv9mLVyDWLawzGXF2HHoqCIqAb7emJ+Vhi2cvhpg1SYwIQVXXLUKmzcd4aw2CcSeHbh63Qp0dnZjw/v7qZ3ppVOxkblTBuzPq1HflIx8jLtuOhsb9tbi8MGjmDc3G8vmx+Dpl/ZgkALiMZKZmJQo1d4qyqtWzfHwYAMykiNZOWF0A3FtJvkQYbKfrweCSXLa60U0zIksfvlKigymGLhHTZM50dfngoumISshUmVgOY06YtB1CPu3HYcrx+MdKEZ2HiaJC/HFUDtHsNgS4xQ6/Bj8GbMwAeYTbdQlVVGz44fwWXH01HFjXEUfqnYx5JQkx8LqTh9JjtVhGO+1H8DhxoOn4auul6wR0AgIAiG9HSQ5ttaVlHQc5oT786KQG17Jg4vy1OEhSRsG6jeMRuD0RsDRg5OT8VPQ5BuLwKgEBI5YGdXggV3HiklUOLFk8GdVJhX766wwZM5B094tWMYqTZuBQZ/vbKQfzRhWzs5ALQ31ivmfRwmSHYP6fzCvFrEJiQikQWCw7yj6Rl3gHeiDHRsOYPa8DJQW1DBywZZ6np2dQM3QGIpJkKSyI8Lj+DAjysqb0ctKjj8nnEJJUNrrLdQFDdDf2YkkJxAWan76GU7qSuHxnOnxDPwcwLI5GTh+tJxtMhOFx47obWGmDUmNP1PVg/mYI/TjAaMgnPndzS/BAA+mk49xYituQSq6GczZmd8IA0XM4o5cs5kkx98Nfazu9Ft6sL39KDa37qMZYs/p/cLr1WsEznAEgq1CdGwgKB+dOeGGMUcxDJTvW+M/xR25wdHjDIdK775G4L8DAVfmNDW7BcLqF4mU5CS2fTyxnwaBY5zOigwPxaVXnIcPiweoS/FgArgv5scO4HjJAIp270dXXTWmpkbRJXgAVXQxlsNELDUuQlbEIFAOJsvPzsb5c5Jw3x82oVviG6i5WTk/C4XFdWht61Lj61MZ+hlp9ESMzwBee78GfSQfotHx9fdh1pYfuqiNkVBPJ7a+4tmeMtMhuZ8iYmc22a++bDYC3L3wMvOqfOnVc8nV81FeUouCXeUkOaLrcUNoTBCGG3vh2D0MV2ZbBKUFInFRMgY7GCo67IQuUyvCV8WjbU81LMVtKtXcgW2uhppK7Kg9hL2duWgbMP13vOB6LzQCZzgCwfxSM85zeIyS1pUiOuOtK9HqkOxIVUcTnTP8naJ3/78SgT4PA31lYuEbGo1SMycSPP3h7+bKYNA0VLolcRqLbaeOFuZcJeHoiXp0miXU0wHT06MoUB7g+HoH6QnJCAXBUYF+2FdUjzUzEhHlakSL+wg+3J2PfmpjXHgsWbIwA8UlDUxOl/F1YN2aKfjmeQwP3VGIf75Zw9Rxeu7Esj1V04YhMwkJ21GxbI+ZGNZp5Ti4CJavvmwmAunw3N05iA1v7+fIuhuio43Iio/Czo1HQc9BhMYaMdDUDScLw0QdnBE1NRwJTEqv31sBM6s1U2+dg4YdDCjlZNlgIFDMkfnq3gYU1Bah1FLzX/k6653SCJzJCAT1tHP3+a2Mxx0e5eAwL9zIUyE4cr1Yh/EMvxE1OLifyTjpfdcIaAQ0AhoBjYBG4DREIKinTWl01NKlojMvMoCcR+gNCc444ZEprHoHt9Nw9/SSNQIaAY2ARkAjoBE4kxEI6ibREQDUCanNJNFRFZ2Ppq400TmT3yZ63zUCGgGNgEZAI3B6IhDYTYd4NWbFHxMVHVs1x1bRkX68/K+Druicni+xXrVGQCOgEdAIaATOXAQCLXQ5H6/myA9WdAJtoZ7SvKI2R2zgbUTH9cxFSe+5RkAjoBHQCGgENAKnJQKBlpZJjY6N6EQF8ue4fw4rOY6i0yHpqaObhd40AhoBjYBGQCOgEdAInE4IBJibZdZqvH0lYmQSHRkXZRlH/bcRHUcSHfEt1ZtGQCOgEdAIaAQ0AhqB0wcBI4mOCJEn2lcnER2ZtrJpdBxRO6aJzunzsuqVagQ0AhoBjYBGQCMgCAjRUSRH+lbcqNEJsoV6Up/jOF7ZEa1O7agmOjaI9KlGQCOgEdAIaAQ0AqcLAsaupkmNjjAeEp1gRlyNt60U0WFVh50sTXROl5dUr1MjoBHQCGgENAIagQkEDCQ6oLO6bONiZCE6JDfj/0Sroys6NoD0qUZAI6AR0AhoBDQCpxcCBhOJznjbSlpYtoqOCJFZ1VH/VHFHNDp66ur0emn1ajUCGgGNgEZAI6ARMHSS6HCTyatxw0BWdCaIjlRz5Lf8WTemfXQECr1pBDQCGgGNgEZAI3D6IODfyamr8ZLOGOfKOXVFoiP0Rio640RHftZqonP6vKp6pRoBjYBGQCOgEdAIKAT8VEVHqXPU9JWN6AjBGf/Pcs64Rke3rvR7RiOgEdAIaAQ0AhqB0wsBIToTHjofEyNLTUc8dGRnNNE5vV5SvVqNgEZAI6AR0AhoBCYQ8O1otOlz5AoZL58fHSJ6ncnoB7newdGJ4+W2JHO5rDeNgEZAI6AR0AhoBDQCpwMCPh2s6IwvVImR58eEqAgIJUjmL2yj5o6oGZXMK71pBDQCGgGNgEZAI6AROH0Q8CbRmdjETsdhfkyoEiMrokM/HWldiUNyzajqY03cVv/UCGgENAIaAY2ARkAjYPcIeCmiMzY+Xj5OdBS54dQVnQNFoUOtDn10RjTRsftXUy9QI6AR0AhoBDQCGoGTEPAUjY7qXZHH8KfDPKnoyMSVGi+3VXQcQI3OyEn30xc0AhoBjYBGQCOgEdAI2D0CHlLRIcFRXEeIzvzYsDGbKzJJDsmPquhoomP3L6ReoEZAI6AR0AhoBDQCn0TAo/0jMfLoBNFR1RwV6GmjOaLSqdEVnU+ip6/RCGgENAIaAY2ARsCuEXAXojNR0eFKVUXHUQx0RJ+jjHRsP2uG7Xo/9OI0AhoBjYBGQCOgEdAIfAIBt3Gio9pUIkleEBtOjY7wHJs+h446ivBoovMJ7PQVGgGNgEZAI6AR0AjYOQJubc2kN6LQETGyGAZSo+P4MSGyJjp2/grq5WkENAIaAY2ARkAj8JkIuJLo2KTI4+nlC+KkoiMj5WQ+46PlMl5ePSRsSG8aAY2ARkAjoBHQCGgETh8EXNomDAOF17CiszA+koaB3CaJjpAeTXROn5f0i63URmhPvo9YZNvLdur67GltGiN7QUCv41QETv3cyO/PlM/Oqft+puz3qe8BffkjBJzHiY6MV31EdE4iOTaiUzUoxsl6+29D4Pnnn0d4ePjkbtXV1eHqq6+evPyfPPOTn/wEy5cvP2kJ11xzDWpra0+67v9yQQ6Kp/OBcPXq1fjhD384CYHsy3e+8x3k5+dPXnfqmVP/EMjv/5MYnLqe4OBgREdHw8PDA11dXep/a2srBgYGJnflP7neyUXY6RnB87nnnjvpcy2fGfns/LdsjtSQent7T+7OyMgIrFar6kS8/PLLCAoKmvzd9u3bcd99901e1mfOPAScFNEZpzljo1LRiVJi5Altjnxo5L8mOv+db47CwkJ4enpO7lxPTw+ysrImL3/RM6f+0foi9z/1j9cbb7yB7Ozskx7iggsuwPHjx0+67vNckHXJwTEmJgaJiYmIjY1V5318fCDkrqKiAiUlJSgtLcXwsG3E8NT1fJ7n+f99m1tvvRV33XXXSU/7hz/8AY8++uhJ101cEBw2bNiA1NTUiavQ39+P9PT0ycv/P87IOpydnXHJJZfg4osvRkJCAlxdXdV1n/X8g4ODaG9vx549e/D000+jqKjo30LQPu09fDq8FyZwk/UXFBSc9Lnu7u7GlClTJm7yqT9P3e8vs8+nPoY80Zd5nE9d4MeuXLx4MZ566qnJa+Q5zj33XPWeOHHiBNzc3CZ/l5ubiwsvvHDy8hc982n7JI/x79ivL7o2ffvPh4BT64RGh7dnUcdhUUIU+xYyaSXdK54onY4mOp8Pzn/vrT7rA/d5nvWzPpRfJdGR6sLatWs/z3I+cZvR0VHcfvvtJ13/VRAdJycnrFu3DjfccIP6Y3rSE3zGBSE6Qnrkj+n69evt+oD2ZYjO4cOHYTQaJ/de9jcpKWny8r/7jLu7O5588knMmjVLkc8v+3xSpRCSd+jQoS/7EJ+4X1RUFLZu3XrSujZu3Ihvf/vbn7jtV3XFl/1cf9ZnWh7vixKdG2+8EVOnTp3cpaGhIdxxxx2Tlz/PGXneBx98EGFhYZM3b2pq+gQRn/zlp5w5FYvP2sdPIzpSsdq9ezf+r0RH1iBfiBYsWICUlBTEx8er6pjBYEBvby+am5tVVbm8vFw9n3zx+qx1fsou6qv+AwjYiI7ticcwIkQnmkRHvv3aSM5HREc7Bv4HXp+TnvKJJ55AZmbmSdd93guXX345qqqqPnHzr5LoPPLIIzj//PM/8Ryf94q4uLiTbvp/JTrXX389fvSjH8HFxeWkx/0iFzo6OhQB27t37xe522feVtYklYsvswnpkorGx7fTjegIkXjrrbcgfzS+ik0I8s0334wPPvjgq3g45OTk4PXXXz/psT788ENFlE+68iu6IH9UpYoo1cYvuj300EP429/+9om7yWN+EaIjt9+yZYv6gz7xYPKHW/7Af5FNHkeOJ9JynNiknfR5j1lCvv/85z+f9Hn97W9/CyHmp27/DqIj6582bRoeeOABRXBOfc7PuizERyqoL730kiY8nwXSf/h6J5m6IrOREfMxsHW1ODFGTV0JwbH95ynfAFWDmuj8h18ryB/bj39b+iLr+ayWz38r0bnzzjtx2223/a8QyQFd3t//0yZ/TK+44grs37//f7rZ5/pdZWXl//p8n/VAL7zwAu65556Tfn06ER3B+ciRI59KcuR1kNaUtBFFl2M2myG4S2vRz88PkZGRSpPxaa+V3G7VqlWq/XgSOF/iwn+C6Mh74stsQgoefvjhT9xVMDodic6KFSsgX+YmNnlP/PSnP4XoCE/dvmqi8//YOw9oq4rr/8/DLmo0FuwBFRRBbCA2CBB77xV7r5j8V7JSVvJzpehvZf2Tvz3YsItiibFjjZWiImJDsCJVFBULYIz8z2fu2/fNnTvn3HPOve+9e9/bWx+nTd1n7sz37DaAuuuuu874H1t+vUnXgDqk0kgEleqLA12agQ5Q54cC0OnuAJ0CyGEdeH+JAp32fnWNCnSYsHwKLVj+JJNXogMo+fOf/+xXab+2mIz4Qpw+fbpBrI7tQrdu3ewfixyi6pAECPXO0KFDzcyZM8vKzXKjGqDzpz/9yYwaNaqkukYCOiwmSEd8mjRpklVvhCSObloAD4bXRx11VBlYRM144YUXuslznSvQKbCN32xbS3TaC+ggSXr22WdN165dE8cMPAnNW24m0vA7RTWrVD8cAOj8YNch1qLoPf50sxagU/jQjYyRIzXW+4t1D4j2fm0hoBMCEaF2YowXMuJtbYkOhrGACp+YDNZcc82S22mATqgfPg+wqejdu3dJ2RjcnnnmmeaZZ54pue9foELA2+ukk07yH9mvzYsuuqjsfpYb1QAd1I/jxo0rqa6RgM4FF1xgPcLcDgBuhg0b5t6qeB6S1jHGkOpUS+0BdDCqrqS64jnG2y61tkQHA/GsVI3qqj2ADh81gJx11123rKvMK0gYmTexx+GcdPCF+YW/EPBBwnjIIYcE59uySvRGm3Cg6RPZ1LMZ6Azp2T06KxgjR/IcC3Kif817i//TJg3SSuI54AMdflAYAKchFhTxJnLTtzbQwaMmZCz6yCOPlHj+0KY0QAcXY1xJhXCj5gvfJRY9f1EYNGhQJmnMH/7whzKwU4vFFPsPjHErEcbBfh/wmkEC5VIjAR0MXn/729+6zTd4+TGGZ8+eXdG+gUUFnmCr5HsQsVjVwn26rYFOCTMSLkK8E6Dj84JixowZU+J5lOR1BV99Gx3KCEnfuB9HlDNkyJAS0JbFRqetgQ7tRVXmh7Cgf1OnTjW/+tWvEsM0AHqQHIfyIy3eeeed41il99uYAyVAB8nckJ49mlVXEcyJBgJ/AB4FOm38ZgLVhYBOnq8ut+hGAzpu2znnK2vw4MHF2yyEvgQJQNirV68SgFTMEHNy9NFHG196k0f6EFN8xdt85btGnfQh9K5rAXT4csWQsloaOXJkYowjVATY6PhE3/CWQRIHAPbBHO+Ud4z78O67717iNk1ZtP/000+3i7VfdtbrRgM6f//7300aG588QCcr70LpswAdHBlwaHCJ36BrtyPPamGjw7jCQ4ujS3w8HXDAAe6txHOk08OHDy9Jw5jEA5XfsVIdcCCS6EQaqwIRR6cF6DieVxHWeW+RSnTa+3Up0Cl/Az7QIQU2OL5aDJUVLuZIg5iE4ghgT7A67IN8zyDAwG9+85u4rDW7j2cSEgqX4uIb1QLouPXkPYentAWgEkfwFuPZNDFNRPpIeIDCx1ZcqcZK6pDY1YIU6NSCiy1lZAE6OA+glnTp5ptvNv/zP//j3rLntQA6oXeNWz0qKVdqXFa5d4PxCVB3A6+SRCRuXnK9bA8OzAPoFLb1tJqqob02KawC0cvrEv3Zm9HhXQU67fF6SurMC3SSFgrfOyNuQS1pSMxFyL281qorH6QQ6I+vfJcuvfTS4BcZky5uyKNHjzZTpkyxXj6SD0NXROfo1gcOHFgifpc0++67b5t8oeG54ccw4T0h0fCpkYAObWcs4ooLL5PGpd/P0DVjgd8EkbyRCtWCQosfMZWqNS6lrajc8rQTPqG68kE2C2lrSnT831oa/vrvNC3QIR+u5MS8cunxxx+30jruuWUj4fMDBmaNo4PK++KLL3ars7Y4/nxSkiBwQbsuv/xyO6bdx6ipfeDmPtfzNuSABTo/YIYcVRppqgpAJzphB3P+s/ebzLvffteGrdKqQhzIA3TwUgFsxJEbOI409Q50UFG42xssXLjQBvFy+4comrDvG2ywgXu77JyJnC83X3RdljC6EXLtDqWrxb2QtxnA57777isrPg/QwWbKl3iVFZzxBrwkns3YsWNT5SQ4HfYNfD1jaOsuYkkFUA/SHoAfC93999+flDzzsxDQyVxIIAPt7tOnj1m0aFHZ0z333DMIrN2EpPFjVAnQYV7w+cc2Gu69rKor2nviiSe6TUh1fv3115f8nrIAHaQ3BOlzCUNgQmMA9DgKEXYAyacQ7c0KdA477DAb4FDK4JhHPQ2feRf77LOPW5SVCv/iF78ouacX7cSBuZENYLPuCrATAZ1N7RYQbORpQQ43I9Az/ZuWfWbaqamdvto8QOeaa64pk3gkMbLWQAc1Eh4LPu299942Pop7v0ePHu6lnSjybgHBthaPPvqojb/iTvglFaS4YAIlKBsRX9uCiJPEFgdumxGnY2MUoqxAhzKY4H0xe6jsLPfgE3FIQgt5UjmopvCWQorGthTsUYSxtgRVZIEmrg6BG+fNm2fVkoCbPJKRpHbIs7YGOrznNDY20j73GKcaoUxfUpsH6LSlezltRu1JeAeXMOrdZZdd7NhK8s7LA3QAng8++KBbnf3wwbibCMhpibZPnDjRrLXWWiVZkPIgcVOqAw7MnVWAOZG+CoDTDHSQ5BT+aKICnTp4UVETGhHoZOFcLYGO1MskicifvZwY02mISROpAXp33ONdCVKa/NWkQb2x/fbblxSBdCrk7k6iPECnpPBWvkCqtvrqq7dyLaXFszguWLCg9GbKKwU6BUbxG2hroIOnkwBceV0AWj52UIvXGugAsjFG9uNmsbUIamw+MCoRcwoA328b/CPu1kcffVSpCH3eBhxYGgGdAjVF4QIjTGMlOkW1FWAnuhlJd6Z9s7gNmqNVJHEgL9DhRxtH/uJfa4lOXL2h+60BdKQeJBhIMrp3726lPIj2WYDZ/A/xOpF42SGbRRLVDjsgt5bUQNrkH9n7iXp9OvTQQw1B9UKUBujgvh0nEQqVWYt7eFcxXrGJYhPVtiTeIxKiPEQEZsBtrYk4TqhW/DHF7y+PRIeFVFRXflspsxYSnZCXn1+Xf503jo7vWu6W+9e//tX079/fAge5789b8COr6ooykLi4KjEpnzGENxUb4ApRh1svbWJXdNSvPtUiFIVfpl7n5wBAp7D9Ax+7SHQ232ypNUKOBoF9qdGxS/RIgU5+JtcqZx6ggyQjaWdq3DfdL5pqgA6TRhqPmjh++EAHYz6+sF2K28rCnYDc9K15zsRXS/LfL2WjtvF54NaZBuhg0NnWYIN2s29QewCdSjxz+dfe54xbH+ggSUgjRbzyyivtdgP+2Oea/KhvhbKqrsiXdSsD6sUbyg1+mMZGh3xs87DTTjtJc0uOOByMGDGiBFAwp7lSzjxAh0qY+yZMmFDmYSkNwAYQ1TtSHqKi84GEVyYgEDVriMiDsTQfT0r1wQEBOj8wZWOWM3SLnksjiNMCcqJByECc9nV6nWV9dK3jtcJfCPk6zPPV5XKmlnF02PE3FDzLrS/unIkK41KXWCjdry3SIML21RLYeOB505bE5ppE+q0VhQALZccZIUu9oXxIJPBsElKgI5yovyNzqw90CJ6IyjUNkR+Vj0++CigP0PHLzHOdFuiwsWmcUwDzHGogwIZQLdzLpSxUdGw0u8oqq8it3Ef2a0M6RdgLpfrhwNI5MyPbHBNtAxG1SYFO/byYUEvqHeiE2pz2HhM7ongm7hAhGSBSaYguvPDCmkTFDZWddA/DSSa2aikUnJAysR/wPTn8uuoZ6CCJIhJykurU708trrGLcL/2K5WJWs8HBpXyVPsc1Qh/tQA6PlAKta1egQ79/+Mf/1gWcM/vA310P6JqCXSoa7XVVrO2NtjHuRIpvx1x13yE8dGIOzmgTam+OBAAOr1KVFesO0h4VKLT/i+ukYCOC1iYBCpRKHaMmwfvLT/GhjxvZKCDxAqVn8sv+oXbO+Jvvu6TKA3QwcbHd9tNKrMWz/iiDXmc+P2sRV2UkWaMheqiPUnShFCeWtx77rnnrBSS+n2gklWi4+cPta8S0OFDopJ0OPTuKvEd76W+ffuGmmTv4fn0wAMPlIx/VHf0yffAIhwB7utQrYGOLTT6hw1+f/e739ltSUTClNRv+s/cxP54fkR2KVOP7c8BgA5GyIWVKEI0Q7coBTqRXXIEc7qYd77+pv1b28lbkHLsngkAADMmSURBVBfouD9Uf2KqpepKXg/7RPXo0UMurWQCg8IkqgbohPalSqqrVs+qlejgYo+dhft+pG1EgyWuSCVKA3QqlSHPQ+2QZ3L0x4/cT3PkaxmvslpTNSpc+tzoQIcF1pdC+O8yCejwPgA5ldRlfFC45SLN/Mtf/pL4Oj///HMLZEKJKAv7GN/WhbAQt9xyi7XbcfMBgIgJRmydWgQMdMvmHMke6nJ4ha2itIv7zGfY59AfbIYIIsm+e1yj8iKuD9s9pLGt8uvV69bnQAHoNDUDnQjTDOvdq2CjA8IB4kSDkf8U6LT+y6hUQwjoxBmZ8jVCPAgCs+EVQDo8jwi45+5i3hpABw8hd/uEuXPnlhkauhMm/WYDvJNPPjmWBWzhwOTnkiy6bK4HaGhruummm8q8aNK0gb5jUwSY8flAfmyV8OZIQ9UCHamfRY7Iy8TxIZgg74/Jm+cYV2IXRRwbvNIYMwQ1ZKKXd5CmrQp0WriUR6Ij76qlFGNwkZbtMuQ+6bJ4XUm+pCNl8t7d/dfS2N/Elcn8hIchwMIlxhTeTJRNWAUMf11C0kkQVGzkXJs+xmFWryu3XPrnb2xKmXEu9qTHSNkFmPw+dtxxR7dYPa8TDvwXG50Ix/wQvVOLaSzQwVgHSU70D9Iczt/5SiU67f3OfKBDe7DsZ9LgB8ekx1H+Qu31g1i1F9DBYJZN7/ISX1xx3kiMW5+yLMh+3lped+/e3YwaNcp+IYbKzboLdzVAhy9VDKpRA7geOqF2+ffgJ1+2xChCdJ+G6hXoAFjjFrRQv/hg8McYYD7L/kgEPUTKSTm+6glQiSqE3zXBE7t27WpBJ8b+uL+jXiGiOe+M3zxRk121CWXWM9AhrANu237QSsYU41GiXdNPPnAIAeET+dlGRIi81QIdvMz4fQpRZty4gMc+0KkmrIHUqcfW4cB/5xQCBhaBzs+2jCQ6EdBBmhO9y+ivGegsVKDTOq8gfakhoJM+dyElQfCOO+64Yrb2AjrsHTRkyJBiO7KeIMZmoQ7R008/XRQ78xzVBHtYtSexICGlOeaYY8oWSWkXdhJnnHGGXKY65gU6GDkDet0v0lQVBhLdeuut5ve//33gSekt1CNp1HGlucqvUCEAAoSqUV1JGWmPLHCEPXAjdrMgIpEE7GSlENDJUgZ1Y6TvqgTrGejQNiS+oSCSxK/yt6shHhLbr7jjlD4Trfzss88usop7CnSK7NATjwPfz5Y4OoUHTQJ0GJD8F8l57PGdhV97WfWyrTlQLdBhMmAvF9d7oSMCHb9PGERi9NieNH78ePslHmoD7wV3cFzns1IeoIPaLEk1RntCxJwQR6gVsZWqREllVMrLc/KjYujRo0cxeWcGOjCBjwY8l4TgUb1KdGgb0lx/3y6M1wHfSGp9YvNNbIEAO4xNADpgqdaqK5Xo+JzvONdlQGe3Pr2iWQ4pjgKdenvN7IGEDUUlYjJAjI6+G9UW+mzE4+zHgt7b/fL0QUE1AQOlXWlsdAiZ7gYXZLwxkaGTxwgQcT0AZf78+TaMOouZuwATvIvdjkPk96kegE6cwTSSKcT1Dz/8cKgrFe9lBTrwOfRFDW+xv0HiB5DARRubA8YRY44/3hneW4jzKccl8sdtWinpsF/w7azkWZajK80hX2cEOvJboO9XX311yV5svJs0QMd/h0nvQMr0bXS22mqrpGxlz2g3ZWHjhf0g13wEDB8+PNHeDVsexg72hUhFq/G6CvWbe08++aTp3r17sc20Lc4TjfS+ETiqqzgbHXlfxcL1pE058J9miU404FBWmabd+mwRqa6YxCKgEx0Lf8ZM/bIcabdpS7Uyq9MGAAgxyeH5wGLJkQ0Vs26q6IOCtgI60geOLFxsmonO3Y3SLGkwtiToHTsBE0q/Evl9qgegQ5vvuusua2jJORMf2yRgHI7nRl7KCnQALEgGXaItv/zlL80999zj3o49R52ACsqNPUMZ2OuEtrCQgvzFSe5Xe2x0oAPP2BBSbOzoDwATnsoHC79LDHQBnyywxFhinIckIMzZlYAOLt8EyctCrvpI8tHWtER/cN2mv/zO2cQTo+wk6aJbNvyhDOr0xxL306iucNDI2m+3DXnOpd+jR4/Ok13z1IAD382e6ZQSge3d+vS2QAd5TiTYAe5YsDP1y6+chHraUTjgg4K2AjpMxkwATF5MeD179qzI0lmzZlmpQqUgfX6f6gXoAOgAGXwVE1gMm5xqKSvQCQUnRDo2aNCg1E3h3bFYDRgwoCQP4AdPsjjyF6e4dFnvNzLQydrXNOnTAB1sjJCqtCXxe78wclGvhZ2WP5bSAp1G73dbvq+OVJcLdJY2RUBn9759iJQcIRzkOzhkKdDpSC/c74sPCloL6GCsCfXo0cN+jbFIEnMCNZofWI5Jiz8mbP5c+tvf/mYjKLv3/HO/TwCdpKBlfv6ka9pVDQF2KIMv9VpQVqDDbuKop1yiPajW2G8IiuujvAsWmWuuuaZE+kae8847r2QTRLcOzv3FiXuoJidPnsxpbgL4nnvuubnzZ8kID2ppjJyl7rRpaWMliU6jL/j+WGL8pZHoNHq/044BTVfKgVKgE0GbPSKgUwA50YVNW4il8/aXC0tz6lWH4IAPCloD6MAo1E++bQXuyR9++GGJcTQTFh5SLH5IecaOHVsCdsaNG2d19EnM9/tE2mrUQ1IX6jNieNQTZQU6LIJTpkwJ7uuDWzP2O7i4I+XB5gBpCV5OxCoi1g4xTkJ2YgA3vOCSVBn+4gQfcU1n649qiXGDrUclaV+19XQUoAPgxSalrYnfTy1UR/5YSgt0Gr3fbf2+Okp9AaDTN4qoA8hphjnRxMiP++0vdCfWjvLS3X74oKC1gI5bp5yzyzQG1m48DJ4h3sZFHFsQDI4Zf0Kofo499li5DB79PgUT5biJZwgRWeuJsgId2o7XHRKZkM1Fnr6xyABWfMmcX5a/OPnPq7mmDX48mWrKi8vbUYBOXP8a5b4/ltICnUbpn7azthxYEgUMtGGREchHy0kk0em7tMlGReZGAe4o0Kkt0+upNB8UtBXQYWLCcJqtH6677rrULEmzNYLfp9SFV0jYUYAO3dxrr72sS3vI+LsCG0oeI8HBCHnMmDEl90MX/uIUSpP3ngKdFs4xX1dSXbWkbswzPjgI9CikQEc4occQB5bMioCOQyVAhx+MhToR8Hn78y+cZHraUTjgg4JaAB1sQIh6yuSDSkM8R/AawaAYlRVqBuJWsK8ME1YaSQmupWyCWYlC7tOV8qR5jpoNF+t6ojwSHWk/WzwQf4XdxcWbj998JeK9ErYAteJVV11lZsyYUSmLfa5AJxWbqk7UGYAOqtRTTz21yCvG5LXXXmttvvBIc6MpowZ3Q1kUM+lJp+GABTpMbdHf0shRsGmPrSKJDgBHQE70gOjIb1XhAttpuNmAHcW9Uzavo/kEFKx23yjcjgXgpGXJiBEj7P5P7h5Zkpe9lvDyufjii+WWHps5gBrPj0p80UUXZfZswb4GA3HiGGHHwEIiLs+oGInFhOE4tjuoFdnAMCsRc4WYL61BLHTsbl9pt/dq62ZeJGDdHnvsUSwKqRa2S3wk1APRRuys3N81MZKGDh1aD81r1TbQd9Tb7jyCV+fPf/7zVq1XC69vDizBvRygg+oq+mvas99WLe7lPADwRH9vLcgf66O+WaCtqycOIGVgV3D29EH6M3XqVCv1qac2aluUA8oB5YByoHE4UJToNDvNlgEdQA5/byrQaZy3qi1VDigHlAPKAeWAcsBywEp0mkEONyKg029pl2ZjZAAO8h4OCnQsv/Qf5YByQDmgHFAOKAcaiANLZn8cqaxakI4CnQZ6edpU5YByQDmgHFAOKAeSObBkTgR0hAo2OirREX7oUTmgHFAOKAeUA8qBxubAwfvuU9KBpr227lfY1BPbHB7ZIzY6C0oS6oVyQDmgHFAOKAeUA8qBeucAsb5cKgKdgn0OOKdgp6NAx2WTnisHlAPKAeWAckA50AgcCACdrYvGyAVpTgHsvPGZSnQa4YVqG5UDygHlgHJAOaAcaOFAAtApeFtZiU4k1Xnj089acumZckA5oBxQDigHlAPKgQbgQDnQ2SaS6ESRkDHQAeSInY4CnQZ4m9pE5YByQDmgHFAOKAdKOFAGdK647LIWZ/Mo6dsTJ5gZUXTa11WiU8I4vVAOKAeUA8oB5YByoP45MGynnUoa2RTtRVMCdKZNmmSmvfJKBHQ+LUmoF8oB5YByQDmgHFAOKAfqnQNLZjpxdKLGhoHOpAjozFegU+8vU9unHFAOKAeUA8oB5UApBxTolPJDr5QDygHlgHJAOaAc6EAcEKAj6qoyic70VyeZd1BdqUSnA7127YpyQDmgHFAOKAc6BwcAOoAc/qyT1ciRIwX0WA689NhY88nHHyvQ6RzjQXupHFAOKAeUA8qBDsWBRTNnFvvz47XXMk17b7310qYuXQqox7qYF1zNVaJT5JOeKAeUA8oB5YByQDnQIBwQoNNlmWXM//nznxXoNMh702YqB5QDygHlgHJAOZCCAxboRHEBjz7tNNN7660joBMFDESi04U9rggYaIMGNpkp8+enKE6TKAeUA8oB5YByQDmgHKgfDiyaNdMcPPw4s+2OO9pGNe2z7TZ293ILcBywM+UTBTr189q0JcoB5YByQDmgHFAOpOHAoQccYHr16VNMaoFOyxYQLVtBKNAp8khPlAPKAeWAckA5oBxoEA6UbQFxyC67LP1u8SKrsrKqq6gjSHdeU4lOg7xSbaZyQDmgHFAOKAeUA8KBMqAz8h//WDr3ow/NO1E05G8+/9Ju6gnQmfzJJ5JHj8oB5YByQDmgHFAOKAcaggNlQMfd62rJt99GMXRmmHkfzTCPR0EDlZQDygHlgHJAOaAcUA40EgcSgY50ZHEEeP7fpZfKpR6VA8oB5YByQDmgHFAONAQHUgGdVx5/zDz2skp0GuKNaiNTc2DzzTc366+/vvnmm2/MxIkTbb4DDzzQbLTRRmbJkiXm2muvTV2WJlQOpOXAWWedZZaJApe99dZb5qmnnkqbrW7S7Ri56Pbv39+254orrqibdmlDlANxHCgCnaVLzfy5c8t3L1/42Wdm3P33m0nRQyXlQCNw4Mc//rHp1auXWW+99WxzZ0bhv999913z+eeflzT/qKOOMuuuu6757rvvzFVXXWWfHXPMMWadddYx//3vf83ll19ekl4vlAMhDuyyyy5mpZVWMrNmzTJvv/12KEnJvQsuuMBeT58+3Tz00EMlz+Ti7LPPNssuu6z54IMPzAMPPCC3Kx632247s+uuu9p0o0ePNvNbIf7ZPvvsY39fVHLJJZdUbJMmUA60NwcAOj/88IOZNG6c+dfo20uBztII/Tx7191mcfTFO2nunPZuq9avHEjkAEbze+65p9liiy2C6Z5//nnz8ssvF5/VCugAqjbYYAOz+uqrm1VXXdUst9xyZtGiRearr74yX3zxhV38Pv3002K9lU5Oi6J3UkY1dNNNN1lJVdYyfvKTn5gf/ehHWbOVpae/s2fPLrvPjUMPPdR069Yt+Cztzeeee868/vrrweS9e/c2AwcODD5Le3PGjBmppS0jRoywnqlzo4/BO+64I7EKxijpoSSgI2UC0u++++7EMt2H9HunnXayt2gLbXJphx12MEgy09LkyZPL+KxAJy33NF29cODAvfc29912WzQvf2ub1HQ1m3pGP0Zo9vT3zJTnnreXk+aGJy2bUP9RDtQBBw6IgkJtsskmtiWAdMAGxNc2Cwz0xhtvmCeeeMKeVwN0+NpmQenXr18qUALomTBhgq3fVp7wjyxyCUkqPho1apRZuHBhxXR+gpNOOqkmQOfbyK7vmmuu8Yu317WoY/z48Ya/EO21116xYDeUPnQPScht0cSYhuR9hYDOKqusYlZbbbViMYzDww8/3F63B9A5+OCDDWA2Lbm/F8mjQEc4ocdG4YDsdSU7ljcdNXTI0s223d78aM01zbgHHzJLfwD3NEUSnVmN0idtZyfkALY2RxxxhO35f/7zH3PnnXcakaKsvfba9plISW6//XbzSRQuIS/QAeScfPLJZuWVVy5y+vvvv7fA4uuvv7b2PSxwXbt2tRIeAVkknjJlSkVJwfbbb2/VFsXCU54A8kRSkhfosAijzquGAJmArJtvvjlYDBKwNdZYI/gs6SbSsr59+9okaYHO1KlTk4ose4a0g/dVK6CDzVePHj3K6uFGGqDz5ZdfmkmTJgXzh24yBgTIhCQ6LtCh/kqEKu79998vSaZAp4QdetEAHCgDOgf272/3ujJNUVTkKIqO/U+BTgO8ys7dRPcr/p///Kf56KOPShjCYsOiA2Gv8+CDDxaBDsAIVQ/EQrBmBPLjbHRYBE888cSi1APJBSoxDEtDtPzyy1vJz9bRRnJdoj3koNdee808/fTToeRV3RsyZIjZZpttbBl5gU6oAdg8AeCwZQoREgskVgCc1iRA3NFHH22rSAt0LrvsMqubT9uu8847zxoKpwU6K664ojnzzDNt8YA7+O6SK2V073OeBuj4ebJcJwEd3tWlOT1pFehkeQuath44UA50BgyI9rqKJuRoQm8yhYlZJTr18Kq0DUkcGD58uFlrrbViAQp5zz//fAs2kPTceuutRaATKjcO6PDFv3ek74VY/G+88UaDNKcSIXE67LDDbP0YxbEA15pqDXSQnuy22262mY8//rh58803g00+55xzrPoupLoJZsh5sx6BDtIpFn6IcZDGCymNMbKowwAkAPG0hLRRALUCnbRc03QdnQMKdDr6G+4k/UOVhGSBReHKK68M9lq+1qsBOvvvv7/ZdNNNbflIgXxPrmDFzTeHDRtmbXq4xMAUQ9MQoaJx1V2hNKF7uP1uueWW9lEtJDqbbbaZ2W+//Wx5L774YtEF369bFmWMj8eMGeM/LrvGZkrUiGUPE27gDSftqReJzh577FHkOU0PSRP9LmUBOrU2RhbVlUp0/Lei1x2ZA5WBTmTDaSU6c9RGpyMPhEbvG/Y5SE0g4t8QG8clwMMpp5xib4nKQGx0AEdRRHD77MgjjzTY9MRJdCiDsuKeu3X65927dzcHHXSQvf3SSy+ZF154wU9ir0XyFHyY8mYtgA4qvOOOO87WGKduA7ScccYZNk3IcDXU3OOPP96gDquG6gHooJZEbSUSFPoD8BU1KNfMne5zrs8991wepVJd1RvQof1INJFkQepebtmg/9Q5B8qAztnHHLN0lci9dKVVVzMrRQaVK/D1tcLy5v/+/e913hVtXmfmwFZbbWV+9rOfWRZgX4HBsdiMMDmj2mLhhsaOHWtdvgXoZImjg/ppww03tOX84x//sIbH9iLFP7j27rzzzjblY489FmvXUy9Ah6B2SMEgAYf2wvkHw1ekBBB2RwCiSlQt0OG94sEG2AmRa6/VmjY6rq0KUkJUp9B7771XjH1TrTFyFqDDOGeMJbmXi0SHdsbZXPEMgr9z5swx2267beFG878bb7yxwTYJUqDTzBQ91DUHBOjQSCwJm9y9rtyWX3zxxe6lnisH6o4Drtvy4sWLzYcffmjb2D2SpMjETFwb7GqgPEAHo+KhQ4fa/HGLv33o/cPXP+1DAgJhyxFn2yNAB5sXvMfykIC8PHndPKKW+vjjj80999zjPrLneIgNGjTInos3W1ki74YAHfofp2b0spRdJvWvLYAOsZqI2QS4IIo2oJf4R3jaQXjXAfwwRu4RGcKHKGn8CN/pZ1Jf/XJpD39Qko2Ony90jYH9Z1HAWHm/oTQKdEJc0Xv1xoHFHxfMBKy7RPTzUKBTb29I25OaA6gIiGwsX9Z+RtRZAAeJL5MH6KywwgpWVSPqCFxvkRCx2MURqjC+pMUdHdd2QEEcuUCHxao9SQyN47yQdt99d9OnTx+7GCM9SbMou0AnjfFu1v7nBToABNRKSLLi+ktbevbsaQ2QSU9/scshwCA2RHiFCdDAuw+ww5hxif5D4v3nPpNzATpynfVIuxg78+bNK8nqSnQqef5hc0UQzMGDB5eUAVjH6BlSoFPCGr2oUw4o0KnTF6PNyscBFpkBAwbYr2hUVVwTi4RQ+r5NTB6gQ6tY0MgrYIdFBekLi8qCBQsMLucsEMSKQcyPTY8QbthIlLDxiaP2BDrwSxZq2nfqqadagAY4FEmY226iHBMVGumMbKPBc3jCX4jaEujg4ZaF5J2GgA7PUI9i8A2P6B+hBV55pWUfQGIQEYsIsARRP/ZY46LQ80JpjJExBJcyJF/W47Rp08regQAd2q7u5Vk5qukblQNLmh0/mJFUddWob1HbnYsD2PXgLs4ijs0MhN0FqgaiKvsxUdxKADt4YLkgxn3un7Ow8NXP3kaVbCME6CCBYquDPISKDvCVlWSvr6z5/PS0PW5TVAE68ARpWB5CggZ4DZEr0Qk9T3PPl7ohjUP1KN5itD3OTogxceyxxxbVpQTdc/spQCdJopOmjXnSKNDJwzXN0+gc+PWvf13ShXLVVfSDhi7+3/8tSagXyoF65gASFdzNkZyw2WJawtCYvZ7wxOKLuBKhlmJTR6RH2AEh0udrny95AA3SHQxK+fKvBHCkLgE6cp3nKHYjWfOecMIJuaIW+/UQY+i6667zb9trATrBhxluxtk5IUmLU19yX/bBImoyhsMhAvz6ah8CRTKukF4RV+idd94JZbX3GAPENULCw+aaLgnQ8W10GEvudhFunmrOGXfYWEEKdKrhpOZtVA4Udy9v7kDTH3/726WLo8l5UTRRLfrqa/PVgs/t+SR1L2/Ud9wp241KZaONNrKi+ywietypAS153MdrxejTTz+9KA3wyxTVCveT1DJIVK6//no/e8Vrtq7AcLpaAgyILZRfFost7yZEAAT+oKT+IVHBAJh6shD1MjYgpGWu2qlSOdjaEAvpqaeeSrTJqlROHNBBCgTYqTW5saUU6NSau1peI3CgDOgcOHCHSITTMtnY6MjRvPPqHN3UsxFeqLaxwIFGBjpJ71CkCnyluzYxSXka6RmRmGU/q5EjRxq852pJ1QAdvx277rqrtcGijffee6//OPY6DugQC2q99daLzScPBAhyDeBLIp4jVRTpWhLQQS0HmMNzDKkY0iuAFzGPnnnmGfNhsxej61avxshJ3Ndn9cKBGKATQR37VcWXVQH0KNCpl1em7UjDARfosK9VWkLdkDcgYNo6qkmnQKca7hkrScor0fFrFnumrNI/gA4ABNXVww8/7Bdb8bqaMSBAh0qQmLkStKSK2Vj02WeftUkU6CRxSp/VIwfKgM4BO7DXVQvAodHsfaVApx5fn7YpjgMCdOKeV7qfdfGqVF6tnlezyNWqDa1ZTiNJdPICne7du1uAQRRljMazUjVjwAU6SfUCgvgNYOuF1+Krr75q3eHJo0AniXP6rB458Ktf/rKkWU0KdEr4oRcNygEX6DBhpyVx6fWBDp48EgcnbVlp0rHLOnYiqFRQF1QiIitj9IxEoFIcFMpCrZLGqLpfv36p1CaV2uc/x1YIQ2z6FmeX4+bp3bt3sR3sr5VGdcVmo3ycyT5fbnn+OWoY2eEdA12kKpWId8Ri71NeoOOXk/W6GqCDOgqgBTGGADKoQTnKHx6HSbZPCnQs+/SfBuLAt7NK9xUsATr0w4o2I/XVq3PnNFC3tKmdnQMCdJjMa2GMLBuC1pqvsuN3axmismClCcrXWvWLISyeacQ3ag3C/gQDagnEV+s64jY0bUSgUwveKNCpBRe1jLbkwLfeBsoFoEMLInWVPURfSvynQMeyQ/9pEA7UGugQyj9tzJwsLEKiMHHiRLtVAPtG1Zpw877hhhsqFksgvE022aRiuiwJAJlIQu666y7D1hl+hN0sZcWlpQ7i9eDWzw72tSbKR3KG1MgnBToaGdkfE3pdnxxIADotdjqcvZoj+Fh9dllb1Rk4IECHvhIvJS2x2CMd8FVXafNrus7DAQE69DjJFT6OI+RJI23z81ejuvLLynOtEp08XNM87cmBFEAnEu5YiU72KKvt2TGtu3NzwAU6eTihQCcP1zpXHhfo5Ol5VrWq1KFARzihR+VAOg6EbXTIG6msLMSJDgp00jFTU9UPB3baaSfDfkF5CZUPmzUqKQfiOIBhM3/VENtAZCWADtG7MSImaGJbk2yxkReotXV7tT7lgAIdHQPKAeWAckA5oBxQDnRYDijQ6bCvVjumHFAOKAeUA8oB5YALdJqWRjoqG0cnUlYVVFeFg6qudKAoB5QDygHlgHJAOdCIHBCgA5YxbHJ1wICBUWTkqCv8cQDzRP+p11WBH/qvckA5oBxQDigHlAONwwEBOrTYSnT2j4BOFwty+Gdps01yk5ms7uWN81a1pcoB5YByQDmgHFAOWA58O+vjZk5YmY5pskAHcY4FOwCdwrkCHR0xygHlgHJAOaAcUA40GgdagA4tj8AOQAeMU9jYU4FOo71Qba9yQDmgHFAOKAeUAy0cUKDTwgs9Uw4oB5QDygHlgHKgg3HABToor1Si08FesHZHOaAcUA4oB5QDnZkDAnQKFjkKdDrzWGjVvu+8885mu+22s3VcddVVufYGqtTA1VZbrbiD9bhx48wrr7xSKUvDPF933XXNYYcdZtsbt8lkLTpz5JFHmrXXXtt8/vnn5rbbbqtFkcUy2LR0//33t9d33323Yef2WhORitmaAXriiScy7XNWbVvcMc5Go0uWLKm2yJL8bTUGSiqtwQXtXnPNNQ072U+bNs2WOHz4cLP66qubBQsWmNtvv70GtWgRyoF4DpR6XUWmOaU2OtjqRJmjfybPnRNfij5RDlTgwG677Wb69u1rU1122WWtAnRY5I4//nhbByDnueeeq9Cq9nncrVs3w27hTPTLLbecbcT3339vPvvsM/PMM8+YOXPKf2sbbbSRYf8u6NlnnzWTJk2y5+4/3bt3N/ylJcpYuHBhSfLTTz/drLzyyuabb76xu4KXPKzygh3Mhw4daku55557zMcfiydElQU72TfYYANz+OGH2zvPP/+8efnll52nyae8jx133NEmgjeffPJJMAN9WGGFFczMmTPNG2+8UUzjjnG2Zqg10EkzBqQx66+/vllmmWXs+2UH+bS00kormbXWWssmZxwyLqsl3gfvxd0/TsYZW61cd911maqA9+uss47t36effmooQ0k5kMQBd1NPC2nKgY69bSbPm51Ujj7r4Bxg4hw8eHDqXrJQyNcbmdxFIA3QGTRokOnRo4cFAxjGf/vtt3bhYZFH2hCiNECHxeyggw6y2V944QUzffr0UFHBe3vssYfZcMMNLQi48847g2kq3USisemmmyYmC4G0NItcmrLdih9++OGSd8QzWYBCQGeNNdawIMgtg3P2PJo9e7ZZb731TJcuXUoe897kfVUCOuTv1atXSf40F0iG3nnnHZu0GqDD3mj77befLQfA+eqrrwarP//8820/qfeOO+4opnHHeCWgs+KKK5phw4ZZnq2yyiqWh4BOwN9TTz1lr4sFN5+kGQOSZ8SIEdahBDCG9CwtDRw40LBPHETfKknd+J3C8y+++MI8+uijwWqqBTp8DCAt6927twWYBUeZlqoYfwCyDz74wH7cfPXVVy0P9Uw5EHFAgY4Og1Qc6Nevn52YUyWOEk2ePNn8+9//LiZ3F4EkoMNXKKoHRN0h4qvw3nvvNbNmzSp7nAboIEY/6qijbF7UWxMmTCgrJ+4G0iLqYFK94oor4pLF3mdR2H777YvP6QMLERM3QJIFQybx8ePHG/6E0ixyqAbd8iWve2TRWH755e2trEDnvPPOs1/RbnlyjoRGJE5yjyML4I033mhvVQI6AGlRb9oMKf9B8iLqj0YAOoBtxri8B7+bSGBuvfVWq+pxn6UZA5K+rYDOCSecYADAbDCKSjpE1QCdXXfd1Y4JH0ADbiD5vbj18vHy0EMPubf0vJNzQFRXiG1sZGSV6HTyERHTfXZLRt2SREzcAAkoL9ARMEEZTJ5MWoim+doW8MMkd8stt1j9PumE6hno8AV/5pln2qb+8MMP1v4FVZVLtB/bBSZ10gAIhbIscpIndNxyyy0NkimoVkCH98FO74ccckhZlfSRdwW5QAcpAyDPJcA0EgWfUKXJgoakySXqRnKIpA9qbaBDOwB8vKM8Eh2AJuMAQA8hxWGMcx9pFuMEQipx/fXX23P5J8sY6AhAx5UuwQPGEtJOPhBEHYc0DFUwAB+JoIyT9957zzzwwAPCOj12cg5UBDrRyMEZS1VXnXygpOk+xsAnn3yyTZoH6CDVOOKII2z+xYsXmxtuuKHEzmH33Xc3ffr0sc9nzJhhJTtuu+oZ6NBu2g9hTPzaa6+5TS+eM2Ej+YFcMOAucvPmzSuxH4lTdRQLdU6qATpOMfaUd8U7C0m4zjnnHLt4Y+chaj4X6GSx0TnxxBOtCtMHf357uK4V0MG+BqAdolVXXdXezgN0XKmeyxsKXHbZZc1JJ51kunbtasu///77zfvvv2/P+ccdA3F2WpI4D9ABJOywww6ZVFetJdHBcP3ggw+23UGKe9ddd1VUowGI+VASsOhLRYU3eux8HADoiDSH3pcZIyvQ6XyDIm+PqwU6iPMxMoQAOfLV5rYHIEU9fMmPHDmyBAhlBTrYQ7z55ptu8YnnLFIsQqGFPTFj9HCvvfYyW2yxhU125ZVXlqklJD+TNXYy0JQpU6y9BufuIse1S5dffrk19ESaVsnGBUPTjTfe2GbPKtFx6+Rc3gWglHfhktixfPjhh+a+++6zjxoJ6Lh9iTtPAjoAfQFKSCR5l5AAQMYQ44Bx7BISilNPPdXewiPp5ptvLj52x0BaoEM9WYx1AQkCFNLY6LQW0DnggAPMJptsYvs+ZswYawNWZETCCb9PxiUSM2zDbrrppoTU+qizcMACHeen1rR//4FROOQI8fAfEEglOp1lLFTdz2qBjnyFunYdfqO22WYbM2TIEHvbn+yzAh2/7LTXeYAOBp6ilkGV46utpG7E77h4Qy+++KKZOHGiPXcXORZQXHUhpByjRo2yC6YrLbAPK/xTLdA5++yzrZ0JgBRgKoRkgHcJTZ06tWikmhfooOqRxffSSy8tAwdSL8daSXQAMfPnz3eLLp5vtdVW9jwJ6BQTRyeLFi0yV199tVXrin1Ykh2JgAdAEP0VcseAP/YljRzltyTXeY5pgM5pp51mwb/rUeXXlcdGJ8ko3i/fvyYMA04DPv/8dHrdeThQLtHpv4PdybOAcfgXrNNFVVedZ0zk7mk1QAf7HhZOCANhDIVDxCKKtIAjrr3EShHKCnQACfylJb4SqTcP0HF5g4cSX6khEnUQz/ia56seSrPIuUAHW5akvrEIjB07tsyoO+0C40qeXDBDW12w5rp45wU67qJd6eu+VkCnWq8rwCg85g/JAuo7AJLYuSWp7vAwQoUEYacjXkRpxoDNFP0jPKMdrvpLnscdiaEktnBpgI5roC4gFPslficQR2y3UHG6YEjGGdKmkHu5lIv7OIbZWciVnuI0wO9VqXNzoMRGJ2JFJNFRoNO5h0S496hFmECSiAmOBR3KaqPjLlCPPPJI0V04VJ9MgqieWDCEsgKdtva6ciUTgB0kKqJWQGUBf/kShXz37jSLnAt08HRCMpaVZAHy6/fLId6MxJzBEPmjjz4qJvnpT39qtt12W3vtgrU8QAdVBFIDIUICvPTSS3JZdnTHkQuyyhIGbrS2ezmSSCSSEKo+VH4hQsUpvzUMajGshdKMASlPgE5rupfze+ejQ2j06NEG+zFRW8p9OWYBOhjlo2bN+lEBsMJOB08wpJ6oB5WUAwJ0hBNN+20/YCkSHIhBY4F59M9r88qDmEkmPXZ8DriLQJreJgEdNz9SB7yLXCNZIvLGqQ3IK4DB18HXO9ABBDIJY3QqxOQPiRcO5/AEVZB8yXMvzSLXlkBH1Cvy/mijkCxS7sLGMxfoAPBE/YbhL9KDELnG2Tx3XclD6Vsb6DAn5vW62nfffU3Pnj0rqlRco3wXrLljwO+7r8pqC6ADKJdo3bSHWEZ8pNQC6Oyyyy5mwIABtpvY0T3++ON+l4PXrmrbVy0GM+jNTsGBCkCnAHZAOwp0OsV4iO2kC3SYQCpJC9566y2DZ5SQG0dH7snxkksuMZtvvrnZe++97a1K6gkBOr5Yu96BDp0D7CDKJ5ZKiOAtkh4/YrG7yPmLmpTjAp0HH3zQSoUAVYAoORL5FrUTkhLaQHuwBXr77bdtMWkkOtjLnHHGGfZDyHUfpwCAwLnnnmvr9G13XKAjbeboAyJ5Rlm0hza75EqJ3Puc1wrooHKKI9oF+QupO8ZDAQMZ34xzSNQ89sL7x33Xroeee9/NQluJAu5Gy24LoMM4FsN22iPSF8YV0h4hAB7qMPc9yziLU13xzjEqxu0eIhjgk08+WZSAStlyJFoy4IgQBRAAnHmEd6SkHFgUeV25v2hPogODIqlONGZfm6cDpjMPFxfoYBfjhr5Pwxd3EWACYiISYjJyQQru0uKlImnco3wxYnuAC66QW0YoujDp3ICB2Ja4i4OUE3ckai7AQCb0uHRp7tNWvEo4wgt4ADD0AY6U5S5yaYCO5EtzdG1sZAFKUl3BB8YDxJe267lGn/CYgdxyuXaBDqo7oiZDqHBcWyt7M/oH6QeLJASgEtsRH2DYBM3/VAN0iFgte3G5Zcad++7h7hgPAR1X3RfnVUhdbnBO3KolOKY7BghPIOCUPIB+1xYlD9ABwKV1LwfIAGg5YgckwQ9dA3raBeUxRiYfbvxIQAXscA+bNf740AI4oaICWGFbJACU3xNAP4ttEmUrdVwOLCJmV/R9ImCnBOjYbkcP8cCaMl+BTscdBpV7VkugE4qMzCTF5Awliapdmw1ACou+UFagI/myHmsBdLLWmSY9ixSGrD6JUSxHFgcWAsAFf0hdWDBxA4cqAR1siU455RS7qJDfdysXtRVl+XZCLtBJMsYlL1Io3Kz5sqfduAmzdYdIwnyARR6oGqDDog2YSEuoFsVYnDwCdGivH/qA57j+77PPPpyaxx57zCD1DJEbL8oFTC7QiQO7Up4AHbnOc0wyRnZB27/+9S+z5557Ws84+o7ETbb9oN68QIe8gB3ZekWADPdDJB8MRGSP26cslE/vdXwOWKDjdLMZ6CCaLYhnOSjQcTjUSU9bG+jAVr4QUbEkGREy6WHPA/nu0WmAjpvGFpLjn9ACn6UYtkoQo+Ms+SQtE3lcwEFRGbDg8JeVBOjEqRQI4kYwN8hVq3CNtAt1A+TbT3EvLdBhQcP2A9ACAcTwEEMah+s9z+kbARVF2mETRv9UA3SkjLzH/v372wi9tA2Qh6TDJRZtQCLkq10lHX0766yzrITEVfXwvC2BDn3AuDgEGHjPBDakrRIKwn23vjSwGqAjfEGqg70WcbbgI+pXCNd9pKCMN/YmE+N+yadH5QAcKAc62w2wcXSiUWwBDokY0CrRgROdl9oC6LggBn3866+/XsJw9PAsxHzth8CQC2LiVFclBbbTBYs1Lth5qdLXfN5yycciBthEauWr0dzozhgQI21wCWmFBCwMSVzcxTBOosNcw/5GLGqQD7jcMgAC/r5ntQI6SK5EHeP2Me05C28IaJ7YHOWZZ6FtTFyPq3fffdeqYKTOLEAHQCCgV/LLEfUcklHecdKGnyH7Ft4PhugiWXPfIwBeJGJIuth/jDqqBTqUi4E2HxjXXnutdKPkeOyxx1o1MFI2QKaScsDlQDzQiVIxqC1Fx9fnz3Pz6Xkn44APdBC7AzxYDOTIVxZ2FAAO9saSyRR7BBHrw7aQ6or7rpErCwF6dnGtpR4WCfmSCwGZRgE69AGbgiwEMBJ37jRARwyCs9ThpmXBIBChEPUT44c5gXeDS7lrbO4+D4FQynFBirtASh0szNj/SERcVBGorPwI2e5YIq8bQbpWQAfbEMZTXoozmHZ/R4AA0gmgxLAXiZnwGP5n9bxL014BW0ic4jbiDJUDAAaky9j1PeB4f6gb5TcKMCEGDkbYvBdXQlVJcujWLx5+ceOKtEgSAekhAO6WpeedkwPpgE4k23n9UwU6nXOIFHrtTtBZ+YCHCYHS+vbta7PGAR0eup5DXMueQ3xhC/BGNA54YqFwqVGAjtvmtOdZvuYps1obDVc9B5Allg0LHfTyyy8b3J6FuM/CJRKQkDSHtElAB1sc7HsAxxCLIkAXb5sQDRnSEpOG548++qg1fq4HoAMQJNBfnBqF6Mio4YQYz0gpJfoz95FmItV0KesYcPO653mBDuoqPmAg+obkxP8N8v6OO+442xeAKnY+xFVSoOO+AT1vaw4o0GlrjjdofZWADpM7f0x8fCniUYP+ngBiGA2nBTqwZ7vttjODBw8OcgrbBkTiTKI+NQrQGTZsmOnRo4ff/MRrwIS4WaeR6AjQQYWA63Fa4usbwOICHepGfYDUhveJ7YZLEnKfe0lRn5OADos80gDqAtwSSdg19HXrk3OAM7zE+wnvJKjWQMeVQki9tTiiPsLLyyd+Q2z7EYoM3t5ARyRpADNADhKWEGFPg/QPOzK8M6tRXfFxUykAIGkAYSrRCb0NvQcHFOjoOEjFASYvce8lA5MciwBHQA0TdBLJJEmaJImOlMGXITFHunfvbr8OMTplfyAW0jhKAjp4sohIPS5/nvuobzCCzEL+F32WvKTNAnSSgEeoXtm7yAU6kg77EVSJ7gLH4iIGyIBcbCgAKiFKAjqkx64ESQ2bgPqGvKHyuAf4oz4Bvo0CdGg7kX8Z4wAYeEd0aYLuiSqLNC5VAjrdunWzi72bxz8HFMBjfgvwjAB/lYh3IZGvyQsIi3vHobLSAh1ArjgauOWgsqW9zDdszREivA0By/Tp35Gxvk+031eB+mn0uuNyYDHu5Q417SfGyM03C+oCVV05PNLTHBzICnRyVGFtKvj6g3wbHtk2Ik+5SXmSYrrE5ROgAzgkZlBWYtKOWwylLJHo1BLoSNn+EXCBITIAjIU6jioBnbh8We43EtDJ0i/SVgI6GOSK/UzWspPSA2yr2UohLdBxP1SS2pPnWSi+T55yNE9jcmCJD3T23a5/tAVEsxFy1CcFOo35Yuut1e0NdDDyxC211jRt2jQzfvz4TMUK0OHrE+lWa1BbAp207Vegk5ZT4XSVgA6AAu+kWhJgHHsc1zA9a/lpgQ5SXJEOZq0jKT19IBSCG9gyKb0+63gcCAOdyPiY/yEFOgU+6L/VcaC9gU51ra9tbgE6lIphb1YCIGHH4RuCuuUI0EHFkKTuc/NwTowcvGdCqis/bdbrRgQ69DHkZl2p76hP8uRLKrcS0EnK257PBOgwXtlNHMriddWebde6OwYHyoDOPpFEp4sDdOgmYOf1Tz/pGD3WXrQLBxTotLDdBTotd7OdsfVFUoh7ATrZSm1JTSC2q6++uuVGDc4aFejk6Tp2LBMmTMiTNTZPowIdHAuwRUIyJIbsAnRwn8dDTUk50Joc8IHO/wcAAP//Mi31BgAAOYxJREFU7Z0JlFXFmcfrNbsgbqC4IAgoCKIQFBfUmIBKFkVnoiRoEjQYMzlJNHOSTCaZSeZkzpk4zmLiRKOYhZhkxCU6YnCLaBI0moAS2RJFRNlUdppeWLun/vd13a733u3u95rX3ffe9yuFW7du3XurfvW635/v+6oq8+HxZzZmMsZk7H+Nxh6Vt38t27LJnpEg0D4C5513npk4cWJw8+23324aGhra96BW7urXr5+ZNWtWUGPRokXmhRdeaKV2112aMmWKGTFixEE1YN68eWbjxo0tPuPKK680ffr0afF6Wxe2bt1qnnrqqbaqlXR97NixZvLkyaaxsdE89NBDZsOGDSXdX0zl4447zlx99dXBOxYuXGheeeWVYm4rqHPmmWcaPas9Sf1bsmSJWb9+fXtub/GegQMHmhkzZgTXf//73wfvaLFyzC9cf/315tBDDzXbt2839957b8xbS/OSTmBP3s9i5sPjJ1ihY9VNkKzcQegkfYxpPwQgAAEIQKBiCSB0Knbo6TgEIAABCEAg/QQQOukfY3oIAQhAAAIQqFgCkUIniNAJvFdZ15XoLN+6uWIh0XEIQAACEIAABJJJYPe63Hg5G6PzPhuDXBXE5qhLCkpWWr4NoROA4C8IQAACEIAABBJDoEDofGichI5mWlUFnQiCka3YQegkZkxpKAQgAAEIQAACTQRaETpZS44sOsot374FaBCAAAQgAAEIQCBRBAqFzhnWomOVjZtijtBJ1HjSWAhAAAIQgAAEPAIRQme8dV1J6WRryYUlJxYWHY8aWQhAAAIQgAAEEkGgQOhMPWN8Y6BxmhYNlGXHhiYjdBIxnDQSAhCAAAQgAAGfAELHp0EeAhCAAAQgAIFUEWhb6NjuVln3Fa6rVI07nYEABCAAAQhUBIG2hQ6uq4r4INBJCEAAAhCAQBoJIHTSOKr0CQIQgAAEIACBgABChw8CBCAAAQhAAAKpJYDQSe3Q0jEIQAACEIAABBA6fAYgAAEIQAACEEgtgSKEjhYM1Do6bOqZ2k8BHYMABCAAAQiklABCJ6UDS7cgAAEIQAACEDCmQOhcevr4xqqmVZGDbSDshhBaR2fFDjb15AMDAQhAAAIQgECyCEjoSNY0aoMr7XCV3QKiaaMr2xfltAnEip0InWQNLa2FAAQgAAEIQKDAohMldBSlsxyhw6cFAhCAAAQgAIGEEdi9fn1OizNyXTkTT+DCarL1/GXntpyKnEAAAhCAAAQgAIG4E6gvcF1ZoeMarZ3LXULoOBIcIQABCEAAAhBICoFCi87YMxSuE/yvaeUu/aV6u8tyhAAEIAABCEAAAokgUCB0LrFCJ2NnWdn45GC2VaN1Xcmyg0UnEeNJIyEAAQhAAAIQ8AjU2xidjP2v0f6nYyYrdLI1NNvKpb9i0XEoOEIAAhCAAAQgkBACEjp+ahI6WZeVlI9LCB1HgiMEIAABCEAAAkkhsHv9hpymZi4+zbquqqzACVxWVdbQk11L5zUsOjmgOIEABCAAAQhAIP4Esq4rBeRk9YwVOuMUlJO15bijvfhaNdPL4z+ctBACEIAABCAAAZ9AQTDyFGvRyQodK3aaPFc6YNHxsZGHAAQgAAEIQCAJBOrXr2tqZlbUZCR0MlXWZWVtPG7BQM26wqKThOGkjRCAAAQgAAEI+AQkdKRjsusfWyPOZAmdwHFl/7aTrjJyatn0+i7W0cmS4G8IQAACEIAABJJCINKik/VZObmT7QpCJylDSjshAAEIQAACEHAEdm/wp5dbbTNlTDZGRxUkddwCO6tqsOg4aBwhAAEIQAACEEgGgQLXVSB0bNub4pCzGeu+WlW7Mxk9opUQgAAEIAABCECgiUB9jkXHypopY05visoJpU5Q9Q2EDh8aCEAAAhCAAAQSRqBQ6IweG0wvz+/HG7XV+UWcQwACEIAABCAAgVgTCBYMtLab7Kwra9GZLKETkVbX7YoopQgCEIAABCAAAQjEl0DBXlcInfgOFi2DAAQgAAEIQKA0AgWuq8mnnpZ1XTkbT9MRi05pYKkNAQhAAAIQgEDXEwgsOgo7lr/KHq3rygqdiLS6riailCIIQAACEIAABCAQXwIFFp0PyqITkd6sR+hEYKEIAhCAAAQgAIEYE4gUOtrMM89zZbDoxHgUaRoEIAABCEAAApEEJHT8BZAzH2jBorMGi04kQAohAAEIQAACEIgvgQKLDkInvoNFyyAAAQhAAAIQKI1A/YYNOTdYi84YG6PjhSc3hSlj0cnhxAkEIAABCEAAAgkgEFh0vJgcXFcJGDSaCAEIQAACEIBAcQR2v5O16LjY48wHRnmzrjJNE7DsYc3u2uKeSC0IQAACEIAABCAQEwJO6LjmBELHs/DY2VdZT9aaeoSOg8QRAhCAAAQgAIFkENjzzkYbkZMxDY0NpipTZXItOkF8TnYxwbew6CRjRGklBCAAAQhAAAIhgUDo2LMGq2mszIkWOqqN6ypkRgYCEIAABCAAgYQQ2PPuO0FL5aHKWMtO5qJRYxqbF9bJWnNUo9IsOoJBggAEIAABCKSNQBCSkrZOtdKf3dZ1pe/00HV1kR+M3OS6ktx5a3ddK49JxyWB6Nevn5kyZYo5++yzzejRo83gwYNN//79TVVVVTo6SS8gAAEIQKCiCDQ0NJjq6mqzbt06s3LlSvPSSy+ZBQsWmJqammwcbsppOItOg7XoVGUtOt6sKwUiN4mdt/akW+iMGjXKzJw501x11VWImpR/6OkeBCAAgUonIPHz4IMPmjlz5pi//vWvqcaxO9919f6R1nXl9rpS16V17Plbe9I560pWnH/8x380N9xwQ6oHms5BAAIQgAAEogjcc8895rvf/W5qrTv1VugoGCW06Fx4ilZGdskG7tisCtbuTZ9FR1acW2+91YwdO9Z1mCMEIAABCECg4ggsW7bMfPWrXzWvvfZa6vouoaMUBiPLohP2sjln3t6bLovOxIkTzd13320OP/zwsLtkIAABCEAAApVKYNu2bebGG280ixcvThWC0HVleyXjTebCU0Zr/pWkT7ajOtrzNFl0ZMm57777EDmp+ijTGQhAAAIQOFgCEjszZsxIlWWnwKKT77py0NIkdObNm4e7yg0sRwhAAAIQgIBHYOnSpWbatGleSbKzTui4XmQtOu7MWXXs+dp99a400cdvfOMbBB4negRpPAQgAAEIdDSB2bNnBwHKHf2eznh+C0LHhSCrCVkX1tq9yRc6I0eONE8++WRncOUdEIAABCAAgcQSUODu1KlTzeuvv57YPriG+0JHM60zF5x8qheC7KoZsy4FFp1bbrnFTJ8+vblT5CAAAQhAAAIQiCQwd+7cYPmVyIsJKqx7JzvrKmiyteNY19WpeatDZ3XPun27E9StwqZqxeNXX32VxQAL0VACAQhAAAIQKCCwf/9+M27cOFNbm+xZ175FR50MLTqN1mWVdWDpmLEWnWQLnSuuuMLcdtttBQNJAQQgAAEIQAAChQRk9fjyl79sHn300cKLCSqRRcdNJtcxFDouNsf1JelCB7eVG0mOEIAABCAAgeIIpMF9Vde0YKDrceb8MEYnN1RnfcItOkwpd0PMEQIQgAAEIFAcAYV8yCOS5FQgdCadPKpRrqp811XShc6SJUtYIDDJn1TaDgEIQAACnU5ACwhOmDCh099bzhdK6IS6psrmJo0YlWvKaZpevmH/nnK+t9OftXr1agKRO506L4QABCAAgSQTUEDyySefnOQuGN+iE8ToTCpwXWV1z4Z9yRY6a9asSfRA0XgIQAACEIBAZxNoaGgww4cP7+zXlvV99e++2/y8KhuMfJ616GSjk7XllXVhNTYER4ROMydyEIAABCAAgUogkAahk7XoZOeRZwpdV81erKS7rrDoVMKPJH2EAAQgAIFyEkiH0Gm26ASuK1l0miEpmz3duH9vc3ECcwidBA4aTYYABCAAgS4lkE6hM9wKncDCYwVOeMyYjQkPRkbodOnPCi+HAAQgAIEEEkiL0MmG5FhZE8ToDB/pWXSaR2XjAYKRm2mQgwAEIAABCKSfQFqEjhupCNeVu2SsRSfZW0Bg0WkeS3IQgAAEIACBYgikQui8lxejc4616IQL64QLB2bMOwcQOsV8KKgDAQhAAAIQSAuBVAgdbQHR5LsKZl2d24Lr6h1cV2n53NIPCEAAAhCAQFEEUiF0PItO/+7dTEYWnajev4vQicJCGQQgAAEIQCC1BNImdC454ggJnVPcdCs7cNkFdnRE6KT2c0zHIAABCEAAApEEUiN0rJw5qVdvc/mRRzmhU9jfdw+wjk4hFUogAAEIQAAC6SWQGqFjh+iao482A7r3wHWV3o8rPYMABCAAAQiURiAVQmfTu2Ziv/7m3EMPDTqfOXvYKU17XYVBykGwMhad0j4c1IYABCAAAQgknUAahM6+Te+ZWYOONT0188qmzNlBjE7h0LyH66oQCiUQgAAEIACBFBNIg9A5ra4utOZoqBA6Kf7A0jUIQAACEIBAKQTSIHSutZacPlV274emFLiuvMlW2T09rbUHi45DxBECEIAABCBQGQTSIHRu6NYtZ7AyE4edHLmOzqaGfTkVk3bCFhBJG7HKbG9jY/OPX6bJn5xWEmnqq98XjVdHj53/vo5+V1o/f/SrOAKpFDoKRo7q/nsNTC+P4kIZBMpF4LbbbjMLFy4MH/f973/fDB48ODz3M/4XnV9ear6rviT/53/+xzz33HNBc7t3726+973vmeOOO66k5rfFoLP6pnZcd911prq6Omj/wIEDzd13311SX0qp/N///d/m+eefD29p7XMSViIDgXYSSKXQOctadKL2utqE0Gnnx4TbIFAcgU9+8pPmF7/4RVh5xYoVZvTo0eG5y2zYsMH80z/9kzs9qKMER79+/Q7qGaXeLGFw/fXXmzlz5gS3SpD8+c9/NqeffnpRj9q/f7/53e9+Z5555hkjFvrz1ltvmZqaGjNs2LDgjwTiSSedZKZNm2aOOeaYVi0sS5cuNYsWLQrbcvnll5sBAwbktOWPf/yjeeGFF8I6l1xyiRkzZkxwrv4cdthhZteuXeF1fTl0RNK7PvWpT4WfE7Fbvnx55OekI97PMyuPQNqEzoa9e01GQidqKDfjuorCQhkEAgL6AmpP8q0OxQqdlStXhl+y7Xmnf8+mTZuMLBClphdffLGkW2StGTJkSHBPe4XOXvsL6r/+67/MnXfeadavX1/0+z/72c+aL33pS5HM1BZd+8EPfhA8T+Px8ssvm/Hjx+c8/9ZbbzX/8A//ENa59957zbXXXhuc6xnFCp32fE78z4juR+jkDA0nHUwgbULnt9U7ETod/Jnh8SkksHHjRnP88ce3q2cPPPCAueqqq4J7SxE6p512Wrvel/9FKytI3759S3qWfvF1ywvua+sB//zP/2y+853vBNXUhlItOnV2eugnPvEJM2/evJxX+SLAv5DfT9V77LHHzEc+8hG/mlG9zhI6etdll10WWo9yGtLCybHHHhtYu9xlPQOh42hw7AwCaRM6s+0Gn1h0OuOTwztSRWDVqlXmlFNOaVef5s6da6ZPnx7cW6zQ2bp1q5FFoT3prrvuMq+//np464EDB0yVN+0yvNBKplShI5EhV1t7hY6+3GWV+dGPfhS2Ss+86KKLApEo68tRRx1levXqZbZv3x5Ye5588smAkYub0Y26J9/N05LQGTduXPguZf7jP/7joC06eteoUaNy+Oe8JOLkjDPOQOhEcKGo8wikSeis2l1vntixw2TOPCnadbWlkVlXnffR4k1JIiChM3LkyIIm64vNT/qizU8PPvig+du//duguFihk/+MUs4nT55snn322fCW/DaGF1rJRAkdxcG0lm6++Wbz9a9/Paiid5Zi0dm3b18gZPwYmB//+MdBAHBr71TsjuJtXnnllaCa+P/bv/1b2A4Vqi2+RUdlH/rQh3JidFRHcTz6o6TntMd1pedI6Ojz0lJSHT997GMfM/qMuKTrWHQcDY6dQSBNQudx+w+hN3bvxqLTGR8c3pEuAvoifvvttws6JTeJbz351a9+VRBwO3ToUKNZR0qdIXRkIXBf2EfbDe7ee++9gna3VZAvdN73vvcFcS1t3eeu68u6FKHz6quvGt/CokDjtWvXuse1etTsp8997nNhnWuuuSYM5FWh2pIvdMLKLWSKETqaReaS3JpOzCqAura21l0qOD799NNBDJK78LWvfc38+7//uzsN2ovQCXGQ6QQCaRI699iYxPqGA7LojGi0/2TRbwD90yU8biEYuRM+UrwiTQT69+8fzsRRvxRfohiNllJnCB1ZXhSArHTOOeeYUoOKdV9nCx1ZcsTSJQmNxYsXBwHDyreUFLwsYfPQQw8FVVRX7jN/xlqU0Il6puq5pOutWXRcPXeUFU0Cp62kd/zLv/xL6OLTexQk/fnPfz68VXUQOiEOMp1AIC1CZ9P+fWbu5i1W19j/cV11wieHV6SewJ49e0zv3r1z+nnHHXfkfGnlXLQnHS106uvrzSGHHBK+VlYVuYBKTZ0tdPTlfumll5rf/OY3OU396le/aj760Y+asWPHBrOeJAzEXcHhcs/98Ic/DN1WulHX//SnP5kzzzwzfI6e7Vt0VOfb3/52OEPMVXz88cdDF5LqFCt0VPeDH/xg0ULnggsuyJnGrlgjTWV3CaHjSHDsLAJpETpLrCX1+V3VRv9kyVp0IghuadwfUZqcIlZGTs5YpaGlcq246dSuP5qefMstt7jTgmNHC52//OUv4Xor+gJWW+QaKTV1lNCRYHFJ7fOT4m3OPfdcs27dOr+46Lye95//+Z/m7//+73PuiRI6Bzu9XC9QbJBLElaaddZW0gy4Qw89NKwmK5asbwqydgmh40hw7CwCaRE6v96x3ayx8TmB0JkwdESjfinoB8o/EozcWR8r3pMGAr/97W/NBz7wgZyuyCqhf6G3lNoSOpptpZ/L9iZNr5YVR0k/25rF5H8hH3744WG8UGvvKLfQ0bsUw+Kv56PVfnv27JnTDC0K+K1vfSuMsSmGhfqpWCSJHLfujf9QPSPfoiOh48cEqX45Zl35743Ky031xS9+MbykdomDn9ReXFc+EfIdTSAtQmfO5s2m+oAMNnZJ5PcNHR75m3SbOdDRPDv0+Vh0OhQvD88joLgKuU7y05tvvhms2JtfrvPWhI5W5lVMTUcmxb1MmDChzVd0hNDxXypxIuuG72bzr8s1JZGmlYpXr15txNRPsoooYFliRUwVI+MCvv16yucLHZVpNWWJI5dU5w9/+IPRQo1Kal9rritdF6NSkkTsSXYlZ39mmd6ZP+YInVKoUrccBNIgdGbaJTR+aNfPcSkzQcHIEWkrrqsIKhRBoJCAFrcbNGhQ+KXl11Ag7L/+67/6RWG+NaGjLQ+0bkxHpqQInXwG+kUsoaDZTBIoLQmk/Pt0HiV0our5ZeUWOmqDXGr+TK3hw4cH09D1Lj8hdHwa5DuDQBqEzrTGBnP/FhuIbFPguspadPTDFZyGx22GGB1BIkGgLQJaBFCr+EYlWRvkgjnyyCMLLrcldPJdYQUPOMgC7ffUVRYdrRfju6601UOURewguxjeLgGhQOYRI0YErisFipeSymnR0SKG+fFJLa0ThNApZZSoWw4CaRA6F9oZmE/t3BGqmqzrKvhHRO6/JLZh0SnHZ4ZnpJyA1qXR5pRuCre6e+GFF5rf//73Yc8Vq6N4mR49eoRlyrQmdLSCsWYUdWTSLLFiVknWLz5/C4iOWEdHU8P9INxy91tCR7uAayFDzdBatmxZ0a/QvVojSVYXJYkPxTf5bieNVzFJ6y+df/75OXt36VwWvKixQOgUQ5U65SSQBqFzhp1x+lJNdtNdz6LThMnTOtsai/vBLSfgcj6LGJ1y0uRZUQS0q7asBE899VR4+eKLLw4WgNMWEfqScunLX/5ysEGl75poTei4++JwTIvQue2228xNN9100Eg1rtp1fred0aEkgfKZz3ymzedqJplEsB9jpM9Dazu5I3TaxEqFMhNIg9AZXV9nFtu4P5eaLDpW4eiXsv2h0w+Wfviw6DhEHCFQSEAiR/E3/iq2qqXtB7QXk1wjX/jCF3Ju1P5Nms3jFsMrVujIsuN/OeY8tMQTuW7yLUttPaJUoeMLPP0u0XlbKyNrtekbb7yxraYEz1qxYkXORpnajuO8885r896rr77aTJ06Naee1uqRC+9gkvooIZu/jpL/TFn85Ip0Ac66pvt+9rOfBZY9v66fR+j4NMh3BoE0CJ0RdbVmmY2ddHomM76FWVfbmXXVGZ8p3pFAAvqX+XXXXVewoJ2/bo5+wCRkfvnLX+b08IQTTjD33Xdf4L4oVujoy3HMmDE5z2nviVwnJ554Ykm35wsdWasWLlxo5G5yfyTGtMGmLKmKSdLsKG2HIQvKjBkz2hQ6pTTI3+ZBYsGPnynlORojLUKo+KCDSWrDtm3bAndW/nP0Dm3zMGvWrBx3le7RqsiaPt9a0v1ML2+NENfKTSANQudEa835q7XquJQzvbzRc11tx3XlGHGEQEhAU5y1CaSLz3AX/uZv/sbcf//9OdOaJQL0JaVyPylORG6UpAodvy9t5bVAoRYqbMuik/8cTa/XzCqlPn365KxRlBSho2nxX/nKVwJh6/dPIkezrmTdU761hNBpjQ7XOoJAGoTOIBuf82aTa1mMCiw6bu4VFp2O+AjxzKQT0GrDsq7oC8gluSTmz58ffCG7MneUi0surNmzZwf3yM0i95amRLdX6GgmV7FWGbl5/FQOi47/vNby+hLXGjUPP/xwSUJHbA877LBQTOZv6tmRQmfixIntsp5p8T9/mvuCBQvMlVdeGfbBcRKTu+66y8iNWUxC6BRDiTrlJJAKoWP3y3tzj42h0+9p+zNXIHQcMISOI8ERArkENINKX+BKcldpr6TW4jNU7//+7/+CXbWfeOKJIIZHZe0VOgp81QJ6xaTp06ebBx54IKzaHqGjL1t/1lX4sIiMXHPaCkN/NBtt0qRJQfxMKRadtoSORKO/Q3m5XFcSIc8995x5//vfH9Gz0oo0G++ss84Kt7DQs7Xmz//+7/8Ge2EV+zSETrGkqFcuAmkQOifWynVVHyLJjPNidHwjKkInZEQGAgUEJDROPfXU4Iu84GILBfrS0heeS0kROmqv3DBaGFFJfdDKwxI/+iNLRt++fXPcdkHFpr/U73IKnSVLlhhZTJTUFolOBVmXmtQuP0ZHzyqX0FFbNJtKU/GVZNXTwpGyVJWSEDql0KJuOQikQegoGHlp0+8rMcmcMXSYDc2xMyPsf1X2B93+7MvSY4jRKcdHhmdAoGUCSRI6Lfei7SvlFjptv7G4Gh0tdNSKZ555xvTr169ga4fiWphds4dg5GJpUa8cBNIgdE61gcgvW7HjVgwMhE4UnJ2mtL1bop7RlWWso9OV9Hl3MQTaK3RmzpwZrNVTzDs+/vGPm3nz5oVV2+O6Cm9uZ+ZghY4sLbfffnvJb9d9w4YNC4LHo26OEjq/+tWvipqqnv88LSDYEQseqo0InXzanHckgTQInTN215sX/XV0fNeVD28H08t9HOQhUHYC7RU6B9OQJAqdg+mvtuZQXExUyhc6UXWKKZOgUsD1FVdcUUz1kuogdErCReUyEEiD0LnQrsv1ZPWOkEbmjCHDbOCAPdckEu+IRSdkRAYCHUIAoXN6JFd9ufuzriIrFVEoASKLFkKnCFhUgUATgTQIncvt75C52+ymnk26BtcVH28IdBEBCR1/QUFt9jh69OiC1rzxxhtGi/SVI2kxv2KnppfjfXqGhIuCkbUKsEttbXugtYa0O/nBJu0jJVdfVFK7vvnNbwbr/ERdL7ZMgkoz8T784Q8Xe0vR9ZxFp5jPSdEPpSIEWiGQBqEz027Lcufm98JeInRCFGQg0LkEtPWAhIdLl112WYvT1Ou9qZKufnuOmgavL+bOTloAcO3atcFrtTfU5ZdfXvJWFB3RZq1zpO0nDjZ1JFf/c6Kx0/5qbS1ncLD94f7KJZAGoXODnQ36ky2bza6mzXYzp3uzrjT7KrD12B+mnayMXLmfdHoOAQhAAAIVSSAtQuexnTuyqyNbPZM5XTE6fmr6x141s658KuQhAAEIQAACqSeQFqHzil1HZ+Gu6mC8AouOG7msRUdnjYZgZEeFIwQgAAEIQKAyCKRF6Lxn3dJzt2X3y7MWnZO0RGB2BD3XPRadyvhQ00sIQAACEICAI5AWoaP+zN68ydQ3NFjX1VBP6Lie2iNCx4NBFgIQgAAEIFABBNIkdObbOJ039uxB6FTA55YuQgACEIAABIoikCahs8qKnMet2MmMtRad7F5X3nqB1oVV3cgWEEV9KqgEAQhAAAIQSAmBNAkdDcnszZtN5rQhQyNjdGqCJQWTO3LsdZXcsaPlEIAABCDQNQTSJnSe27VLFp286eVNbHcxvbxrPmW8FQIQgAAEINBFBNImdDbYBUGtRce6ruyCOlpqPDhaS45cWQidLvqU8VoIQAACEIBAFxFIm9ARxsxpwayrINuENbt+IK6rJhwcIAABCEAAAhVCIOVCJ3cUETq5PDiDAAQgAAEIpJ1AioWOVgqUJad5xcAaYnTS/nmmfxCAAAQgAIEcAmkQOtfYjYMPsSE5LmXGBLOuwlOXMbWZrAsrLEhYhllXCRswmgsBCEAAAl1OIA1CZ3R9vZnUr1/IMidGx5c2tVh0QkhkIAABCEAAApVAIA1CZ+/2bWbWUQNMryarTtaioxM768pbMhCLTiV8oukjBCAAAQhAwCOQBqFTu3WLOatvXzOpb9aq47mumv1Z6jOuK2/kyUIAAhCAAAQqgEAahE5d067lM4440gzs3t14Qkcj2Cx2EDoV8ImmixCAAAQgAAGPQJqEzkk9e5nLDzusSeh4rqusAytjLTrJ3utq9erVpspGXpMgAAEIQAACECiOwP79+83JJ59cXOWY1qq1Fh2ZbaRnLu3f32RGe7Ou/GDk+mbjTky70nqzlixZYg4//PDWK3EVAhCAAAQgAIGQwLZt28yECRPC8yRmJHRcOrSqW67Q8V1XdQmfXj5v3jwzduxY11eOEIAABCAAAQi0QeDVV181V1xxRRu14n3Zxei4VmZOtRYdZ+JpPmZM0oXOLbfcYqZPn+76yRECEIAABCAAgTYI3HfffeYb3/hGG7Xifbl2q3VdWUGjyeQ6BkInqslJd11Jkd52221RXaMMAhCAAAQgAIE8Atrc++abbzbyiCQ5+a4r9SO1QqefXRVRJjgCkpP8caXtEIAABCDQWQQUiDxu3DhTW1vbWa/skPe0KnTS5LoSPdxXHfIZ4qEQgAAEIJBCAmlwW2lYghgd67OShSqj/xSj0zxeNqszWyHpriv1aeTIkebJJ59s7h45CEAAAhCAAAQKCEgUTJ061bz++usF15JW4IKRnbjJEzrN3UmD0FFvFFR1ww03NHeMHAQgAAEIQAACIQGJnNmzZwdekLAwwZk6u9dVkJqUTmbUkCGNgRXHlmYUnpw16aTCopPtqTGPPvqoOf30090pRwhAAAIQgAAEmggsXbrUTJs2LTU8fNdV4KTKdV019zMtFh31SC4s+R6POOKI5g6SgwAEIAABCFQ4AS0QOGPGDPPaa6+lhkSd7ZNLgdAJLDquxDvuDqw7XkHCs2eddZa5++67ETsJH0eaDwEIQAAC5SEgkXPjjTeaxYsXl+eBMXlKodA5cUijXFZBdLKOtqFyYKXJouPYy7Jz66234sZyQDhCAAIQgEDFEdD3/bJly8zXvva1VFly3EBK6MhWY7sZCJrMKCt0dDH4y9Wyxz1VkjvpTApQnjVrVlNMUjr7SK8gAAEIQAAC+QQkcu655x7z3e9+N/9Sas6dRccFINtg5KH5Gifo7O706pygf7LuzJw501x11VXBooLZQOzUjDMdgQAEIAABCAQEJG4aGhrMgw8+aObMmZNKK44/1OGsq6bCzCmB6ypr4nGmHh336K8KSFpBecqUKebss882o0ePNoMHDzb97bburKhcAYNPFyEAAQikkIBETXV1tVm3bp1ZuXKleemll8yCBQtMTU1NCntb2KVaz3UlKZMZ2eS6yq+aZtdVfl85hwAEIAABCEAgHQQiLTpRXdub4hidqP5SBgEIQAACEIBA8glECJ0Tc2dd2YidSnJdJX9I6QEEIAABCEAAAo5ArV0Z2Z9Nnjll8ImRwch7u1W5ezhCAAIQgAAEIACBRBCQ0PFTEIzsF7g8ritHgiMEIAABCEAAAkkhULcjT+icbC06vonHLRyI0EnKkNJOCEAAAhCAAAQcgazrqnk2eUZCx130j/twXfk4yEMAAhCAAAQgkAACtVEWnah2I3SiqFAGAQhAAAIQgECcCUQLHU2z0qYQ3nEf08vjPI60DQIQgAAEIACBCAISOhn7n7aA0DEzYvDgSNfV/m7dIm6nCAIQgAAEIAABCMSXQIFFZ0QLMTr7idGJ7yjSMghAAAIQgAAEIgnU7dieU54ZfsJgO+uqwHNlsOjkcOIEAhCAAAQgAIEEEChwXUnoRLX7QHdcV1FcKIMABCAAAQhAIL4EIi06Uc1F6ERRoQwCEIAABCAAgTgTqI1yXdmgZOu7sn+CY3b21QGCkeM8jrQNAhCAAAQgAIEIAhI6ObOuhp1wQqTrqqF794jbKYIABCAAAQhAAALxJVC7Y4fXODvFHKHj8SALAQhAAAIQgECiCdR5QidwVp10fLNFR7OvnAsLi06ix5nGQwACEIAABCqSQI0VOk7OSNRg0anIjwGdhgAEIAABCKSTQK7ryoYf+xYdv8uNPYjR8XmQhwAEIAABCEAg/gR8oRO4roZa11XugoHWzGMLGglGjv9o0kIIQAACEIAABHIISOg4XSMfVmboccc3z7qSU8ulHj1cjiMEIAABCEAAAhBIBIEIi44ndPwuIHR8GuQhAAEIQAACEEgAgdqd/vRya9EZctxxjf7COm5bc9MTi04CxpMmQgACEIAABCDgEQhmXVkPVWMQoJPvugrmljfV7tnTu40sBCAAAQhAAAIQiD8B36ITaB1ZdKKanUHoRGGhDAIQgAAEIACBGBOo8V1XVuEErit7sE3O1TsInRiPIk2DAAQgAAEIQCCSgISOH5KTOfHYaItOVS9cV5EEKYQABCAAAQhAILYECiw6J7bguqrCdRXbQaRhEIAABCAAAQhEE6jduTO8EMToDD722MhZV1h0Qk5kIAABCEAAAhBICAHNugpXDLQrB2YkdJrb3rxiYDdcV81YyEEAAhCAAAQgkAgCNZ5FRw3OEzrNfejWq1fzCTkIQAACEIAABCCQAAIInQQMEk2EAAQgAAEIQKB9BAqEzgmDPNdVs+fKdMei0z7C3AUBCEAAAhCAQJcRKBQ6OTE6ze1C6DSzIAcBCEAAAhCAQDIIFAid448Z1JixUcmNdlMI/9i9NzE6yRhSWgkBCEAAAhCAgCNQIHROGDTIm3Wlaln/FULHIeMIAQhAAAIQgEBSCBQIneOPOcYTOs1BOj369E5Kn2gnBCAAAQhAAAIQCAgUCJ3jrNDxXVbOhdWjN0KHzwwEIAABCEAAAskiEAgdG5JjY3KChQMzEjpRXejZp09UMWUQgAAEIAABCEAgtgQiLTpRrUXoRFGhDAIQgAAEIACBOBOoqa7OaV7m2KOPDi06WRdWdosIhE4OJ04gAAEIQAACEEgAgV12CwgXkqPmZo5twXXVC9dVAoaTJkIAAhCAAAQg4BNo1aLjV+x1yCH+KXkIQAACEIAABCAQewK7rOuqeQ65LDpyXXnRyS5KGYtO7MeSBkIAAhCAAAQgkEcgEDqerskM8mJ0/Lq9sej4OMhDAAIQgAAEIJAAAruqd9pWNtt0EDoJGDSaCAEIQAACEIBAcQRqdmnWlSd0jhk4sGnBQFvcvL6OwaJTHFBqQQACEIAABCAQHwKy6DTPIs+YzDEtuK764LqKz6jREghAAAIQgAAEiiKQteioataqk5FFJ+rOPn37RhVTBgEIQAACEIAABGJLYFfgumpuXubo0HWlyVcZO+kqe8Si0wyJHAQqmcB1111nunfvHiDYs2ePuffeexOFo2fPnmbw4MFhmzdu3Gjq6+vNjBkzTN+mf9Bt3brVPPzww2EdMhCAQHIJSOhYh1WoZwKhE9WdQ7DoRGGhDAIVR+Cmm24K/hGkjusfQt///vdbZDBp0iTTv3//Fq+XcmHLli1m0aJFpdwSWXfIkCHmyiuvDK+tWrXKzJ8/33zhC18IBdy+ffvMHXfcEdYhAwEIJJdAYNHxfFUIneSOJS2HQJsEqqqqTI8ePcJ6+/fvNwcOHAjPi8mUInQ+//nPG1lQypHU1h/84ActPmrAgAFGwuqII44we/fuNatXrzYrVqwwNTU1OffkCx3Ve+yxxxA6OZQ4gUB6CNTs2pXTmczAAQMaAxOPsS4rmXqajof0I0YnhxQnEEgggbFjx5rJkyeHLX/nnXfM/fffH54Xk+kqodOalWX06NHmkksuKWi+LE6PPPKIWbt2bXgNoROiIAOBiiDgFgx0oTiZo63Qier5If36RRVTBgEIJIhAZwudyy+/3AwcODCS0KGHHlpQrl9E+RYYVXLlDzzwQME9gwYNMtOnTw/dafkVdK/E3LvvvhtcQujkE+IcAukmsCvKohPV5b4InSgslEEgUQQ6W+i0BOfII480n/zkJyPFyUMPPWTWr1/f0q0F5Z/97GfNIW0sf6Hg4p///OfBvQidAoQUQCDVBAqEjvVzW9eV/ReU/eMfETqp/hzQuQohEAehc+yxxwbBwC3F7ihm6Nlnnw3ia9oaFgmmT33qU2E1ubd++tOfmm7dupmZM2cGR3fxxz/+sdEvPISOI8IRApVBQD/3vp7JSOhEdb0fFp0oLJRBIFEEulLoyFV17rnnmlNPPTXHkqPAYaV84SNX0wsvvGDWrVvXIuOLL77YjBkzJrz+0ksvGf1RuuCCC8yECRPCa8uWLTMLFixA6IREyECgMghEWnSiuo7QiaJCGQSSRaAzhY4sN8ccc0wQo3PCCSeYww47rACWrDf33Xef0YwqubJkiclPEkIKmn7vvffMhg0bzNtvvx1W+cxnPmP8WJ/Zs2eburq64LqmtV9//fVhXQmnuXPnInRCImQgUBkENOvKt+BkjjrqqKa9rnIXDEToVMYHgl6mm0BnCR0tNqp1aaKEiyMsQaLg4h07dgRFirP52Mc+ZuSOainlz7zyp6/nX9MzvvjFL4Zt0KKAd999txk6dKi54oorwlcwvTxEQQYCqSRQaNGxQieqp/0iZkhE1aMMAhCIL4FyCx311A8clmh55plnAgDnn3++OfPMMwtgyELz6quvmhdffNE0NDQUXB8/fnxwn1ul2K/w/PPPm8WLF4dFvpCRcJJFx0+f+9znTO/evYMizb6SRUjP1Vo7LiF0HAmOEEgngQKhI4tOVFd983DUdcogAIH4E+gIoeP3evfu3eauu+4KirQ44d/93d8Fqw2rXO6n1157Lfjj39NSXu4uxdhoIUCJE203IYuMn26++ebwtLq62vzkJz8Jz5W54YYbwm0dci54JwgdDwZZCKSQAEInhYNKlyDQEoGOFjpyD2nvq7PPPrulJpSlfMmSJWbnzp0GoVMWnDwEAqkmgNBJ9fDSOQjkEugIoVNbWxu8RK4hiQ/tHXXRRRflvrjMZ0888URgGfrSl75kZDlSast1pTr6hacNSfv06aPTIGHRcSQ4QiCdBBA66RxXegWBSALlFjoSN/mbeo4bN67ThI4fjBy1F5a/UacLRmYdnciPBoUQSC0BhE5qh5aOQaCQQGcInVNOOcVMmTKl8OURJflr57g1dSKqhkUSV48//ngwzXzWrFnGnxGqGB4JGiWV67pLmzdvNr/85S+ZXu6AcIRAhRBA6FTIQNNNCIhAqUJHa9/IAqLA4KVLlwYzrErZ1LM16nIhyeLiUpRFxl1r6Th16lQzatSo8LI/K+ucc84x+uPSypUrzdNPP43QcUA4QqBCCCB0KmSg6SYERCBf6MiCsmXLliBupUePHsFRa9/I0qKj1sNxSUJHWzO0V+joeSNHjgyEhhYS1EwqvdNPssZo9pTatGbNGvPGG2/4lwvy2jD0mmuuCcu1lo6mmEtEaTFBHV1SkPS2bdsQOg4IRwhUCAGEToUMNN2EgAjkC51SqKxdu9Y8/PDDJQsdBQtrOwa92xcexbxbU8o1w8pt6xB1j6aw9+rVK7wk15aSL9K0vs+cOXOCcmJ0Agz8BYGKIYDQqZihpqMQaL/QkaVk+fLl5ne/+11JQkdiY/r06WbQoEEHhV/bPjzyyCORz5Bw0UrHvrDxK2pRwnnz5pm33norKEbo+HTIQyD9BBA66R9jegiBkIAChS+99NLwXNYP/ZEYkJiRK0tWFLmP5ObZunVrEJejBf9cKsV1lR8no2foXbKwbNy4MZju7Z6tKd+KCZIoOvzwwwuEy3PPPResqOza4R+1ArNWYs5P6ttvfvMbo/gclxA6jgRHCFQGAYROZYwzvYRA2QiUInSuvfbaYGVj93IJHG2s6cSNK88/Kn5nxowZOasaSxhpb6yW0vDhw4Pd0bWKu0Sbtnv485//HKzI7N+D0PFpkIdA+gkgdNI/xvQQAmUlUIrQmTlzZmCdcQ148803AzeSO2/pKDfU1VdfbbQDukvavVw7nR9sQugcLEHuh0CyCCB0kjVetBYCXU6gFKEzefLkIAjZb7TcYlo9WTEz27dvD9e9cZttDhs2zIwYMSLHmqP7Fy5caF5++WX/Ue3KI3TahY2bIJBYAgidxA4dDYdA1xAoRego7ubTn/50uIN4e1tcU1MTzJrSWjsHmxA6B0uQ+yGQLAIInWSNF62FQJcTKEXoqLESO9OmTTNaO6elmVEtdUrBxIq10YyrAwcOtFStpHJf6Oj52uvq17/+dbB4oZv+rhifO+64o6TnUhkCEIgnAYROPMeFVkEgtgR8oaMZVLfffntRbdVaN9rVXG6p3r17BwsSahFBP+l5EjTaKFTuLa2ho806y5m0ro9El0v6JSiLkb8vlmaf3Xnnna4KRwhAIMEEEDoJHjyaDoGuIDBp0qRApOjdWsl40aJFB9UMt1eVxI0sLF2Vxo8fbzRjS0niavHixV3VFN4LAQiUkQBCp4wweRQEIAABCEAAAvEigNCJ13jQGghAAAIQgAAEykgAoVNGmDwKAhCAAAQgAIF4EUDoxGs8aA0EIAABCEAAAmUkgNApI0weBQEIQAACEIBAvAggdOI1HrQGAhCAAAQgAIEyEkDolBEmj4IABCAAAQhAIF4EEDrxGg9aAwEIQAACEIBAGQkgdMoIk0dBAAIQgAAEIBAvAgideI0HrYEABCAAAQhAoIwEEDplhMmjIAABCEAAAhCIFwGETrzGg9ZAAAIQgAAEIFBGAgidMsLkURCAAAQgAAEIxIsAQide40FrIAABCEAAAhAoIwGEThlh8igIQAACEIAABOJFAKETr/GgNRCAAAQgAAEIlJEAQqeMMHkUBCAAAQhAAALxIoDQidd40BoIQAACEIAABMpIAKFTRpg8CgIQgAAEIACBeBFA6MRrPGgNBCAAAQhAAAJlJIDQKSNMHgUBCEAAAhCAQLwIIHTiNR60BgIQgAAEIACBMhJA6JQRJo+CAAQgAAEIQCBeBBA68RoPWgMBCEAAAhCAQBkJIHTKCJNHQQACEIAABCAQLwIInXiNB62BAAQgAAEIQKCMBBA6ZYTJoyAAAQhAAAIQiBcBhE68xoPWQAACEIAABCBQRgIInTLC5FEQgAAEIAABCMSLAEInXuNBayAAAQhAAAIQKCMBhE4ZYfIoCEAAAhCAAATiRQChE6/xoDUQgAAEIAABCJSRAEKnjDB5FAQgAAEIQAAC8SKA0InXeNAaCEAAAhCAAATKSAChU0aYPAoCEIAABCAAgXgRQOjEazxoDQQgAAEIQAACZSSA0CkjTB4FAQhAAAIQgEC8CCB04jUetAYCEIAABCAAgTISQOiUESaPggAEIAABCEAgXgQQOvEaD1oDAQhAAAIQgEAZCSB0ygiTR0EAAhCAAAQgEC8CCJ14jQetgQAEIAABCECgjAQQOmWEyaMgAAEIQAACEIgXgaKFTr9+/Uwmk4lX62kNBCAAAQhAAAIQaIFAY2OjqampybmaOeqooxr9Eidu+vbti9DxwZCHAAQgAAEIQCDWBBoaGkxtbW1OG3OETvfu3c1NN90UVJg/f77ZsGFDTmVOIAABCEAAAhCAQFwJHDhwwNTV1eU0L0fo9OrVy3z7298OKjz99NPm5ZdfzqnMCQQgAAEIQAACEIgrgb1795o9e/bkNK9FobN8+XLz2GOP5VTmBAIQgAAEIAABCMSVwO7du82+fftymtei0KmurjZ33HFHTmVOIAABCEAAAhCAQFwJKD5HcTp+alHoqNLPfvYzs3HjRr8+eQhAAAIQgAAEIBA7AlHxOWpkq0LnT3/6k1mwYEHsOkODIAABCEAAAhCAgE9AsTmK0clPrQodRS7ffvvtRvPSSRCAAAQgAAEIQCCuBLR+TpReaVXoqDOPPvqoWblyZVz7RbsgAAEIQAACEKhwAlGzrRySNoXOmjVrzNy5c119jhCAAAQgAAEIQCBWBKKCkF0D2xQ6mqb1xBNPmBUrVrh7OEIAAhCAAAQgAIFYEGjNmqMGtil0XC+YgeVIcIQABCAAAQhAIA4EWppp5betaKHzzjvvBNPNowJ9/AeShwAEIAABCEAAAp1BoDWXlXt/0UJHN7BassPGEQIQgAAEIACBriQQtQpyVHvaFDryfS1atCi8d/369ebNN98Mz8lAAAIQgAAEIACBziTQ0po5UW1oU+hs2rTJfO9738u5t2fPnkYbgJIgAAEIQAACEIBAZxIoReSoXe0SOrqxR48epnfv3sqSIAABCEAAAhCAQIcTKNZd5Tek3UJHD6mqqgrETrdu3fxnkocABCAAAQhAAAJlI6DZVRI5+Rt2FvOCgxI67gVyY8mdRYIABCAAAQhAAALlJNDWOjltvassQkcvkXVH7iwET1vIuQ4BCEAAAhCAQFsEJHC0aHF7rDj+s8smdNxDM5lMIHi6d+9ucGk5KhwhAAEIQAACEGiLgFxU+/fvDwROudbtK7vQ8TshK4/EjjtKBLk/fj3yEIAABCAAAQhUDgGJGPdH4kZWG3csN4UOFTotNfajH/2oOe2003Iu33LLLTnnbZ1cdNFF5pJLLsmpNn/+fPPCCy/klElYHXnkkebTn/60GTBgQM41d7Jq1Srz05/+1J22eYx69zPPPGOeffbZNu+lAgQgAAEIQAACnUegS4TOV77ylUB8+N385je/Gag7v6y1fJTYyBc6siRddtllZuLEiYElKep5K1euNL/4xS+iLrVYFvVuhE6LuLgAAQhAAAIQ6DICBULnW9/6Vk5j1qxZY370ox/llB3sSbmEzsUXX5zTlEceecQsXrw4LPv6179u+vfvH577GZnMZIFZsGCBX1xUHqFTFCYqQQACEIAABLqcQI7Q6azWlEPouKBnv82K0PbTRz7yETNp0iS/KMjLD/jAAw+YZcuWFVwrpgChUwwl6kAAAhCAAAS6nkBihU6x6G688UYzZMiQoLqsOGvXrjU///nPTV1dXbGPKKiH0ClAQgEEIAABCEAglgT+HyTplh/dBAwRAAAAAElFTkSuQmCC;" vertex="1" parent="1">
          <mxGeometry x="490" y="160" width="245.92" height="258" as="geometry" />
        </mxCell>
      </root>
    </mxGraphModel>
  </diagram>
</mxfile>
